<svg id="breasts" xmlns="http://www.w3.org/2000/svg" viewBox="0 0 1000 1000">
    <path d="M427.452 958.83c29.68-.004 56.065-18.901 65.62-47a71.001 71.001 0 01-118.19 6.64l-.05 14.73c12.74 15.63 30.89 25.63 52.62 25.63zm143.841 0c-29.68-.004-56.064-18.901-65.62-47a71.001 71.001 0 00118.19 6.64v14.72c-12.69 15.64-30.84 25.64-52.57 25.64z" opacity=".15"/>
    <path d="M407.572 941.01a57.144 57.144 0 01-31.21-16l-1.62-1.6c-.53-.54-1-1.13-1.53-1.69s-1-1.15-1.48-1.73a22.03 22.03 0 01-1.43-1.79c-.9-1.23-1.81-2.46-2.68-3.72l-2.37-3.93a69 69 0 01-6.71-17.13 70.52 70.52 0 01-1.69-18.3 64.09 64.09 0 013.4-17.93c.26-.71.49-1.43.76-2.14l.88-2.1c.55-1.4 1.26-2.74 1.91-4.09a60.782 60.782 0 014.74-7.63c.85-1.21 1.82-2.35 2.75-3.49.93-1.14 1.94-2.23 3-3.23a47.652 47.652 0 016.73-5.59c-5.79 10-9.9 20.19-11.66 30.67a78.092 78.092 0 00-1.18 15.61 84.636 84.636 0 002 15.41 80.809 80.809 0 005.12 14.65 76.21 76.21 0 008.08 13.47 79.001 79.001 0 0010.81 11.95 114.95 114.95 0 0013.38 10.33zm183.651 0a114.963 114.963 0 0013.35-10.29 79.032 79.032 0 0010.81-11.95 76.204 76.204 0 008.08-13.47 80.811 80.811 0 005.12-14.65 84.645 84.645 0 002-15.41 78.136 78.136 0 00-1.15-15.67c-1.76-10.48-5.87-20.64-11.66-30.67a47.642 47.642 0 016.73 5.59c1.08 1 2 2.14 3 3.23 1 1.09 1.9 2.28 2.75 3.49a60.82 60.82 0 014.74 7.63c.65 1.35 1.36 2.69 1.91 4.09l.88 2.1c.27.71.5 1.43.76 2.14a64.073 64.073 0 013.4 17.93 70.542 70.542 0 01-1.69 18.3 69.01 69.01 0 01-6.71 17.13l-2.37 3.93c-.87 1.26-1.78 2.49-2.68 3.72a22.051 22.051 0 01-1.43 1.79c-.49.58-1 1.16-1.48 1.73-.48.57-1 1.15-1.53 1.69l-1.62 1.6a57.134 57.134 0 01-31.21 16.02z" fill="#592d3d"/>
</svg>
