<svg id="breasts" xmlns="http://www.w3.org/2000/svg" viewBox="0 0 1000 1000">
    <path
        opacity="0.1"
        d="m 427.45248,958.82995 c 29.67911,-0.004 56.06411,-18.901 65.62011,-47 -12.017,20.556 -33.538,33.72 -57.31221,35.056 -23.7737,1.335 -46.6339,-9.335 -60.87791,-28.416 l -0.05,14.73 c 12.74001,15.63 30.89001,25.63 52.62001,25.63 z"
        fill="#000000" />
    <path
        opacity="0.1"
        d="m 571.29301,958.82995 c -29.68001,-0.004 -56.06401,-18.901 -65.62001,-47 12.017,20.556 33.538,33.72 57.31201,35.056 23.774,1.335 46.63401,-9.335 60.87801,-28.416 v 14.72 c -12.69,15.64 -30.84001,25.64 -52.57001,25.64 z"
        fill="#000000" />
    <path
        d="m 407.57248,941.00995 c -21.6714,-8.088 -37.88131,-26.4519 -43.21759,-48.9595 -5.3363,-22.5075 0.90408,-46.1939 16.63758,-63.15045"
        fill="#ffffff"
        fill-opacity="0.01" />
    <path
        d="m 407.57248,941.00995 c -11.8233,-1.93 -22.7411,-7.527 -31.21001,-15.9999 l -1.62,-1.6 c -0.53,-0.54 -1,-1.13 -1.53,-1.69 -0.53,-0.56 -1,-1.15 -1.48,-1.73 -0.5074,-0.5715 -0.9847,-1.1689 -1.43,-1.79 -0.9,-1.23 -1.81,-2.46 -2.68,-3.72 l -2.36998,-3.93 c -2.99127,-5.3849 -5.24799,-11.1461 -6.71,-17.13 -1.35917,-6.0002 -1.92733,-12.1524 -1.69,-18.3 0.27225,-6.1083 1.41719,-12.1461 3.4,-17.93 0.26,-0.71 0.49,-1.43 0.76,-2.14 l 0.88,-2.1 c 0.55,-1.4 1.26,-2.74 1.91,-4.09 1.38968,-2.6568 2.97398,-5.2071 4.73998,-7.63 0.85,-1.21 1.82,-2.35 2.75,-3.49003 0.93,-1.14 1.94,-2.23 3,-3.23 2.0672,-2.06577 4.32,-3.93699 6.73,-5.59 -5.79,10.00003 -9.9,20.19003 -11.66,30.67003 -0.9152,5.1506 -1.3105,10.3803 -1.18,15.61 0.1927,5.1871 0.8622,10.3455 2,15.41 1.2327,5.0363 2.9473,9.9422 5.12,14.65 2.2222,4.7563 4.9299,9.2703 8.08,13.47 3.18661,4.3413 6.80881,8.3455 10.81001,11.9499 4.2006,3.767 8.6727,7.22 13.38,10.33 z"
        fill="#592d3d" />
    <path
        d="m 591.22301,941.00995 c 21.66301,-8.099 37.86101,-26.4678 43.18701,-48.9741 5.326,-22.5063 -0.921,-46.1863 -16.657,-63.13585"
        fill="#c4c4c4"
        fill-opacity="0.01" />
    <path
        d="m 591.22301,941.00995 c 4.696,-3.099 9.158,-6.538 13.35001,-10.29 4.001,-3.6044 7.623,-7.6086 10.81,-11.9499 3.15,-4.1997 5.858,-8.7137 8.08,-13.47 2.173,-4.7078 3.887,-9.6138 5.12,-14.65 1.138,-5.0645 1.807,-10.2229 2,-15.41 0.144,-5.2488 -0.241,-10.4987 -1.15,-15.67 -1.76,-10.48 -5.87,-20.64 -11.66,-30.67005 2.41,1.65302 4.663,3.52423 6.73,5.59 1.08,1 2,2.14 3,3.23 1,1.09005 1.9,2.28005 2.75,3.49005 1.766,2.4229 3.35,4.9732 4.74,7.63 0.65,1.35 1.36,2.69 1.91,4.09 l 0.88,2.1 c 0.27,0.71 0.5,1.43 0.76,2.14 1.983,5.7838 3.128,11.8217 3.4,17.93 0.237,6.1476 -0.331,12.2998 -1.69,18.3 -1.462,5.9839 -3.719,11.7451 -6.71,17.13 l -2.37,3.93 c -0.87,1.26 -1.78,2.4899 -2.68,3.72 -0.445,0.6211 -0.923,1.2185 -1.43,1.79 -0.49,0.58 -1,1.16 -1.48,1.73 -0.48,0.57 -1,1.15 -1.53,1.69 l -1.62,1.6 c -8.466,8.4809 -19.384,14.0849 -31.21001,16.0199 z"
        fill="#592d3d" />
</svg>