<svg id="hat-beanie" xmlns="http://www.w3.org/2000/svg" viewBox="0 0 1000 1000">
    <circle cx="491.44" cy="157.14" r="47.48" fill="#fff"/>
    <path d="M491.44 204.62a47.47 47.47 0 0046.46-57.31c-30.78-4.77-62.7-2-93.77 6-.1 1.26-.17 2.53-.17 3.82a47.48 47.48 0 0047.48 47.49z" fill="#e2e2e2"/>
    <circle cx="491.44" cy="157.14" r="47.48" fill="none" stroke="#592d3d" stroke-miterlimit="10" stroke-width="12"/>
    <path d="M240.26 423.13a254.67 254.67 0 016.54-57.5q1.29-5.55 2.81-11c2.9-32.3 20-58.94 42.86-82.73 4.76-3.81 5.71-12.37 10.47-17.13 16.18-14.27 30.45-28.55 48.53-40 74.22-47.58 172.23-73.27 251.21-29.5 16.17 8.56 34.25 13.32 47.57 24.74 25.7 21.88 43.77 47.58 69.47 68.51 22.83 19 26.64 49.48 34.74 76.07q1.53 5.44 2.81 11a254.67 254.67 0 016.54 57.5z" fill="#5bcaf0"/>
    <path d="M246.8 365.63a254.67 254.67 0 00-6.54 57.5h83C321.7 342.47 301 275.11 406 193c-75.32 28.59-143.95 91.38-159.2 172.63z" fill="rgba(0,0,0,.1)"/>
    <path d="M258.18 321.12a109.41 109.41 0 00-8.57 33.51q-1.52 5.44-2.81 11a254.67 254.67 0 00-6.54 57.5h200.05a827.17 827.17 0 01127.59 0h195.91a254.67 254.67 0 00-6.54-57.5q-1.29-5.55-2.81-11c-3.46-11.37-6.15-23.44-9.86-35-161.89-59.9-325.6-58.63-486.42 1.49z" fill="rgba(0,0,0,.1)"/>
    <path d="M240.26 423.13a254.67 254.67 0 016.54-57.5q1.29-5.55 2.81-11c2.9-32.3 20-58.94 42.86-82.73 4.76-3.81 5.71-12.37 10.47-17.13 16.18-14.27 30.45-28.55 48.53-40 74.22-47.58 172.23-73.27 251.21-29.5 16.17 8.56 34.25 13.32 47.57 24.74 25.7 21.88 43.77 47.58 69.47 68.51 22.83 19 26.64 49.48 34.74 76.07q1.53 5.44 2.81 11a254.67 254.67 0 016.54 57.5z" fill="none" stroke="#592d3d" stroke-miterlimit="10" stroke-width="12.86"/>
    <path d="M225.35 356.43c183.42-78 371.14-79.06 555.94 0 17.53 7.5 17.43 139.87 0 133.81-180.47-62.83-371.33-63.5-555.94 0-21.96 7.55-19.82-125.38 0-133.81z" fill="#fff"/>
    <path d="M751.33 443.71a43.58 43.58 0 011.35 9.9c.09 3.27-.11 6.52-.26 9.78l-.36 4.87c-.16 1.62-.32 3.24-.52 4.85-.4 3.23-.89 6.44-1.59 9.61l-7.87-1.41c.44-3.17 1-6.31 1.64-9.45l1-4.71 1-4.7c.74-3.13 1.37-6.27 2.22-9.4a53.94 53.94 0 013.39-9.34zm-1.42-101.24a175.32 175.32 0 013.63 19c.43 3.19.78 6.39 1.09 9.59s.49 6.42.66 9.63c.26 6.42.37 12.84.06 19.25a114.35 114.35 0 01-2.45 19.11c-1-6.39-1.67-12.7-2.32-19s-1.21-12.55-2.05-18.78c-.39-3.12-.83-6.22-1.3-9.32s-1-6.19-1.52-9.27c-1.07-6.17-2.3-12.29-3.59-18.41z" fill="#592d3d"/>
    <path d="M668.78 322c7.56 42.87 6.71 89.49 0 138.73m-70.59-153.12c5.15 42.9 4.57 89.55 0 138.83" fill="none" stroke="#592d3d" stroke-miterlimit="10" stroke-width="8"/>
    <path d="M533.85 356.47a172.75 172.75 0 012.37 20.68c.4 6.9.52 13.8.65 20.71v10.36c0 3.45 0 6.9-.12 10.35-.15 6.9-.4 13.8-.87 20.69l-8-.4c.22-6.87.57-13.73.94-20.59l1.21-20.57c.46-6.86.82-13.73 1.35-20.6s1.31-13.74 2.47-20.63zm2.08-56.59a58.54 58.54 0 01.28 6.35c0 1.06-.05 2.12-.08 3.18l-.13 3.19c-.17 2.12-.32 4.25-.68 6.38a22.42 22.42 0 01-2.08 6.41 23.29 23.29 0 01-2.7-6.21c-.57-2.08-.93-4.16-1.31-6.25l-.49-3.12c-.13-1.05-.28-2.09-.39-3.13a55 55 0 01-.35-6.29z" fill="#592d3d"/>
    <path d="M467.76 299.65c.35 43 .31 89.67 0 139m-64.38-132.47c-2.06 43-1.83 89.73 0 139.11" fill="none" stroke="#592d3d" stroke-miterlimit="10" stroke-width="8"/>
    <path d="M333.37 391.65a161.31 161.31 0 012.71 16.78c.63 5.59 1.09 11.17 1.65 16.75l1.51 16.73c.47 5.57.93 11.15 1.25 16.74l-8 .64c-.58-5.61-.93-11.24-1.18-16.87-.13-2.82-.2-5.64-.28-8.46l-.1-8.46c0-5.64.05-11.29.35-16.93a117.52 117.52 0 012.09-16.92zm7.11-71.47c-.25 3.65-.64 7.28-1.05 10.91l-.66 5.45-.72 5.45c-.54 3.64-.95 7.28-1.6 10.93a67.39 67.39 0 01-2.8 10.92 55.71 55.71 0 01-2-11.14c-.3-3.72-.32-7.42-.38-11.14V336c.06-1.86.11-3.71.2-5.56.2-3.71.49-7.41 1-11.09z" fill="#592d3d"/>
    <path d="M264.86 340.45c-6.86 43-6.09 89.85 0 139.3" fill="none" stroke="#592d3d" stroke-miterlimit="10" stroke-width="8"/>
    <path d="M753.07 434.58a3.75 3.75 0 10-3.75-3.75 3.8 3.8 0 003.75 3.75z" fill="#592d3d"/>
    <path d="M758.28 341.38c10 42.84 8.85 89.43 0 138.64M681 320c7.56 42.87 6.71 89.49 0 138.74m-70.62-153.29c5.15 42.9 4.57 89.55 0 138.83m-66.32-146.46c2.74 42.92 2.44 89.61 0 138.92M479.8 297.16c.34 42.95.31 89.67 0 139m-64.46-132.63c-2.06 43-1.83 89.73 0 139.11M348.41 317c-4.46 43-4 89.79 0 139.21m-71.67-118.57c-6.86 43-6.09 89.85 0 139.3" fill="none" stroke="#e2e2e2" stroke-miterlimit="10" stroke-width="8"/>
    <path d="M225.35 356.43c183.42-78 371.14-79.06 555.94 0 17.53 7.5 17.43 139.87 0 133.81-180.47-62.83-371.33-63.5-555.94 0-21.96 7.55-19.82-125.38 0-133.81z" fill="none" stroke="#592d3d" stroke-miterlimit="10" stroke-width="11.79"/>
    <path d="M426.76 283.72a328.8 328.8 0 0138.61-5.72c3.25-.28 6.49-.56 9.74-.78l9.75-.56c3.26-.14 6.51-.2 9.77-.3l9.77-.13c13 0 26.05.63 39 1.84a324.4 324.4 0 0138.6 5.8c-13-.29-26-.79-38.88-1.13s-25.84-.49-38.75-.52h-9.68c-3.23 0-6.46.12-9.69.11l-9.68.14c-3.23.11-6.46.16-9.7.2-12.9.33-25.84.79-38.86 1.05z" fill="#592d3d"/>
    <path d="M347.31 233.83a183.71 183.71 0 0122.38-15.33c7.78-4.62 15.81-8.84 24-12.66 2-1 4.13-1.86 6.2-2.78s4.13-1.86 6.24-2.67c4.22-1.65 8.4-3.38 12.7-4.8a217 217 0 0126.06-7.5c-2.07.91-4.16 1.78-6.25 2.63s-4.19 1.64-6.25 2.56c-4.15 1.74-8.31 3.42-12.43 5.22l-3.09 1.33c-1 .43-2.08.85-3.1 1.32l-6.15 2.73c-2.06.88-4.09 1.83-6.14 2.75s-4.09 1.84-6.1 2.83l-6.1 2.83c-2 1-4 2-6.05 3-4 1.94-8 4-12.05 6-7.99 4.02-15.95 8.19-23.87 12.54z" fill="#fff"/>
</svg>
