<svg id="nose-big" xmlns="http://www.w3.org/2000/svg" viewBox="0 0 1000 1000">
    <path d="M483.413 586.221c12.01 3.982 15.408 4.5 23.812 1.575 8.404-2.926 18.768-12.998 27.6-15.704 4.568-1.4 5.49-24.208 9.21-12.104 3.72 12.104 6.93 44.84-44.176 44.84-51.105 0-48.876-43.217-48.835-46.37.04-3.152 20.379 23.782 32.389 27.763z" fill="rgba(0,0,0,.1)"/>
    <path d="M494.492 582.977c16.055 3.075 27.489-3.075 39.775-15.782 12.286-12.706-1.124-49.237 0-47.57.628.932 15.487 17.446 12.34 42.68-3.148 25.235-24.83 35.061-46.748 33.524-42.117-2.955-44.122-17.89-48.105-35.165-3.983-17.275 9.56-32.088 10.849-33.48 1.262-1.362-3.944 16.923 0 33.48s15.834 19.238 31.889 22.313z" fill="#592d3d"/>
</svg>
