<svg id="nose-big" xmlns="http://www.w3.org/2000/svg" viewBox="0 0 1000 1000">
  <path
     d="m 483.41299,586.22134 c 12.01,3.9816 15.4081,4.5005 23.8122,1.5744 8.404,-2.926 18.7679,-12.9979 27.5993,-15.7038 4.5686,-1.4 5.4899,-24.2081 9.2097,-12.1041 3.7199,12.1041 6.9308,44.841 -44.1748,44.841 -51.10533,0 -48.8759,-43.2183 -48.83577,-46.3708 0.0401,-3.1524 20.37937,23.7817 32.38937,27.7633 z"
     fill="rgba(0,0,0,.1)" />
  <path
     d="m 494.49199,582.97714 c 16.055,3.0752 27.4887,-3.0753 39.7749,-15.7818 12.2863,-12.7065 -1.1234,-49.23719 0,-47.57011 0.6281,0.93197 15.4871,17.44601 12.3398,42.68061 -3.1472,25.2346 -24.8291,35.0606 -46.7474,33.523 -42.11749,-2.9546 -44.12247,-17.8894 -48.10529,-35.1645 -3.98283,-17.2752 9.56009,-32.0884 10.84899,-33.48002 1.2618,-1.36237 -3.94387,16.92292 0,33.48002 3.9439,16.557 15.8339,19.2375 31.889,22.3128 z"
     fill="#592d3d" />
</svg>
