<svg id="nose-normal" xmlns="http://www.w3.org/2000/svg" viewBox="0 0 1000 1000">
  <path
     d="m 483.65887,584.9855 c 12.01,3.9816 15.4081,4.5005 23.8122,1.5744 8.404,-2.926 18.7679,-12.9978 27.5993,-15.7038 4.5686,-1.40002 16.9956,-4.07461 9.3544,0 -7.6407,4.0746 -30.6582,31.6344 -44.3195,32.7369 -21.9359,1.5627 -30.1395,-26.972 -45.79944,-35.88937 -4.56494,-2.59944 2.53181,-2.03455 6.91284,0 4.381,2.03454 10.4302,13.30027 22.4402,17.28187 z"
     fill="rgba(0,0,0,.1)" />
  <path
     d="m 483.65897,575.9855 c 12.0099,3.9816 15.4081,4.5005 23.8121,1.5744 8.4041,-2.926 23.2947,-10.96331 32.1261,-13.66928 4.5686,-1.4 8.5178,-3.70163 9.6408,-2.03454 1.124,1.66708 1.649,6.69049 -3.1612,8.23726 -13.1972,4.01826 -32.3101,23.39716 -45.9714,24.49966 -21.9359,1.5627 -31.4626,-17.972 -47.12255,-26.88938 -4.56493,-2.59944 -4.51977,-4.45592 -3.23088,-5.84754 1.2618,-1.36237 3.85488,-2.03455 8.23587,0 4.38096,2.03454 13.66116,10.14782 25.67116,14.12942 z"
     fill="#592d3d" />
</svg>
