<svg id="nose-up" xmlns="http://www.w3.org/2000/svg" viewBox="0 0 1000 1000">
  <path
     d="m 483.65887,551.15599 c 12.01,-3.9816 15.4082,-4.50045 23.8122,-1.57441 8.4041,2.92604 18.7679,12.99784 27.5993,15.70384 4.5686,1.4 17.7946,13.3956 10.154,9.321 -7.6408,-4.0746 -30.7244,-10.1764 -48.2244,-10.1764 -17.5,0 -13.3411,0.8554 -35.7813,6.7937 -7.26355,1.9222 -4.38099,-0.7513 0,-2.7858 4.381,-2.0346 10.4303,-13.3003 22.4402,-17.28193 z"
     fill="rgba(0,0,0,.1)" />
  <path
     d="m 483.65897,560.15602 c 12.0099,-3.9816 15.4081,-4.5005 23.8121,-1.5745 8.4041,2.9261 23.2947,10.9634 32.1261,13.6694 4.5686,1.4 8.5178,3.7016 9.6408,2.0345 1.124,-1.6671 1.649,-6.6905 -3.1612,-8.2373 -13.1972,-4.0182 -32.3101,-23.39713 -45.9714,-24.49962 -21.9359,-1.56272 -31.4626,17.97202 -47.12255,26.88942 -4.56493,2.5994 -4.51977,4.4559 -3.23088,5.8475 1.2618,1.3624 3.85488,2.0346 8.23587,0 4.38096,-2.0345 13.66116,-10.1478 25.67116,-14.1294 z"
     fill="#592d3d" />
  <ellipse
     cx="484.99997"
     cy="584.07153"
     rx="11"
     ry="12.5"
     fill="#592d3d" />
  <ellipse
     cx="513"
     cy="584.07153"
     rx="11"
     ry="12.5"
     fill="#592d3d" />
</svg>
