<svg id="nose-normal" xmlns="http://www.w3.org/2000/svg" viewBox="0 0 1000 1000">
    <path d="M483.659 584.986c12.01 3.981 15.408 4.5 23.812 1.574 8.404-2.926 18.768-12.998 27.6-15.704 4.568-1.4 16.995-4.075 9.354 0-7.64 4.075-30.658 31.634-44.32 32.737-21.936 1.563-30.14-26.972-45.8-35.89-4.564-2.599 2.533-2.034 6.914 0 4.38 2.035 10.43 13.3 22.44 17.283z" fill="rgba(0,0,0,.1)"/>
    <path d="M483.659 575.986c12.01 3.981 15.408 4.5 23.812 1.574 8.404-2.926 23.295-10.963 32.126-13.67 4.569-1.4 8.518-3.701 9.641-2.034 1.124 1.667 1.649 6.69-3.161 8.237-13.197 4.019-32.31 23.398-45.972 24.5-21.936 1.563-31.462-17.972-47.122-26.89-4.565-2.599-4.52-4.455-3.231-5.847 1.262-1.362 3.855-2.034 8.236 0 4.38 2.035 13.661 10.148 25.671 14.13z" fill="#592d3d"/>
</svg>
