<svg id="nose-up" xmlns="http://www.w3.org/2000/svg" viewBox="0 0 1000 1000">
    <path d="M483.659 551.156c12.01-3.982 15.408-4.5 23.812-1.574 8.404 2.926 18.768 12.997 27.6 15.703 4.568 1.4 17.794 13.396 10.153 9.321-7.64-4.074-30.724-10.176-48.224-10.176-17.5 0-13.341.855-35.781 6.794-7.264 1.922-4.381-.752 0-2.786 4.38-2.035 10.43-13.3 22.44-17.282z" fill="rgba(0,0,0,.1)"/>
    <path d="M483.659 560.156c12.01-3.982 15.408-4.5 23.812-1.574 8.404 2.926 23.295 10.963 32.126 13.669 4.569 1.4 8.518 3.702 9.641 2.034 1.124-1.667 1.649-6.69-3.161-8.237-13.197-4.018-32.31-23.397-45.972-24.5-21.936-1.562-31.462 17.973-47.122 26.89-4.565 2.6-4.52 4.456-3.231 5.847 1.262 1.363 3.855 2.035 8.236 0 4.38-2.034 13.661-10.147 25.671-14.129z" fill="#592d3d"/>
    <ellipse cx="485" cy="584.07" rx="11" ry="12.5" fill="#592d3d"/>
    <ellipse cx="513" cy="584.07" rx="11" ry="12.5" fill="#592d3d"/>
</svg>
