<svg id="mouth-lips" xmlns="http://www.w3.org/2000/svg" viewBox="0 0 1000 1000">
  <path
     d="m 558.07451,665.18718 c -3.63,0 -5.35,-1.31 -15.58,-10.79 -7.49,-6.93004 -12.6301,-10.36004 -18.9101,-11.46004 -7.83,-1.37 -15.83,-0.88 -24.36,7.68004 -8.53,-8.56004 -16.52,-9.00004 -24.36,-7.68004 -6.28,1.1 -11.42,4.53 -18.91,11.46004 -10.23,9.48 -11.95,10.79 -15.58005,10.79 -0.74354,8e-4 -1.41348,0.4491 -1.6979,1.1361 -0.28443,0.687 -0.12743,1.4777 0.3979,2.0039 17.50005,17.5 37.55005,26.26 60.15005,26.28 22.6,0.02 42.6501,-8.74 60.1501,-26.28 0.525,-0.5262 0.682,-1.3169 0.398,-2.0039 -0.285,-0.687 -0.955,-1.1353 -1.698,-1.1361 z"
     style="fill:var(--bigheads-color-mouth, #dd3e3e)" />
  <path
     d="m 478.80431,673.13718 c 13.45,-0.94 26.69,-1.44 39.89,-3 6.59,-0.76 13.15,-1.74 19.6702,-2.86 6.52,-1.12 13,-2.41 19.51,-3.8 l 1.34,5.85 c -6.58,1.56 -13.22,2.83 -19.92,3.81 -6.7002,0.98 -13.4202,1.6666 -20.1602,2.06 -6.75,0.37 -13.5,0.54 -20.25,0.27 -6.7444,-0.2455 -13.4587,-1.0246 -20.08,-2.33 z"
     fill="#592d3d" />
  <path
     d="m 441.3143,664.05718 c 1.69,0.43 3.57001,1 5.38001,1.48 1.81,0.48 3.65,1.08 5.49,1.63 1.84,0.55 3.68,1.1 5.52,1.77 1.9132,0.6726 3.7447,1.5581 5.46,2.64 -1.9651,0.5794 -4.0013,0.8823 -6.05,0.9 -2,0 -3.95,-0.16 -5.93,-0.32 -1.98,-0.16 -3.93,-0.47 -5.88,-0.85 -1.99076,-0.3632 -3.95006,-0.8814 -5.86001,-1.55 z"
     fill="#592d3d" />
  <path
     fill-rule="evenodd"
     clip-rule="evenodd"
     d="m 558.07451,665.18718 c -3.63,0 -5.35,-1.31 -15.58,-10.79 -7.49,-6.93005 -12.5302,-11.29005 -18.9102,-11.46005 -11.21,-0.3 -19.15,6.12005 -24.76,6.12005 -5.61,0 -10.45,-7.53005 -24,-6.12005 -6.34,0.66 -11.42,4.53 -18.91,11.46005 -10.23,9.48 -11.95,10.79 -15.57999,10.79 -0.74354,8e-4 -1.41348,0.4491 -1.6979,1.1361 -0.28443,0.687 -0.12742,1.4777 0.3979,2.0039 17.49999,17.5 37.54999,26.26 60.14999,26.28 22.6,0.02 42.6502,-8.74 60.1502,-26.28 0.52,-0.5211 0.68,-1.3023 0.406,-1.9858 -0.274,-0.6835 -0.93,-1.1376 -1.666,-1.1542 z"
     stroke="#592d3d"
     stroke-width="8"
     fill="none" />
  <path
     d="m 523.58431,649.22708 c -4.1888,0.3568 -8.2991,1.3481 -12.19,2.94 -1.94,0.77 -3.87,1.6 -5.85,2.42 -2.0291,0.9308 -4.1985,1.5188 -6.42,1.74 -1.1877,0.0199 -2.3675,-0.1977 -3.47,-0.64 -1.031,-0.397 -2.0334,-0.8648 -3,-1.4 -1.8092,-1.0402 -3.6718,-1.9848 -5.58,-2.83 -1.9088,-0.7977 -3.9013,-1.3781 -5.94,-1.73 -2.0794,-0.3384 -4.1832,-0.5057 -6.29,-0.5 2.1058,-0.4205 4.2551,-0.5817 6.4,-0.48 2.1727,0.1319 4.3182,0.5523 6.38,1.25 2.0251,0.7277 3.9966,1.5965 5.9,2.6 1.87,0.94 3.71,1.83 5.52,1.74 1.9989,-0.2055 3.9547,-0.7146 5.8,-1.51 2,-0.71 4,-1.51 6,-2.13 4.0911,-1.4025 8.437,-1.904 12.74,-1.47 z"
     fill="#ffffff" />
  <path
     d="m 472.14431,675.10718 c 3.22,0 3.23,-5 0,-5 -3.23,0 -3.22,5 0,5 z"
     fill="#592d3d" />
</svg>
