<svg id="mouth-lips" xmlns="http://www.w3.org/2000/svg" viewBox="0 0 1000 1000">
    <path d="M558.075 665.187c-3.63 0-5.35-1.31-15.58-10.79-7.49-6.93-12.63-10.36-18.91-11.46-7.83-1.37-15.83-.88-24.36 7.68-8.53-8.56-16.52-9-24.36-7.68-6.28 1.1-11.42 4.53-18.91 11.46-10.23 9.48-11.95 10.79-15.58 10.79a1.84 1.84 0 00-1.3 3.14c17.5 17.5 37.55 26.26 60.15 26.28 22.6.02 42.65-8.74 60.15-26.28a1.841 1.841 0 00-1.3-3.14z" fill="#dd3e3e"/>
    <path d="M478.804 673.137c13.45-.94 26.69-1.44 39.89-3 6.59-.76 13.15-1.74 19.67-2.86 6.52-1.12 13-2.41 19.51-3.8l1.34 5.85a232.906 232.906 0 01-40.08 5.87c-6.75.37-13.5.54-20.25.27a127.856 127.856 0 01-20.08-2.33zm-37.49-9.08c1.69.43 3.57 1 5.38 1.48s3.65 1.08 5.49 1.63c1.84.55 3.68 1.1 5.52 1.77a27.053 27.053 0 015.46 2.64c-1.965.58-4.001.882-6.05.9-2 0-3.95-.16-5.93-.32-1.98-.16-3.93-.47-5.88-.85a38.828 38.828 0 01-5.86-1.55z" fill="#592d3d"/>
    <path clip-rule="evenodd" d="M558.075 665.187c-3.63 0-5.35-1.31-15.58-10.79-7.49-6.93-12.53-11.29-18.91-11.46-11.21-.3-19.15 6.12-24.76 6.12-5.61 0-10.45-7.53-24-6.12-6.34.66-11.42 4.53-18.91 11.46-10.23 9.48-11.95 10.79-15.58 10.79a1.84 1.84 0 00-1.3 3.14c17.5 17.5 37.55 26.26 60.15 26.28 22.6.02 42.65-8.74 60.15-26.28a1.842 1.842 0 00-1.26-3.14z" stroke="#592d3d" stroke-width="8" fill="none"/>
    <path d="M523.584 649.227a41.492 41.492 0 00-12.19 2.94c-1.94.77-3.87 1.6-5.85 2.42a20.197 20.197 0 01-6.42 1.74 8.919 8.919 0 01-3.47-.64 23.99 23.99 0 01-3-1.4 59.707 59.707 0 00-5.58-2.83 27.564 27.564 0 00-5.94-1.73 38.511 38.511 0 00-6.29-.5 26.318 26.318 0 016.4-.48c2.173.132 4.319.552 6.38 1.25a46.022 46.022 0 015.9 2.6c1.87.94 3.71 1.83 5.52 1.74a19.757 19.757 0 005.8-1.51c2-.71 4-1.51 6-2.13a30.002 30.002 0 0112.74-1.47z" fill="#fff"/>
    <path d="M472.144 675.107c3.22 0 3.23-5 0-5s-3.22 5 0 5z" fill="#592d3d"/>
</svg>
