<svg id="mouth-open" xmlns="http://www.w3.org/2000/svg" viewBox="0 0 1000 1000">
    <circle cx="499.95" cy="676.2" r="53.95" stroke="#592d3d" stroke-width="8" fill="#592d3d"/>
    <path d="M491.46 696.66c-14.07-3.37-27.62 1-33.45 9.87 11.462 17.35 32.716 25.455 52.82 20.14a49.452 49.452 0 006-2c1.35-12.01-9.5-24.22-25.37-28.01z" fill="var(--bigheads-color-mouth, #dd3e3e)"/>
    <path d="M478.9 685.27h1.45c.43 0 .84 0 1.25.06.82.06 1.636.177 2.44.35a21.01 21.01 0 014.74 1.53 18.15 18.15 0 017.78 6.65 17.169 17.169 0 012.77 9.28 14.753 14.753 0 01-2.69 8.47c-1.3-2.76-2.24-5.2-3.31-7.29a24.005 24.005 0 00-1.62-2.87 12.377 12.377 0 00-1.95-2.21 13 13 0 00-4.82-2.66 24.74 24.74 0 00-2.85-.69c-.49-.07-1-.16-1.47-.22l-.73-.07h-.52z" fill="#592d3d"/>
</svg>
