<svg id="mouth-open" xmlns="http://www.w3.org/2000/svg" viewBox="0 0 1000 1000">
  <circle
     cx="499.95001"
     cy="676.20001"
     r="53.950001"
     stroke="#592d3d"
     stroke-width="8"
     fill="#592d3d" />
  <path
     d="m 491.46,696.6599 c -14.07,-3.37 -27.62,1 -33.45,9.87 11.4618,17.351 32.7158,25.455 52.82,20.14 2.0407,-0.538 4.0448,-1.206 6,-2 1.35,-12.01 -9.5,-24.22 -25.37,-28.01 z"
     style="fill:var(--bigheads-color-mouth, #dd3e3e)" />
  <path
     d="m 478.9,685.27 h 0.8 0.65 c 0.43,0 0.84,0 1.25,0.06 0.8204,0.0605 1.6357,0.1774 2.44,0.35 1.6351,0.3201 3.2263,0.8337 4.74,1.53 3.1776,1.4244 5.8783,3.7329 7.78,6.65 1.7947,2.7634 2.7563,5.9849 2.77,9.28 -0.005,3.0327 -0.9439,5.9903 -2.69,8.47 -1.3,-2.7601 -2.24,-5.2001 -3.31,-7.2901 -0.4736,-0.9926 -1.0149,-1.9515 -1.62,-2.8699 -0.5597,-0.8117 -1.2143,-1.5537 -1.95,-2.21 -1.3983,-1.2206 -3.0419,-2.1276 -4.82,-2.66 -0.9355,-0.2862 -1.8872,-0.5166 -2.85,-0.6901 -0.49,-0.0699 -1,-0.1599 -1.47,-0.22 l -0.73,-0.07 h -0.33 c -0.08,0 -0.26,0 -0.19,0 z"
     fill="#592d3d" />
</svg>
