<svg id="mouth-smile" xmlns="http://www.w3.org/2000/svg" viewBox="0 0 1000 1000">
    <path d="M442.5 654.902c0-18.9 113.72-16.06 113.72 0 0 31.403-25.457 56.86-56.86 56.86s-56.86-25.457-56.86-56.86z" fill="#592d3d"/>
    <path d="M494.36 676.042c-16.95-1-31.73 6.75-36.65 18.22 16.775 17.722 42.987 22.764 65.14 12.53a55.4 55.4 0 006.51-3.55c-.92-14.11-15.94-26.02-35-27.2z" fill="var(--bigheads-color-mouth, #dd3e3e)"/>
    <path clip-rule="evenodd" d="M442.5 654.902c0-18.9 113.72-16.06 113.72 0 0 31.403-25.457 56.86-56.86 56.86s-56.86-25.457-56.86-56.86z" stroke="#592d3d" stroke-width="6" fill="none"/>
    <path d="M477.48 665.502c.45-.11.63-.16.92-.21l.75-.14c.49-.09 1-.14 1.46-.18a21.45 21.45 0 012.89-.1 25 25 0 015.79.81 21.4 21.4 0 0110.35 6.1 20.18 20.18 0 015.08 10.16 17.27 17.27 0 01-1.36 10.35c-2.07-2.93-3.66-5.56-5.32-7.76a28.406 28.406 0 00-2.45-3 14.064 14.064 0 00-2.7-2.16 15.481 15.481 0 00-6.11-2.09 29.5 29.5 0 00-3.42-.24c-.59 0-1.18 0-1.76.05l-.85.06h-.62z" fill="#592d3d"/>
</svg>
