<svg id="mouth-smile" xmlns="http://www.w3.org/2000/svg" viewBox="0 0 1000 1000">
  <path
     d="m 442.5,654.90187 c 0,-18.89999 113.72009,-16.05999 113.72009,0 0,31.4029 -25.4572,56.86 -56.8601,56.86 -31.4029,0 -56.85999,-25.4571 -56.85999,-56.86 z"
     fill="#592d3d" />
  <path
     d="m 494.35999,676.04187 c -16.95,-1 -31.73,6.75 -36.65,18.22 16.7751,17.7218 42.9875,22.7639 65.14,12.53 2.2468,-1.0366 4.4217,-2.2226 6.51,-3.55 -0.92,-14.11 -15.94,-26.02 -35,-27.2 z"
     style="fill:var(--bigheads-color-mouth, #dd3e3e)" />
  <path
     fill-rule="evenodd"
     clip-rule="evenodd"
     d="m 442.5,654.90187 c 0,-18.89999 113.72009,-16.05999 113.72009,0 0,31.4029 -25.4572,56.86 -56.8601,56.86 -31.4029,0 -56.85999,-25.4571 -56.85999,-56.86 z"
     stroke="#592d3d"
     stroke-width="6"
     fill="none" />
  <path
     d="m 477.47999,665.50187 c 0.45,-0.11 0.63,-0.16 0.92,-0.21 l 0.75,-0.14 c 0.49,-0.09 1,-0.14 1.46,-0.18 0.96,-0.098 1.9255,-0.1314 2.89,-0.1 1.955,0.0426 3.8983,0.3145 5.79,0.81 3.9617,1.0034 7.5532,3.1201 10.35,6.1 2.6312,2.8304 4.3944,6.3568 5.08,10.16 0.6252,3.5077 0.1501,7.1229 -1.36,10.35 -2.07,-2.93 -3.66,-5.56 -5.32,-7.76 -0.7475,-1.0546 -1.566,-2.0569 -2.45,-3 -0.8077,-0.8283 -1.7146,-1.5538 -2.7,-2.16 -1.8671,-1.1184 -3.9491,-1.8306 -6.11,-2.09 -1.1344,-0.1462 -2.2763,-0.2264 -3.42,-0.24 -0.59,0 -1.18,0 -1.76,0.05 l -0.85,0.06 h -0.39 c -0.1,0 -0.3,0 -0.23,0 z"
     fill="#592d3d" />
</svg>
