<svg id="facialhair-stubble" xmlns="http://www.w3.org/2000/svg" viewBox="0 0 1000 1000">
    <path opacity=".15" d="M662.37 699.352c28.31-23 54.41-54.72 70.68-86.1-.06-.1-3.49 3.38-3.55 3.28-.06-.1-21.07 18.78-81.52 18.5-76.3-.31-60.54-21.68-152.51-21.68-81.42 0-68.49 11.89-145.15 16.15-62.09 3.45-83.62-13-83.62-13l-.2.33a261.183 261.183 0 0040.56 57.53c4.32 4.65 8.86 9.18 13.48 13.48a193.31 193.31 0 0015.35 13c5.18 3.95 10.67 7.72 16.33 11.21 21.71 12 46.48 21.14 73.63 27.13 6.49 1.43 13 2.64 19.31 3.6 65.81 5.85 141.08 6.7 200.74-31.12 5.63-3.85 11.17-8 16.47-12.31z"/>
    <circle cx="309.83" cy="656.17" r="4.18" fill="#592d3d"/>
    <circle cx="336.83" cy="660.35" r="2.96" fill="#592d3d"/>
    <circle cx="399.37" cy="705.01" r="2.96" fill="#592d3d"/>
    <circle cx="505.15" cy="708.34" r="2.96" fill="#592d3d"/>
    <circle cx="515.95" cy="701.53" r="2.96" fill="#592d3d"/>
    <circle cx="576.65" cy="698.57" r="2.96" fill="#592d3d"/>
    <circle cx="579.61" cy="680.18" r="2.96" fill="#592d3d"/>
    <circle cx="390.01" cy="687.75" r="5.37" fill="#592d3d"/>
    <circle cx="598.76" cy="704.48" r="2.09" fill="#592d3d"/>
    <circle cx="641.28" cy="693.11" r="4.18" fill="#592d3d"/>
    <circle cx="460.88" cy="721.07" r="4.18" fill="#592d3d"/>
    <circle cx="641.28" cy="660.25" r="2.96" fill="#592d3d"/>
    <circle cx="652.37" cy="670.09" r="2.96" fill="#592d3d"/>
</svg>
