<svg id="accessory-glasses" xmlns="http://www.w3.org/2000/svg" viewBox="0 0 1000 1000">
  <circle
     opacity="0.2"
     cx="339.31"
     cy="549.79999"
     r="93.309998"
     fill="#ffffff" />
  <path
     opacity="0.15"
     d="m 744.88,608.06999 c -24.843,36.377 -70.025,52.991 -112.516,41.374 -42.491,-11.617 -72.935,-48.908 -75.814,-92.864 -37,-14.6 -74.43,-14.47 -114.19,0.39 -3.827,54.089 -48.776,96.04 -103,96.13 -32.4801,0 -76.0001,-36.5 -71.0001,-28.39 14,20.69 47,36.45 72.5401,36.45 54.55,0 97.87,-39.29 101.56,-92.92 39.76,-14.85 77.23,-15 114.19,-0.39 3.5,53.82 48.39,93.53 103.07,93.53 44.69,0 70.09,-34.13 85.16,-53.31 z"
     fill="#000000" />
  <path
     opacity="0.4"
     d="m 320.41,649.99999 123.07,-123.08 c -2.705,-6.0985 -6.057,-11.8885 -10,-17.27 l -130.35,130.36 c 5.3853,3.94 11.1786,7.289 17.28,9.99 z"
     fill="#ffffff" />
  <circle
     cx="339.31"
     cy="549.79999"
     r="93.309998"
     stroke="#592d3d"
     stroke-width="20"
     fill="none" />
  <path
     d="m 433.18,549.79999 c 45.2,-18.31 89.61,-19 133.14,0"
     stroke="#592d3d"
     stroke-width="20"
     fill="none" />
  <path
     d="m 315.11,493.74999 c 2.06,6.5 -5.94,11.5 -11.94,12.5 -6,0 -10,-4 -12,-9 -1,-5 0,-10 4,-13 5,-2 12,-4 16.45,1.13 2.245,2.2048 3.5037,5.2234 3.49,8.37 z"
     fill="#ffffff" />
  <path
     d="m 325.78,489.91999 c -0.61,4.33 -6.61,4.33 -7.61,0.33 0,-3 1,-4 3.85,-4.1 0.999,0 1.9568,0.3975 2.6623,1.1048 0.7054,0.7073 1.1004,1.6662 1.0977,2.6652 z"
     fill="#ffffff" />
  <circle
     opacity="0.2"
     cx="659.62"
     cy="549.79999"
     r="93.309998"
     fill="#ffffff" />
  <path
     opacity="0.4"
     d="m 645.6,642.05999 106.28,-106.29 c -0.576,-3.7853 -1.381,-7.5321 -2.41,-11.22 l -115.06,115.1 c 3.678,1.029 7.415,1.834 11.19,2.41 z"
     fill="#ffffff" />
  <circle
     cx="659.62"
     cy="549.79999"
     r="93.309998"
     stroke="#592d3d"
     stroke-width="20"
     fill="none" />
  <path
     d="m 635.41,493.74999 c 2.06,6.5 -5.94,11.5 -11.94,12.5 -6,0 -10,-4 -12,-9 -1,-5 0,-10 4,-13 5,-2 12,-4 16.45,1.13 2.241,2.2074 3.499,5.2243 3.49,8.37 z"
     fill="#ffffff" />
  <path
     d="m 646.1,489.91999 c -0.61,4.33 -6.61,4.33 -7.61,0.33 0,-3 1,-4 3.84,-4.1 2.082,0 3.77,1.6879 3.77,3.77 z"
     fill="#ffffff" />
</svg>
