<svg id="accessory-pincenez" xmlns="http://www.w3.org/2000/svg" viewBox="0 0 1000 1000">
  <circle
     opacity="0.2"
     cx="383.34"
     cy="579.33002"
     r="33.84"
     fill="#ffffff" />
  <path
     opacity="0.4"
     d="m 376.3,615.67 43.31,-41.74 c -2.3035,-4.4253 -4.8301,-8.7308 -7.57,-12.9 l -45.87,44.21 c 1.9,1.33 7.98,9.51 10.13,10.43 z"
     fill="#ffffff" />
  <circle
     cx="383.34"
     cy="579.33002"
     r="33.84"
     stroke="#592d3d"
     stroke-width="12"
     fill="none" />
  <path
     d="m 378.43,565.14 c 1.22,3.83 -3.5,6.78 -7,7.37 -3.54,0 -5.9,-2.36 -7.08,-5.31 -0.59,-2.95 0,-5.9 2.36,-7.67 2.95,-1.18 7.08,-2.36 9.7,0.67 1.3135,1.3058 2.0422,3.0879 2.02,4.94 z"
     fill="#ffffff" />
  <path
     d="m 384.75,562.88 c -0.1655,1.0819 -1.0734,1.8954 -2.1669,1.9417 -1.0935,0.0463 -2.0668,-0.6877 -2.3231,-1.7517 0,-1.77 0.59,-2.36 2.27,-2.42 1.226,0 2.22,0.9939 2.22,2.22 z"
     fill="#ffffff" />
  <circle
     opacity="0.2"
     cx="615.63"
     cy="579.33002"
     r="33.84"
     fill="#ffffff" />
  <path
     opacity="0.4"
     d="m 610.55,612.78 38.54,-38.54 c -0.21,-1.37 -5.91,-8.1 -6.29,-9.44 l -41.72,41.74 c 1.35,0.37 8.1,6.04 9.47,6.24 z"
     fill="#ffffff" />
  <circle
     cx="615.63"
     cy="579.33002"
     r="33.84"
     stroke="#592d3d"
     stroke-width="12"
     fill="none" />
  <path
     d="m 607.79,564.58 c 1,3.25 -3,5.75 -6,6.25 -3,0 -5,-2 -6,-4.5 -0.5,-2.5 0,-5 2,-6.5 2.5,-1 6,-2 8.23,0.57 1.129,1.0983 1.767,2.6052 1.77,4.18 z"
     fill="#ffffff" />
  <path
     d="m 613.13,562.67 c -0.144,0.9122 -0.912,1.5961 -1.835,1.6349 -0.922,0.0389 -1.745,-0.5781 -1.965,-1.4749 0,-1.5 0.5,-2 1.92,-2 1.023,-2e-4 1.858,0.8173 1.88,1.84 z"
     fill="#ffffff" />
  <path
     d="m 417.17,579.33 c 55.787,-20 110.663,-20 164.63,0"
     fill="none"
     stroke="#592d3d"
     stroke-width="12" />
  <path
     d="m 615.63,619.17 c -20.312,-0.0288 -37.36,-15.3121 -39.6,-35.5 -50,-17.65 -101.46,-17.64 -153.1,0 -1.2811,11.7378 -7.7066,22.3013 -17.5405,28.8367 -9.834,6.5354 -22.0616,8.3682 -33.3795,5.0033 11.1079,5.452 24.1748,5.1542 35.0229,-0.7982 10.8481,-5.9524 18.1186,-16.8139 19.4871,-29.1118 49.22,-16.86 98.28,-16.88 145.93,0 1.342,12.3142 8.602,23.2014 19.454,29.174 10.852,5.9726 23.935,6.2808 35.056,0.826 -3.682,1.0634 -7.498,1.5921 -11.33,1.57 z"
     fill="rgba(0,0,0,.15)" />
</svg>
