<svg id="accessory-sunglasses" xmlns="http://www.w3.org/2000/svg" viewBox="0 0 1000 1000">
  <path
     opacity="0.15"
     fill-rule="evenodd"
     clip-rule="evenodd"
     d="m 750.7913,570.14 c -6.298,20.813 -15.131,40.773 -26.3,59.43 -20,13.28 -40,26.03 -65.79,26.03 -69.902,-0.083 -126.547,-56.728 -126.63,-126.63 0,-1.93 0.06,-3.85 0.14,-5.76 -21.79,-7.99 -43.93,-7.87 -67.31,0.36 0.12,1.79 0.12,3.59 0.12,5.4 -0.099,69.89 -56.74,126.517 -126.63,126.6 -24.0962,0 -42.7525,-11.617 -61.8317,-23.497 -0.296,-0.184 -0.5921,-0.369 -0.8883,-0.553 -10.1652,-16.653 -18.4684,-34.372 -24.76,-52.84 18.66,31.06 48.68,56.89 87.48,56.89 35.487,-0.023 68.641,-17.688 88.453,-47.13 19.812,-29.442 23.69,-66.8069 10.347,-99.69 h -197.6 c -3.0298,7.4145 -5.2006,15.1516 -6.47,23.06 -0.24,-4.67 -0.38,-9.36 -0.38,-14.09 0.004,-9.6881 0.5318,-19.3688 1.58,-29 h 188.31 151.86 190.16 c 1.048,9.6312 1.576,19.3119 1.58,29 0,8.23 -0.39,16.42 -1.12,24.42 -0.701,-11.4712 -3.275,-22.7502 -7.62,-33.39 h -197.59 c -5.209,12.7674 -7.869,26.4309 -7.83,40.22 0.066,58.855 47.755,106.553 106.61,106.63 42.27,0 74.87,-29.72 92.11,-65.46 z m -288.37,-66.82 c 24.69,-7.81 48.93,-7.94 72.33,-0.39 0.995,-4.7992 2.278,-9.5343 3.84,-14.18 h -80.1 c 1.603,4.7728 2.916,9.6384 3.93,14.57 z"
     fill="#000000" />
  <path
     opacity="0.95"
     d="m 233.0813,467.57 c 0,0 0.41,32.23 0.41,50.2 0,64.41 40.48,116.63 104.9,116.63 40.027,-0.018 77.252,-20.553 98.617,-54.402 21.364,-33.8486 23.887,-76.2864 6.683,-112.428 z"
     fill="#592d3d" />
  <path
     opacity="0.95"
     d="m 553.4013,467.57 c -17.204,36.1416 -14.681,78.5794 6.683,112.428 21.365,33.849 58.59,54.384 98.617,54.402 64.42,0 107.54,-52.22 107.54,-116.63 0,-18 -2.23,-50.2 -2.23,-50.2 z"
     fill="#592d3d" />
  <path
     opacity="0.25"
     d="m 319.4913,624.61 123.07,-123.08 c -2.705,-6.0985 -6.057,-11.8885 -10,-17.27 l -130.35,130.37 c 5.388,3.933 11.1809,7.278 17.28,9.98 z"
     fill="#ffffff" />
  <path
     d="m 455.3513,505.28 c 29.52,-12 58.53,-12.42 87,0"
     stroke="#592d3d"
     stroke-width="20" />
  <path
     d="m 273.7714,502.5 c 2.0599,6.51 -5.9401,11.51 -11.9401,12.51 -6,0 -10,-4 -12,-9 -1,-5 0,-10 4,-13 5,-2 12,-4 16.4401,1.12 2.2449,2.2057 3.5065,5.2228 3.5,8.37 z"
     fill="#ffffff" />
  <path
     d="m 284.4913,498.68 c -0.61,4.33 -6.61,4.33 -7.61,0.33 0,-3 1,-4 3.84,-4.1 0.9999,0 1.9588,0.3972 2.6658,1.1042 0.707,0.707 1.1042,1.6659 1.1042,2.6658 z"
     fill="#ffffff" />
  <path
     opacity="0.25"
     d="m 644.6813,616.67 106.28,-106.28 c -0.574,-3.7856 -1.379,-7.5326 -2.41,-11.22 l -115.06,115.09 c 3.678,1.029 7.415,1.834 11.19,2.41 z"
     fill="#ffffff" />
  <path
     d="m 590.1713,503.48 c 2.06,6.51 -5.94,11.51 -11.94,12.51 -6,0 -10,-4 -12,-9 -1,-5 0,-10 4,-13 5,-2 12,-4 16.45,1.12 2.242,2.2067 3.5,5.224 3.49,8.37 z"
     fill="#ffffff" />
  <path
     d="m 600.8413,499.66 c -0.61,4.33 -6.61,4.33 -7.61,0.33 0,-3 1,-4 3.85,-4.1 0.999,0 1.957,0.3975 2.662,1.1048 0.706,0.7073 1.101,1.6663 1.098,2.6652 z"
     fill="#ffffff" />
  <path
     fill-rule="evenodd"
     clip-rule="evenodd"
     d="m 233.0812,467.57 c 0,0 -0.34,31.69 0.41,50.2 2.6,64.36 40.48,116.63 104.9001,116.63 40.027,-0.018 77.252,-20.553 98.617,-54.402 21.364,-33.8486 23.887,-76.2864 6.683,-112.428 z"
     stroke="#592d3d"
     stroke-width="20"
     fill="none" />
  <path
     fill-rule="evenodd"
     clip-rule="evenodd"
     d="m 553.4013,467.57 c -17.204,36.1416 -14.681,78.5794 6.683,112.428 21.365,33.849 58.59,54.384 98.617,54.402 64.42,0 107.54,-51.53 107.54,-115.94 0,-18 -2.23,-50.89 -2.23,-50.89 z"
     stroke="#592d3d"
     stroke-width="20"
     fill="none" />
  <path
     d="m 422.6313,467.56 h 151.83"
     stroke="#592d3d"
     stroke-width="20" />
</svg>
