<svg id="accessory-sunglasses" xmlns="http://www.w3.org/2000/svg" viewBox="0 0 1000 1000">
    <path opacity=".15" fill-rule="evenodd" clip-rule="evenodd" d="M750.791 570.14a265.298 265.298 0 01-26.3 59.43c-20 13.28-40 26.03-65.79 26.03-69.902-.083-126.547-56.728-126.63-126.63 0-1.93.06-3.85.14-5.76-21.79-7.99-43.93-7.87-67.31.36.12 1.79.12 3.59.12 5.4-.099 69.89-56.74 126.517-126.63 126.6-24.096 0-42.752-11.617-61.831-23.497l-.889-.553a266.14 266.14 0 01-24.76-52.84c18.66 31.06 48.68 56.89 87.48 56.89a106.699 106.699 0 0098.8-146.82h-197.6a104.921 104.921 0 00-6.47 23.06c-.24-4.67-.38-9.36-.38-14.09.004-9.688.532-19.369 1.58-29h530.33a269.113 269.113 0 011.58 29c0 8.23-.39 16.42-1.12 24.42a105.308 105.308 0 00-7.62-33.39h-197.59a105.678 105.678 0 00-7.83 40.22c.066 58.855 47.755 106.553 106.61 106.63 42.27 0 74.87-29.72 92.11-65.46zm-288.37-66.82c24.69-7.81 48.93-7.94 72.33-.39.995-4.8 2.278-9.534 3.84-14.18h-80.1a124.55 124.55 0 013.93 14.57z"/>
    <path opacity=".95" d="M233.081 467.57s.41 32.23.41 50.2c0 64.41 40.48 116.63 104.9 116.63a116.681 116.681 0 00105.3-166.83zM553.401 467.57a116.682 116.682 0 00105.3 166.83c64.42 0 107.54-52.22 107.54-116.63 0-18-2.23-50.2-2.23-50.2z" fill="#592d3d"/>
    <path opacity=".25" d="M319.491 624.61l123.07-123.08a93.06 93.06 0 00-10-17.27l-130.35 130.37a93.633 93.633 0 0017.28 9.98z" fill="#fff"/>
    <path d="M455.351 505.28c29.52-12 58.53-12.42 87 0" stroke="#592d3d" stroke-width="20"/>
    <path d="M273.771 502.5c2.06 6.51-5.94 11.51-11.94 12.51-6 0-10-4-12-9-1-5 0-10 4-13 5-2 12-4 16.44 1.12a11.7 11.7 0 013.5 8.37zM284.491 498.68c-.61 4.33-6.61 4.33-7.61.33 0-3 1-4 3.84-4.1a3.77 3.77 0 013.77 3.77z" fill="#fff"/>
    <path opacity=".25" d="M644.681 616.67l106.28-106.28a94.003 94.003 0 00-2.41-11.22l-115.06 115.09a94.362 94.362 0 0011.19 2.41z" fill="#fff"/>
    <path d="M590.171 503.48c2.06 6.51-5.94 11.51-11.94 12.51-6 0-10-4-12-9-1-5 0-10 4-13 5-2 12-4 16.45 1.12a11.692 11.692 0 013.49 8.37zM600.841 499.66c-.61 4.33-6.61 4.33-7.61.33 0-3 1-4 3.85-4.1a3.759 3.759 0 013.76 3.77z" fill="#fff"/>
    <path clip-rule="evenodd" d="M233.081 467.57s-.34 31.69.41 50.2c2.6 64.36 40.48 116.63 104.9 116.63a116.681 116.681 0 00105.3-166.83zM553.401 467.57a116.682 116.682 0 00105.3 166.83c64.42 0 107.54-51.53 107.54-115.94 0-18-2.23-50.89-2.23-50.89z" stroke="#592d3d" stroke-width="20" fill="none"/>
    <path d="M422.631 467.56h151.83" stroke="#592d3d" stroke-width="20"/>
</svg>
