<svg id="clothes-dressshirt" xmlns="http://www.w3.org/2000/svg" viewBox="0 0 1000 1000">
    <path
        d="m 618.43635,758.25001 -42.73002,0.1 c -0.221,4.51673 -0.699,9.01733 -1.43,13.48003 -0.471,2.1418 -1.051,4.258 -1.74,6.34 -2.34,6.49 -17.26,12 -21.49001,16.73 -1.402,1.5734 -2.905,3.0532 -4.5,4.43 -25.17001,18.2 -65.17003,19.2 -89.48004,-0.58 -2.622,-2.2892 -5.004,-4.839 -7.11,-7.61 -4.23,-5.56 -16.40001,-11.59 -18.10001,-18.94 -0.482,-2.1749 -0.843,-4.375 -1.08,-6.59 -0.242,-2.2586 -0.362,-4.52856 -0.36,-6.80003 l -45.21012,-0.56 c -7.3304,0 -13.27451,5.93953 -13.28001,13.27003 V 1056.21 c 0.005,7.33 5.94961,13.27 13.28001,13.27 h 238.93021 c 7.329,0 13.27,-5.941 13.27,-13.27 V 778.09004 c 0,-12.18 -5.88,-19.84003 -18.97001,-19.84003 z"
        fill="#ffffff" />
    <path
        d="m 452.83628,855.49004 48.45002,-24.0901 48.58002,24.0901 -37.06001,-43.0201 -43.89002,0.83 z"
        fill="rgba(0,0,0,.2)" />
    <path
        d="m 637.40636,831.40004 c 0,0 -22.79001,84.54 -19.31001,233.99996 l 33.21002,-31 3.58,-137.57996 c -5.62,-72.2301 -17.48001,-65.42 -17.48001,-65.42 z"
        fill="rgba(0,0,0,.2)" />
    <path
        d="m 308.71612,957.58004 c 0.1734,13.64 0.5767,28.133 1.21,43.47996 15.27,0.73 43.69002,0.88 57.11002,0 l 4.18,-42.80996 c -10.77,-1.26 -45.78002,-1.67 -62.50002,-0.67 z"
        fill="rgba(0,0,0,.2)" />
    <path
        d="m 371.89614,831.39994 -0.5,177.69006 -13.35,0.9 c -2.97,-149.04996 13.85,-178.59006 13.85,-178.59006 z"
        fill="rgba(0,0,0,.2)" />
    <path
        d="m 614.61635,758.25001 c 67.42003,0 78.45004,56.28003 78.90004,133.78003 V 1030.25 c 0,0 -50.00003,5.53 -55.91003,4.59 l -0.1,-142.10996"
        stroke="#592d3d"
        stroke-width="12"
     stroke-linecap="square"
     fill="#ffffff" />
    <path
        d="m 390.77615,758.25001 c -25.73001,0 -43.52002,8.12003 -55.71002,22.44003 -19.45001,22.87 -24.63001,61.54 -25.00001,108.27 V 1012.73 c 12.06,3.32 61.36002,-3.64 61.36002,-3.64 l 0.49,-118.59996"
        stroke="#592d3d"
        stroke-width="12"
     stroke-linecap="square"
     fill="#ffffff" />
    <path
        d="m 374.37615,1011.33 c -1.83001,2.61 -73.77005,1.92 -74.67005,0 -0.9,-1.92 -2.19,-37.49996 0,-40.99996 1.8,-2.88 72.11004,-2.27 74.67005,0 2.56,2.27 1.83,38.38996 0,40.99996 z"
        fill="#ffffff"
        stroke="#592d3d"
        stroke-width="12"
        stroke-linecap="square" />
    <path
        d="M 385.20615,1069.48 H 501.7763 c -109.19005,0 -100.91004,-231.14006 -129.89016,-231.14006 V 1056.21 c 0.003,3.527 1.4084,6.909 3.90731,9.398 2.4988,2.489 5.8854,3.883 9.4127,3.872 z"
        fill="rgba(0,0,0,.2)" />
    <path
        d="m 365.92614,860.68004 c -0.19,-3.67 -0.11,-7.35 0.06,-11 0.17,-3.65 0.47,-7.34 0.85,-11 0.2,-1.83 0.41,-3.67 0.65,-5.51 0.24,-1.84 0.49,-3.67 0.85,-5.5 0.7078,-3.8086 1.9148,-7.5072 3.59,-11 1.6751,3.4928 2.88221,7.1914 3.59001,11 0.36,1.83 0.62,3.67 0.85,5.5 0.23,1.83 0.45,3.68 0.65,5.51 0.3866,3.68 0.6733,7.3466 0.86,11 0.16,3.67 0.24,7.35 0,11 z"
        fill="#592d3d" />
    <path
        d="m 637.40636,869.49004 v 8 c 0.26,34 0.26,69 0,102.76 0,2.87 0,5.72 0,8.53 V 1056.19 c 0,7.329 -5.941,13.27 -13.27,13.27 H 385.20605 c -7.3304,0 -13.27441,-5.94 -13.28001,-13.27 v -65.79996 c -0.26,-34.86 -0.26,-69.86 0,-105.3 v -24.71"
        stroke="#592d3d"
     stroke-width="12"
     fill="none" />
    <path
        d="m 699.19639,970.33004 c 2.22,2.26 1.59,38.38996 0,40.99996 -1.59,2.61 -64.00003,1.92 -64.77003,0 -0.77,-1.92 -1.9,-37.49996 0,-40.99996 0.27,-0.5 2.28,-0.89 5.45,-1.18"
        stroke="#592d3d"
        stroke-width="12"
     stroke-linecap="square"
     fill="#ffffff" />
    <path
        d="m 680.69638,968.39004 c 3.8,0.3 15.00001,-1.18 15.42001,-0.76 z"
        fill="#ffffff" />
    <path
        d="m 680.69638,968.39004 c 0.582,-0.757 1.21,-1.479 1.88,-2.16 0.545,-0.546 1.141,-1.038 1.78,-1.47 0.575,-0.382 1.18,-0.716 1.81,-1 0.61,-0.29 1.22,-0.54 1.83,-0.79 1.229,-0.497 2.49601,-0.892 3.79001,-1.18 0.659,-0.146 1.327,-0.249 2,-0.31 0.36,0 0.73,0 1.17,0 0.25,0 0.46,0 0.82,0 0.12,0 0.44,0 0.71,0.07 h 0.35 l 0.49,0.11 0.25,0.06 0.2,0.06 0.57,0.21 c 0.747,0.326 1.426,0.791 2,1.37 l 4.2,4.29 -8.65,8.48 -4.12,-4.37 c 0.54,0.566 1.19,1.015 1.91,1.32 0.18,0.08 0.36,0.14 0.54,0.2 h 0.17 l 0.19,0.05 c 0.124,0.04 0.251,0.071 0.38,0.09 h 0.19 c 0.1,0 0.26,0 0.22,0 -0.04,0 -0.07,0 -0.15,0 h -0.75 c -0.57,0 -1.19,0 -1.82,0 -1.318,-0.078 -2.629,-0.255 -3.92001,-0.53 -0.67,-0.15 -1.34,-0.3 -2,-0.49 -0.686,-0.183 -1.355,-0.424 -2,-0.72 -0.745,-0.353 -1.444,-0.796 -2.08,-1.32 -0.761,-0.54 -1.424,-1.207 -1.96,-1.97 z"
        fill="#592d3d" />
    <path
        d="m 594.28634,763.73004 -74.67003,54.81 42.14002,34.38 59.42002,-89.24 z"
        fill="rgba(0,0,0,.2)" />
    <path
        d="m 631.40636,869.79004 c -0.19,-4.18 -0.1,-8.36 0.06,-12.53 0.16,-4.17 0.47,-8.36 0.86,-12.53 0.2,-2.09 0.4,-4.18 0.64,-6.27 0.24,-2.09 0.49,-4.18 0.86,-6.27 0.691,-4.3042 1.893,-8.5105 3.58,-12.53 1.695,4.0176 2.9,8.2244 3.59,12.53 0.36,2.09 0.63,4.18 0.85,6.27 0.22,2.09 0.45,4.18 0.65,6.27 0.39,4.17 0.69,8.35 0.85,12.53 0.16,4.18 0.26,8.35 0.06,12.53 z"
        fill="#592d3d" />
    <path
        d="m 385.20615,758.35 233.2302,-0.1"
        stroke="#592d3d"
        stroke-width="12" />
    <path
        d="m 531.16631,835.64004 -22.35001,-22.34 -22.34001,22.34 10.98001,10.98 -9.72,106.63 20.74,16.17 21.42001,-16.17 -9.71,-106.63 z"
        fill="rgba(0,0,0,.2)" />
    <path
        d="M 501.8163,813.30004 V 1069.48"
        stroke="#592d3d"
        stroke-width="6"
        stroke-linecap="square" />
    <path
        d="m 501.8163,813.30004 22.35001,15.34 -22.35001,22.35 -22.34001,-22.35 z"
     style="fill:var(--bigheads-color-clothes, #d67070)" />
    <path
        d="m 421.39627,758.89 c 0,0 43.27002,39.34004 74.66003,54.81004 -15.28001,25.21 -42.13002,34.39 -42.13002,34.39 L 394.49625,758.86 Z"
        fill="#ffffff"
        stroke="#592d3d"
        stroke-width="12" />
    <path
        d="m 582.15634,758.89001 c 0,0 -39.38002,41.20003 -74.66004,54.81003 10.00001,20.28 42.13002,34.37 42.13002,34.37 l 59.43003,-89.23003 z"
        fill="#ffffff"
        stroke="#592d3d"
        stroke-width="12" />
    <path
        d="m 479.47629,828.63994 10.98001,10.98 -9.72001,106.6301 20.74001,16.17 21.42001,-16.17 -9.71,-106.6301 10.98,-10.98"
        stroke="#592d3d"
     stroke-width="8"
     style="fill:var(--bigheads-color-clothes, #d67070)" />
    <path
        d="m 639.87636,969.15004 c 7.51001,-0.71 21.51001,-0.89 34.00002,-0.67 z"
        fill="#ffffff" />
    <path
        d="m 639.31636,963.17004 c 2.927,-0.413 5.88501,-0.57 8.84001,-0.47 2.9,0.07 5.78,0.3 8.66,0.65 1.43,0.18 2.87,0.37 4.3,0.61 1.443,0.211 2.875,0.495 4.29,0.85 3.02001,0.735 5.89401,1.976 8.50001,3.67 -2.644,1.596 -5.517,2.777 -8.52001,3.5 -1.41,0.36 -2.82,0.63 -4.23,0.86 -1.41,0.23 -2.81,0.47 -4.21,0.69 -2.8,0.42 -5.59,0.78 -8.35,1 -2.76,0.22 -5.52001,0.5 -8.16001,0.54 l -6,0.1 -1,-11.13 z"
        fill="#592d3d" />
    <ellipse
        cx="517.54633"
        cy="983.02002"
        fill="#592d3d"
        rx="4.8000021"
        ry="4.8000002" />
    <path
        d="m 492.6663,836.27994 c -0.05,-0.06 0,0 0,0 l 0.07,0.05 c 0.061,0.0332 0.118,0.0735 0.17,0.12 l 0.38,0.29 c 0.25,0.21 0.52,0.42 0.78,0.65 0.53,0.45 1.09,0.93 1.7,1.39 0.61,0.46 1.27,0.9 2,1.42 0.953,0.7168 1.858,1.4952 2.71,2.33 -0.713,1.1638 -1.826,2.0277 -3.13,2.43 -1.203,0.3347 -2.461,0.4265 -3.7,0.27 -1.259,-0.1222 -2.487,-0.4605 -3.63,-1 -0.582,-0.2778 -1.135,-0.6127 -1.65,-1 -0.268,-0.1954 -0.525,-0.4057 -0.77,-0.63 -0.12,-0.11 -0.25,-0.23 -0.37,-0.36 l -0.2,-0.21 -0.25001,-0.29 z"
        fill="#592d3d" />
</svg>
