<svg id="clothes-tanktop" xmlns="http://www.w3.org/2000/svg" viewBox="0 0 1000 1000">
    <path d="M613.19 759.16h-54.21v.1h29.45a175.336 175.336 0 01-2.12 27.22 141.5 141.5 0 01-2.57 12.88 116.517 116.517 0 01-14.71 34.22 92.085 92.085 0 01-6.61 9c-37.06 37-95.95 39-131.74-1.19A98.262 98.262 0 01420.23 826a124.069 124.069 0 01-13.4-39.48 203.665 203.665 0 01-1.58-13.39c-.35-4.54-.54-9.15-.54-13.82h29.47v-.1h-54.22c.82 22.29-5.75 71.2-13.27 80.04v217.92c0 7.33 5.94 13.27 13.27 13.27H618.9c7.329 0 13.27-5.94 13.27-13.27l-2.38-215.36c-9.75-.05-16.94-57.74-16.6-82.65z" fill="#d67070"/>
    <path d="M632.17 832.31l-22.79 38.09 11.39 130.03h11.6V894.78zM379.96 1070.39h116.62c-109.2 0-100.91-231.14-129.89-231.14v217.87c0 7.33 5.94 13.27 13.27 13.27z" fill="rgba(0,0,0,.1)"/>
    <path d="M360.69 862.315a67.252 67.252 0 01-.1-8.518c.126-2.843.363-5.689.71-8.538.18-1.429.35-2.847.57-4.275.22-1.428.44-2.846.78-4.274a29.047 29.047 0 013.44-8.58 28.675 28.675 0 013.73 8.446c.39 1.418.68 2.836.93 4.244.25 1.407.5 2.836.72 4.254.44 2.825.79 5.661 1 8.497.255 2.832.325 5.677.21 8.518z" fill="#592d3d"/>
    <path d="M632.17 870.4v8c.26 34 .26 69 0 102.76v75.94c0 7.33-5.941 13.27-13.27 13.27H379.96c-7.33 0-13.27-5.94-13.27-13.27V999v-7.65c-.25-34.86-.25-69.86 0-105.3v-24.76" stroke="#592d3d" stroke-width="12" fill="none"/>
    <path d="M626.19 871.561c.03-2.954.249-5.904.65-8.829.38-2.932.867-5.855 1.46-8.766.3-1.46.6-2.919.94-4.368.34-1.45.69-2.908 1.15-4.358a30.651 30.651 0 014.18-8.57 30.648 30.648 0 013 9.088c.26 1.5.42 2.991.55 4.482.13 1.49.25 2.98.35 4.46.18 2.971.28 5.942.25 8.892 0 2.955-.18 5.907-.54 8.839z" fill="#592d3d"/>
    <path d="M367.53 834c21.58-5.27 12.43-74.73 12.43-74.73l233.23-.1s3.93 76.62 19.18 82.92" stroke="#592d3d" stroke-width="12" fill="none"/>
    <path d="M588.43 759.26c.006 9.115-.7 18.216-2.11 27.22a141.5 141.5 0 01-2.57 12.88 116.517 116.517 0 01-14.71 34.22 92.073 92.073 0 01-6.61 9c-37.06 37-95.95 39-131.74-1.19A98.263 98.263 0 01420.23 826a124.071 124.071 0 01-13.4-39.48 203.665 203.665 0 01-1.58-13.39c-.35-4.54-.54-9.15-.54-13.82" stroke="#592d3d" stroke-width="12" fill="none"/>
</svg>
