<svg id="clothes-tanktop" xmlns="http://www.w3.org/2000/svg" viewBox="0 0 1000 1000">
    <path
        d="m 613.18973,759.16043 h -54.21001 v 0.1 h 29.45 c 0.002,9.11463 -0.707,18.21563 -2.12,27.22003 -0.667,4.38 -1.523,8.6733 -2.57,12.88 -3.037,12.1217 -8.003,23.676 -14.71,34.22 -2.019,3.131 -4.227,6.1366 -6.61,9 -37.06001,37 -95.95001,39 -131.74012,-1.19 -3.9622,-4.788 -7.4612,-9.9411 -10.45,-15.39 -6.6617,-12.31 -11.1923,-25.6584 -13.4,-39.48 -0.6667,-4.38 -1.1933,-8.8434 -1.58,-13.39 -0.35,-4.54 -0.54,-9.15 -0.54,-13.82003 h 29.47 v -0.1 h -54.22001 c 0.82,22.29003 -5.75001,71.20003 -13.27001,80.04003 l 0,217.92004 c 0,7.329 5.94121,13.27 13.27001,13.27 h 238.94014 c 7.329,0 13.27,-5.941 13.27,-13.27 l -2.38,-215.36004 c -9.75,-0.05 -16.94,-57.74 -16.6,-82.65003 z"
        style="fill:var(--bigheads-color-clothes, #d67070)" />
    <path
        d="m 632.16973,832.31046 -22.79,38.09 11.39,130.03004 h 11.6 V 894.78046 Z"
        fill="rgba(0,0,0,.1)" />
    <path
        d="m 379.95959,1070.3905 h 116.62012 c -109.20012,0 -100.91011,-231.14004 -129.89013,-231.14004 v 217.87004 c 0,7.329 5.94121,13.27 13.27001,13.27 z"
        fill="rgba(0,0,0,.1)" />
    <path
        d="m 360.68963,862.31468 c -0.21329,-2.83379 -0.24669,-5.67887 -0.1,-8.5178 0.12666,-2.84272 0.36333,-5.68884 0.71,-8.53835 0.18,-1.42819 0.35,-2.84611 0.57,-4.27431 0.22,-1.4282 0.44,-2.84612 0.78,-4.27431 0.68458,-3.03312 1.84653,-5.93102 3.44,-8.57945 1.68697,2.58534 2.94722,5.43896 3.73,8.44588 0.39,1.41792 0.67996,2.83584 0.92996,4.24348 0.25,1.40765 0.5,2.83585 0.72,4.25377 0.44,2.82556 0.79,5.6614 1,8.49725 0.255,2.83173 0.3251,5.67682 0.21,8.5178 z"
        fill="#592d3d"
        style="stroke-width:1.01365" />
    <path
        d="m 632.16973,870.40046 v 8 c 0.26,34 0.26,69 0,102.76 0,2.87 0,5.72 0,8.53 v 67.41004 c 0,7.329 -5.941,13.27 -13.27,13.27 H 379.95959 c -7.3288,0 -13.27001,-5.941 -13.27001,-13.27 v -58.1 c 0,-2.50704 0,-5.05704 0,-7.65004 -0.25,-34.86 -0.25,-69.86 0,-105.3 v -24.76"
        stroke="#592d3d"
        stroke-width="12"
        fill="none" />
    <path
        d="m 626.18973,871.56123 c 0.031,-2.95397 0.249,-5.9038 0.65,-8.82878 0.38,-2.93224 0.867,-5.85515 1.46,-8.76668 0.3,-1.45939 0.6,-2.91878 0.94,-4.36782 0.34,-1.44904 0.69,-2.90843 1.15,-4.35746 0.943,-3.06886 2.355,-5.96207 4.18,-8.57003 1.466,2.84218 2.479,5.91083 3,9.08754 0.26,1.50079 0.42,2.99123 0.55,4.48167 0.13,1.49044 0.25,2.98088 0.35,4.46096 0.18,2.97053 0.28,5.94106 0.25,8.89089 0,2.955 -0.18,5.90793 -0.54,8.83913 z"
        fill="#592d3d"
        style="stroke-width:1.01736" />
    <path
        d="m 367.52967,834.00046 c 21.58002,-5.27 12.43002,-74.73002 12.43002,-74.73002 l 233.23004,-0.1 c 0,0 3.93,76.62002 19.18,82.92002"
        stroke="#592d3d"
     stroke-width="12"
     fill="none" />
    <path
        d="m 588.42972,759.26044 c 0.006,9.11442 -0.7,18.21532 -2.11,27.22002 -0.667,4.38 -1.523,8.6733 -2.57,12.88 -3.037,12.1217 -8.003,23.676 -14.71,34.22 -2.019,3.1311 -4.227,6.1366 -6.61,9 -37.06001,37 -95.95001,39 -131.74012,-1.19 -3.9657,-4.7876 -7.468,-9.9407 -10.46,-15.39 -6.6616,-12.31 -11.1923,-25.6584 -13.4,-39.48 -0.6667,-4.38 -1.1933,-8.8434 -1.58,-13.39 -0.35,-4.54 -0.54,-9.15 -0.54,-13.82002"
        stroke="#592d3d"
        stroke-width="12"
        fill="none" />
</svg>
