<svg id="clothes-tshirt" xmlns="http://www.w3.org/2000/svg" viewBox="0 0 1000 1000">
    <path
        d="m 382.69764,758.1 233.23,-0.1"
        stroke="#592d3d"
        stroke-width="12" />
    <path
        d="m 615.92764,758.00001 h -54.21 v 0.1 c 0.001,4.50209 -0.481,8.99119 -1.44,13.38999 -0.466,2.1398 -1.047,4.2528 -1.74,6.33 -2.213,6.2044 -5.609,11.9202 -10,16.83 -1.402,1.5735 -2.905,3.0533 -4.5,4.43 -25.17,18.2 -65.17,19.2 -89.48,-0.58 -2.619,-2.2882 -5.001,-4.8343 -7.11,-7.6 -4.378,-5.7497 -7.481,-12.3667 -9.1,-19.41 -0.474,-2.176 -0.831,-4.3758 -1.07,-6.59 -0.25,-2.258 -0.373,-4.5282 -0.37,-6.79999 v -0.1 h -54.21 c -7.3305,0.006 -13.27,5.94959 -13.27,13.27999 v 284.68 c -0.0107,3.527 1.3824,6.914 3.8719,9.413 2.4895,2.499 5.8708,3.904 9.3981,3.907 h 238.94 c 7.33,-0.01 13.27,-5.95 13.27,-13.28 V 777.88 c 0,-12.22 -5.89,-19.87999 -18.98,-19.87999 z"
        style="fill:var(--bigheads-color-clothes, #d67070)" />
    <path
        d="m 634.90764,831.15 -22.74,38.13 11.38,130 h 11.61 V 893.63 l 17.28,2.89 c -5.67,-72.17 -17.53,-65.37 -17.53,-65.37 z"
        fill="rgba(0,0,0,.1)" />
    <path
        d="m 369.39774,831.15 v 59.13 l -17.31,4.31 c 5.67,-70.12 17.31,-63.44 17.31,-63.44 z"
        fill="rgba(0,0,0,.1)" />
    <path
        d="m 612.16764,758.00001 c 67.41,0 78.45,56.28999 78.9,133.77999 -26.2,12.43 -48.79036,4.35688 -48.79036,4.35688"
        stroke="#592d3d"
        stroke-width="12"
        stroke-linecap="square"
        style="fill:var(--bigheads-color-clothes, #d67070)" />
    <path
        d="m 388.28764,758.00001 c -66.79,0 -80.08,54.69999 -80.76,130.71999 20.64,14.78 55.1369,8.80027 55.1369,8.80027"
        stroke="#592d3d"
        stroke-width="12"
        stroke-linecap="square"
        style="fill:var(--bigheads-color-clothes, #d67070)" />
    <path
        d="m 382.69764,1069.28 h 116.62 c -109.15,0 -100.91,-231.18 -129.89,-231.18 v 217.86 c -0.0107,3.527 1.3824,6.914 3.8719,9.413 2.4895,2.499 5.8708,3.904 9.3981,3.907 z"
        fill="rgba(0,0,0,.1)" />
    <path
        d="m 363.42754,861.03503 c -0.19,-3.74545 -0.11,-7.4909 0.05,-11.22615 0.16,-3.73525 0.47,-7.50112 0.86,-11.22616 0.2,-1.87783 0.4,-3.74545 0.65,-5.62328 0.25,-1.87783 0.49,-3.74546 0.85,-5.62329 0.7093,-3.88649 1.9163,-7.66093 3.59,-11.22615 1.6751,3.56379 2.879,7.33884 3.58,11.22615 0.37,1.87783 0.63,3.74546 0.86,5.62329 0.23,1.87783 0.45,3.74545 0.65,5.62328 0.38,3.74546 0.68,7.49091 0.85,11.22616 0.17,3.73525 0.25,7.4909 0.06,11.22615 z"
        fill="#592d3d"
        style="stroke-width:1.01023" />
    <path
        d="m 634.90764,869.28 v 8 c 0.26,34 0.26,69 0,102.75 0,2.87 0,5.72 0,8.53 v 67.41 c 0.008,3.526 -1.386,6.91 -3.875,9.406 -2.49,2.497 -5.869,3.901 -9.395,3.904 h -238.94 c -7.3304,-0.01 -13.27,-5.95 -13.27,-13.28 v -58.2 c 0,-2.51 0,-5.07 0,-7.65 -0.25,-34.87 -0.25,-69.87 0,-105.3 v -24.72"
        stroke="#592d3d"
        stroke-width="12"
        fill="none" />
    <path
        d="m 628.90764,869.28 c -0.19,-4.17 -0.1,-8.35 0.06,-12.53 0.16,-4.18 0.47,-8.35 0.85,-12.53 0.2,-2.09 0.41,-4.18 0.65,-6.27 0.24,-2.09 0.49,-4.17 0.86,-6.26 0.688,-4.3047 1.89,-8.5114 3.58,-12.53 1.688,4.0199 2.893,8.226 3.59,12.53 0.36,2.09 0.62,4.18 0.85,6.26 0.23,2.08 0.45,4.18 0.65,6.27 0.38,4.18 0.69,8.35 0.85,12.53 0.16,4.18 0.25,8.36 0.06,12.53 z"
        fill="#592d3d" />
    <path
        d="m 382.69764,758.1 233.23,-0.1"
        stroke="#592d3d"
        stroke-width="12" />
    <path
        d="m 561.71764,758.09999 c 0.001,4.50201 -0.481,8.99121 -1.44,13.39001 -0.466,2.1397 -1.047,4.2528 -1.74,6.33 -2.213,6.2044 -5.609,11.9202 -10,16.83 -1.402,1.5734 -2.905,3.0533 -4.5,4.43 -25.17,18.2 -65.17,19.2 -89.48,-0.58 -2.619,-2.2882 -5.001,-4.8344 -7.11,-7.6 -4.378,-5.7497 -7.481,-12.3668 -9.1,-19.41 -0.474,-2.176 -0.831,-4.3758 -1.07,-6.59 -0.25,-2.258 -0.373,-4.52822 -0.37,-6.80001"
        stroke="#592d3d"
        fill="none"
        stroke-width="12" />
    <path
        d="m 505.56764,827.67 c -6.049,1.2167 -12.239,1.5869 -18.39,1.1 -6.207,-0.4364 -12.328,-1.7009 -18.2,-3.76 -5.907,-2.0251 -11.471,-4.9385 -16.5,-8.64 l -1.86,-1.41 c -0.61,-0.48 -1.2,-1 -1.79,-1.52 -1.188,-1.0113 -2.301,-2.1076 -3.33,-3.28 -2.053,-2.3068 -3.856,-4.8242 -5.38,-7.51 2.14,2.1455 4.389,4.1782 6.74,6.09 0.58,0.48 1.17,0.95 1.75,1.4 0.58,0.45 1.23,0.82 1.84,1.24 0.61,0.42 1.22,0.84 1.85,1.23 l 1.91,1.16 c 5.102,3.0224 10.496,5.5218 16.1,7.46 5.615,1.9635 11.386,3.4521 17.25,4.45 5.965,0.9762 11.976,1.6404 18.01,1.99 z"
        fill="#592d3d" />
    <path
        d="m 676.86764,881.97 c -2.081,1.245 -4.372,2.099 -6.76,2.52 -2.371,0.466 -4.784,0.684 -7.2,0.65 -2.412,-0.047 -4.815,-0.312 -7.18,-0.79 -1.18,-0.21 -2.33,-0.56 -3.49,-0.87 -1.16,-0.31 -2.27,-0.77 -3.37,-1.24 1.21,0 2.38,0.18 3.56,0.28 l 3.52,0.29 c 1.17,0 2.33,0.2 3.5,0.21 1.17,0.01 2.32,0.11 3.48,0.12 2.333,0.04 4.667,-0.023 7,-0.19 2.334,-0.162 4.653,-0.489 6.94,-0.98 z"
        fill="#592d3d" />
</svg>