<svg id="clothes-tshirt" xmlns="http://www.w3.org/2000/svg" viewBox="0 0 1000 1000">
    <path d="M382.698 758.1l233.23-.1" stroke="#592d3d" stroke-width="12"/>
    <path d="M615.928 758h-54.21v.1a62.794 62.794 0 01-1.44 13.39 61.051 61.051 0 01-1.74 6.33 50.895 50.895 0 01-10 16.83 48.272 48.272 0 01-4.5 4.43c-25.17 18.2-65.17 19.2-89.48-.58a51.808 51.808 0 01-7.11-7.6 50.842 50.842 0 01-9.1-19.41 62.45 62.45 0 01-1.07-6.59 61.06 61.06 0 01-.37-6.8v-.1h-54.21c-7.33.006-13.27 5.95-13.27 13.28v284.68a13.28 13.28 0 0013.27 13.32h238.94c7.33-.01 13.27-5.95 13.27-13.28V777.88c0-12.22-5.89-19.88-18.98-19.88z" fill="#d67070"/>
    <path d="M634.908 831.15l-22.74 38.13 11.38 130h11.61V893.63l17.28 2.89c-5.67-72.17-17.53-65.37-17.53-65.37zM369.398 831.15v59.13l-17.31 4.31c5.67-70.12 17.31-63.44 17.31-63.44z" fill="rgba(0,0,0,.1)"/>
    <path d="M612.168 758c67.41 0 78.45 56.29 78.9 133.78-26.2 12.43-48.79 4.357-48.79 4.357M388.288 758c-66.79 0-80.08 54.7-80.76 130.72 20.64 14.78 55.137 8.8 55.137 8.8" stroke="#592d3d" stroke-width="12" stroke-linecap="square" fill="#d67070"/>
    <path d="M382.698 1069.28h116.62c-109.15 0-100.91-231.18-129.89-231.18v217.86a13.28 13.28 0 0013.27 13.32z" fill="rgba(0,0,0,.1)"/>
    <path d="M363.428 861.035c-.19-3.745-.11-7.49.05-11.226.16-3.735.47-7.501.86-11.226.2-1.878.4-3.746.65-5.624.25-1.877.49-3.745.85-5.623a45.747 45.747 0 013.59-11.226 45.285 45.285 0 013.58 11.226c.37 1.878.63 3.746.86 5.623.23 1.878.45 3.746.65 5.624.38 3.745.68 7.49.85 11.226.17 3.735.25 7.49.06 11.226z" fill="#592d3d"/>
    <path d="M634.908 869.28v8c.26 34 .26 69 0 102.75v75.94a13.278 13.278 0 01-13.27 13.31h-238.94c-7.33-.01-13.27-5.95-13.27-13.28v-58.2-7.65c-.25-34.87-.25-69.87 0-105.3v-24.72" stroke="#592d3d" stroke-width="12" fill="none"/>
    <path d="M628.908 869.28c-.19-4.17-.1-8.35.06-12.53s.47-8.35.85-12.53c.2-2.09.41-4.18.65-6.27.24-2.09.49-4.17.86-6.26a54.517 54.517 0 013.58-12.53 55.125 55.125 0 013.59 12.53c.36 2.09.62 4.18.85 6.26.23 2.08.45 4.18.65 6.27.38 4.18.69 8.35.85 12.53.16 4.18.25 8.36.06 12.53z" fill="#592d3d"/>
    <path d="M382.698 758.1l233.23-.1" stroke="#592d3d" stroke-width="12"/>
    <path d="M561.718 758.1a62.795 62.795 0 01-1.44 13.39 61.058 61.058 0 01-1.74 6.33 50.895 50.895 0 01-10 16.83 48.285 48.285 0 01-4.5 4.43c-25.17 18.2-65.17 19.2-89.48-.58a51.813 51.813 0 01-7.11-7.6 50.843 50.843 0 01-9.1-19.41 62.45 62.45 0 01-1.07-6.59 61.06 61.06 0 01-.37-6.8" stroke="#592d3d" fill="none" stroke-width="12"/>
    <path d="M505.568 827.67a66.61 66.61 0 01-18.39 1.1 69.793 69.793 0 01-18.2-3.76 61.459 61.459 0 01-16.5-8.64l-1.86-1.41c-.61-.48-1.2-1-1.79-1.52a32.216 32.216 0 01-3.33-3.28 43.838 43.838 0 01-5.38-7.51 87.416 87.416 0 006.74 6.09c.58.48 1.17.95 1.75 1.4.58.45 1.23.82 1.84 1.24.61.42 1.22.84 1.85 1.23l1.91 1.16a88.068 88.068 0 0016.1 7.46 106.274 106.274 0 0017.25 4.45c5.965.976 11.976 1.64 18.01 1.99zM676.868 881.97a19.895 19.895 0 01-6.76 2.52 34.796 34.796 0 01-7.2.65 40.197 40.197 0 01-7.18-.79c-1.18-.21-2.33-.56-3.49-.87-1.16-.31-2.27-.77-3.37-1.24 1.21 0 2.38.18 3.56.28l3.52.29c1.17 0 2.33.2 3.5.21 1.17.01 2.32.11 3.48.12 2.333.04 4.667-.023 7-.19a49.333 49.333 0 006.94-.98z" fill="#592d3d"/>
</svg>
