<svg id="clothes-vneck" xmlns="http://www.w3.org/2000/svg" viewBox="0 0 1000 1000">
    <path d="M689.077 896.23a20.304 20.304 0 01-3.69 2.42" stroke="#592d3d" stroke-width="12" stroke-linecap="square"/>
    <path d="M616.437 759.16l-38.44.1c0 53.72-75.33 111.14-75.33 111.14s-80.8-60.58-80.8-111.14l-38.66-.1c-7.33 0-13.274 5.94-13.28 13.27v284.69c.005 7.33 5.95 13.27 13.28 13.27h238.93c7.329 0 13.27-5.941 13.27-13.27V779c0-12.18-5.88-19.84-18.97-19.84z" fill="#d67070"/>
    <path d="M635.407 832.31l-22.79 38.09 11.39 130h11.6V894.78l17.28 2.89c-5.62-72.17-17.48-65.36-17.48-65.36zM369.897 832.31v59.09l-17.31 4.3c5.67-70.07 17.31-63.39 17.31-63.39z" fill="rgba(0,0,0,.1)"/>
    <path d="M612.617 759.16c67.42 0 78.45 56.28 78.9 133.78-26.2 12.42-53.91.7-53.91.7M388.777 759.16c-66.79 0-80.08 54.69-80.75 130.71 20.59 14.79 61.85 1.53 61.85 1.53" stroke="#592d3d" stroke-width="12" stroke-linecap="square" fill="#d67070"/>
    <path d="M383.207 1070.39h116.57c-109.19 0-100.91-231.14-129.89-231.14v217.87a13.28 13.28 0 0013.32 13.27z" fill="rgba(0,0,0,.1)"/>
    <path d="M363.927 861.29c-.19-3.67-.11-7.35.06-11 .17-3.65.47-7.34.85-11 .2-1.83.41-3.67.65-5.51.24-1.84.49-3.67.85-5.5a44.047 44.047 0 013.59-11 44.051 44.051 0 013.59 11c.36 1.83.62 3.67.85 5.5.23 1.83.45 3.68.65 5.51.387 3.68.673 7.347.86 11 .16 3.67.24 7.35 0 11z" fill="#592d3d"/>
    <path d="M635.407 870.4v8c.26 34 .26 69 0 102.76v75.94c0 7.329-5.941 13.27-13.27 13.27h-238.93c-7.33 0-13.274-5.94-13.28-13.27v-65.8c-.26-34.86-.26-69.86 0-105.3v-24.71" stroke="#592d3d" stroke-width="12" fill="none"/>
    <path d="M629.407 870.4c-.19-4.18-.1-8.36.06-12.53s.47-8.36.86-12.53c.2-2.09.4-4.18.64-6.27s.49-4.18.86-6.27a54.839 54.839 0 013.58-12.53 54.364 54.364 0 013.59 12.53c.36 2.09.63 4.18.85 6.27.22 2.09.45 4.18.65 6.27.39 4.17.69 8.35.85 12.53.16 4.18.26 8.35.06 12.53z" fill="#592d3d"/>
    <path d="M383.207 759.26l233.23-.1" stroke="#592d3d" stroke-width="12"/>
    <path d="M310.497 892.94a24.82 24.82 0 003.68 2.76" stroke="#592d3d" stroke-width="12" stroke-linecap="square"/>
    <path d="M677.367 883.13a20.252 20.252 0 01-6.75 2.52 34.889 34.889 0 01-7.21.64 39.882 39.882 0 01-7.17-.78c-1.18-.22-2.34-.57-3.49-.87-1.15-.3-2.28-.78-3.38-1.24 1.21 0 2.39.17 3.56.27l3.52.29c1.17 0 2.33.2 3.5.21 1.17.01 2.33.11 3.49.12 2.32.05 4.64 0 7-.18a50.745 50.745 0 006.93-.98z" fill="#592d3d"/>
    <path d="M577.997 759.26c0 53.72-75.33 111.14-75.33 111.14s-80.8-60.58-80.8-111.14" stroke="#592d3d" stroke-width="12" fill="none"/>
</svg>
