<svg id="clothes-vneck" xmlns="http://www.w3.org/2000/svg" viewBox="0 0 1000 1000">
    <path
        d="m 689.07692,896.23004 c -1.138,0.938 -2.376,1.75 -3.69,2.42"
        stroke="#592d3d"
        stroke-width="12"
        stroke-linecap="square" />
    <path
     d="m 616.437,759.16001 -38.43996,0.1 c 0,53.72003 -75.32993,111.14003 -75.32993,111.14003 0,0 -80.79992,-60.58 -80.79992,-111.14003 l -38.66006,-0.1 c -7.33039,0 -13.27448,5.93953 -13.27998,13.27003 V 1057.12 c 0.005,7.33 5.94959,13.27 13.27998,13.27 H 622.137 c 7.32899,0 13.26998,-5.941 13.26998,-13.27 V 779.00004 c 0,-12.18 -5.87999,-19.84003 -18.96998,-19.84003 z"
     fill="#d67070" />
    <path
        d="m 635.40698,832.30994 -22.78997,38.0901 11.38998,129.99996 h 11.59999 V 894.78004 l 17.27998,2.89 c -5.61999,-72.17 -17.47998,-65.3601 -17.47998,-65.3601 z"
        fill="rgba(0,0,0,.1)" />
    <path
        d="m 369.89715,832.31004 v 59.09 l -17.30999,4.3 c 5.67,-70.07 17.30999,-63.39 17.30999,-63.39 z"
        fill="rgba(0,0,0,.1)" />
    <path
        d="m 612.61701,759.16001 c 67.41992,0 78.44991,56.28003 78.89991,133.78003 -26.19998,12.42 -53.90994,0.7 -53.90994,0.7"
        stroke="#592d3d"
        stroke-width="12"
     stroke-linecap="square"
     fill="#d67070" />
    <path
        d="m 388.77713,759.16001 c -66.78994,0 -80.07994,54.69003 -80.74994,130.71003 20.59,14.79 61.84996,1.53 61.84996,1.53"
        stroke="#592d3d"
        stroke-width="12"
     stroke-linecap="square"
     fill="#d67070" />
    <path
        d="m 383.20713,1070.39 h 116.56999 c -109.18999,0 -100.91,-231.14006 -129.88997,-231.14006 V 1057.12 c 0.003,3.527 1.40839,6.909 3.90729,9.398 2.4988,2.489 5.8854,3.883 9.41269,3.872 z"
        fill="rgba(0,0,0,.1)" />
    <path
        d="m 363.92715,861.29004 c -0.19,-3.67 -0.11,-7.35 0.06,-11 0.17,-3.65 0.47,-7.34 0.85,-11 0.2,-1.83 0.41,-3.67 0.65,-5.51 0.24,-1.84 0.49,-3.67 0.85,-5.5 0.7078,-3.8086 1.9148,-7.5072 3.59,-11 1.67509,3.4928 2.88219,7.1914 3.58999,11 0.36,1.83 0.62,3.67 0.85,5.5 0.23,1.83 0.45,3.68 0.65,5.51 0.3866,3.68 0.6733,7.3466 0.86,11 0.16,3.67 0.24,7.35 0,11 z"
        fill="#592d3d" />
    <path
        d="m 635.40698,870.40004 v 8 c 0.26,34 0.26,69 0,102.76 0,2.87 0,5.72 0,8.53 V 1057.1 c 0,7.329 -5.94099,13.27 -13.26998,13.27 H 383.20703 c -7.33039,0 -13.27438,-5.94 -13.27998,-13.27 v -65.79996 c -0.26,-34.86 -0.26,-69.86 0,-105.3 v -24.71"
        stroke="#592d3d"
        stroke-width="12"
        fill="none" />
    <path
        d="m 629.40699,870.40004 c -0.19,-4.18 -0.1,-8.36 0.06,-12.53 0.16,-4.17 0.47,-8.36 0.86,-12.53 0.2,-2.09 0.4,-4.18 0.64,-6.27 0.24,-2.09 0.49,-4.18 0.86,-6.27 0.691,-4.3042 1.89299,-8.5105 3.57999,-12.53 1.695,4.0176 2.9,8.2244 3.59,12.53 0.36,2.09 0.63,4.18 0.85,6.27 0.22,2.09 0.45,4.18 0.65,6.27 0.39,4.17 0.69,8.35 0.85,12.53 0.16,4.18 0.26,8.35 0.06,12.53 z"
        fill="#592d3d" />
    <path
        d="M 383.20713,759.26 616.437,759.16"
        stroke="#592d3d"
        stroke-width="12" />
    <path
        d="m 310.49715,892.94004 c 1.13866,1.032 2.37065,1.956 3.67995,2.76"
        stroke="#592d3d"
        stroke-width="12"
        stroke-linecap="square" />
    <path
        d="m 677.36693,883.13004 c -2.081,1.237 -4.36799,2.09 -6.74999,2.52 -2.375,0.463 -4.791,0.677 -7.20999,0.64 -2.409,-0.043 -4.809,-0.304 -7.17,-0.78 -1.18,-0.22 -2.34,-0.57 -3.48999,-0.87 -1.15,-0.3 -2.28,-0.78 -3.37999,-1.24 1.20999,0 2.38999,0.17 3.55999,0.27 l 3.51999,0.29 c 1.17,0 2.33,0.2 3.5,0.21 1.17,0.01 2.33,0.11 3.49,0.12 2.31999,0.05 4.63999,0 6.99999,-0.18 2.33,-0.167 4.64499,-0.494 6.92999,-0.98 z"
        fill="#592d3d" />
    <path
        d="m 577.99704,759.25999 c 0,53.71995 -75.32993,111.14005 -75.32993,111.14005 0,0 -80.79992,-60.58 -80.79992,-111.14005"
        stroke="#592d3d"
     stroke-width="12"
     fill="none" />
</svg>
