<svg id="eyes-narrower" xmlns="http://www.w3.org/2000/svg" viewBox="0 0 1000 1000">
    <path d="M272.667 544.064c-1-18.55 18-34.249 43.28-41.575 2.655-.71 5.381-1.3 8.16-1.766 14.015-2.266 28.758-1.642 42.21 1.786a93.236 93.236 0 018.93 2.721c29.53 10.394 42.79 34.831 31.36 54.591a36.686 36.686 0 01-4.18 5.77c-3.988 5.434-10.012 10.12-17.51 13.625a80.792 80.792 0 01-7.85 3.27c-27.38 8.503-64.38 5.887-86.45-7.457a55.682 55.682 0 01-6.11-4.886c-2.122-1.964-3.986-4.043-5.57-6.214-3.353-4.451-5.282-9.303-5.67-14.26a32.726 32.726 0 01-.6-5.605z" fill="rgba(0,0,0,.2)"/>
    <path fill-rule="evenodd" clip-rule="evenodd" d="M271.037 532.074c-1-18.549 18-34.246 43.28-41.571a87.13 87.13 0 018.15-1.766c14.013-2.278 28.76-1.666 42.22 1.753a93.041 93.041 0 018.92 2.72c29.53 10.393 42.79 34.835 31.36 54.587a35.473 35.473 0 01-4.18 5.77 43.331 43.331 0 01-4.71 5.1 52.586 52.586 0 01-5.68 4.579 63.798 63.798 0 01-7.12 3.97 79.696 79.696 0 01-7.85 3.27c-27.38 8.503-64.38 5.887-86.44-7.45a55.564 55.564 0 01-6.11-4.892c-2.125-1.964-3.992-4.042-5.58-6.213-3.362-4.434-5.306-9.27-5.71-14.213a30.785 30.785 0 01-.55-5.644z" stroke="#592d3d" stroke-width="12" fill="white"/>
    <circle cx="340.24" cy="530.17" r="12.24" fill="#592d3d"/>
    <path d="M585.157 539.153c.43-9.921 6.67-19.731 15.1-27.102a60.034 60.034 0 017.12-5.593c23.758-16.241 62.006-18.73 90.17-5.87a77.305 77.305 0 016.53 3.365c27 14.065 30.12 41.404 15.32 61.135a45.996 45.996 0 01-4.78 4.499 63.724 63.724 0 01-7.58 5.33c-20.27 11.693-51.81 14.512-77.41 8.145a92.139 92.139 0 01-10.55-3.278c-17.9-7.07-30.37-20.388-33.43-34.25a27.189 27.189 0 01-.49-6.38z" fill="rgba(0,0,0,.1)"/>
    <path d="M590.647 531.162c.42-9.285 6.42-18.471 14.52-25.368a59.176 59.176 0 016.86-5.25c23.204-15.21 59.576-17.504 86.77-5.472a74.705 74.705 0 016.28 3.143c26 13.17 29 38.761 14.74 57.233a42.452 42.452 0 01-4.6 4.213 61.997 61.997 0 01-7.29 4.987c-19.51 10.945-49.86 13.59-74.49 7.625a89.118 89.118 0 01-10.17-3.117c-17.22-6.614-29.22-19.082-32.17-32.055a24.427 24.427 0 01-.45-5.939z" fill="#fff" stroke="#592d3d" stroke-width="12"/>
    <circle cx="660.24" cy="530.17" r="12.24" fill="#592d3d"/>
    <g opacity="var(--bigheads-show-lashes, 0)" fill-rule="evenodd" clip-rule="evenodd" fill="#592d3d">
        <path d="M253.036 473.313c4.804 16.104 19.613 25.12 31.945 28.651 14.101-19.529 58.086-25.915 90.16-12.739 27.5 6.448-9.457-26.1-71.9-12.78-2.35.728-14.694 2.184-29.757-10.762-2.099-1.803 3.956 13.936 11.436 20.627-11.322-.824-13.18-.912-31.884-12.997zM727.582 494.967c8.335-5.545 16.52-20.287 14.195-18.835-16.718 10.724-28.765 7.522-30.966 6.516-59.978-21.91-101.118 5.207-72.988 2.649 33.606-8.584 76.273 3.862 87.52 25.164 12.703-1.78 28.622-8.649 35.62-23.927-20.203 9.375-22.055 9.203-33.381 8.433z"/>
    </g>
</svg>
