<svg id="eyes-narrower" xmlns="http://www.w3.org/2000/svg" viewBox="0 0 1000 1000">
  <path
     d="m 272.66703,544.06416 c -1,-18.5504 17.99998,-34.2489 43.27998,-41.5749 2.6547,-0.7107 5.3812,-1.3008 8.16,-1.766 14.0149,-2.2661 28.7582,-1.6424 42.2103,1.7857 3.068,0.7719 6.052,1.6811 8.93,2.721 29.53,10.3937 42.79,34.8311 31.36,54.5915 -1.158,1.9923 -2.556,3.9214 -4.18,5.7692 -3.988,5.4343 -10.012,10.1211 -17.51,13.625 -2.502,1.2041 -5.124,2.2965 -7.85,3.2705 -27.3803,8.503 -64.3803,5.887 -86.4503,-7.4568 -2.21,-1.5325 -4.2518,-3.1653 -6.11,-4.8861 -2.1225,-1.9644 -3.9859,-4.0432 -5.57,-6.214 -3.3528,-4.4515 -5.28214,-9.3035 -5.66998,-14.2595 -0.36213,-1.8596 -0.56245,-3.7311 -0.6,-5.6056 z"
     fill="rgba(0,0,0,.2)" />
  <path
     fill-rule="evenodd"
     clip-rule="evenodd"
     d="m 271.03703,532.07406 c -1,-18.5488 17.99998,-34.246 43.27998,-41.57131 2.6513,-0.71065 5.3744,-1.3007 8.15,-1.76592 14.0129,-2.27772 28.7599,-1.66547 42.22,1.75284 3.0653,0.77199 6.0453,1.68099 8.9203,2.72089 29.53,10.3928 42.79,34.8345 31.36,54.5868 -1.15,1.9944 -2.548,3.9237 -4.18,5.7687 -1.383,1.7717 -2.957,3.4765 -4.71,5.1015 -1.729,1.6106 -3.627,3.1404 -5.68,4.5784 -2.22,1.4368 -4.6,2.7638 -7.12,3.97 -2.5,1.2055 -5.123,2.2981 -7.85,3.2703 -27.3803,8.5026 -64.3803,5.8864 -86.4403,-7.4496 -2.2107,-1.5344 -4.2524,-3.1693 -6.11,-4.8923 -2.1255,-1.9641 -3.9922,-4.0428 -5.58,-6.2135 -3.3625,-4.4339 -5.30551,-9.2701 -5.70998,-14.2124 -0.35777,-1.8725 -0.54145,-3.7574 -0.55,-5.6444 z"
     stroke="#592d3d"
     stroke-width="12"
     fill="white" />
  <circle
     cx="340.23932"
     cy="530.17218"
     r="12.24"
     fill="#592d3d" />
  <path
     d="m 585.15731,539.15326 c 0.43,-9.9215 6.67,-19.7315 15.1,-27.1021 2.152,-1.9807 4.533,-3.8506 7.12,-5.5935 23.758,-16.24099 62.006,-18.73046 90.17,-5.869 2.272,1.0395 4.452,2.1626 6.53,3.364 27,14.0658 30.12,41.404 15.32,61.1355 -1.438,1.568 -3.035,3.0708 -4.78,4.4985 -2.314,1.9023 -4.848,3.6847 -7.58,5.3312 -20.27,11.6923 -51.81,14.5113 -77.41,8.1443 -3.648,-0.902 -7.176,-1.999 -10.55,-3.2786 -17.9,-7.069 -30.37,-20.3873 -33.43,-34.2498 -0.415,-2.1153 -0.579,-4.2485 -0.49,-6.3805 z"
     fill="rgba(0,0,0,.1)" />
  <path
     d="m 590.64731,531.16246 c 0.42,-9.2851 6.42,-18.4718 14.52,-25.3684 2.084,-1.8596 4.377,-3.6144 6.86,-5.2495 23.204,-15.21049 59.576,-17.5045 86.77,-5.4727 2.182,0.9691 4.279,2.0185 6.28,3.1432 26,13.1697 29,38.7612 14.74,57.233 -1.382,1.473 -2.919,2.8807 -4.6,4.2128 -2.233,1.7819 -4.67,3.4492 -7.29,4.9871 -19.51,10.9452 -49.86,13.5897 -74.49,7.6249 -3.514,-0.8554 -6.915,-1.8979 -10.17,-3.1169 -17.22,-6.6144 -29.22,-19.0821 -32.17,-32.055 -0.393,-1.9684 -0.543,-3.9543 -0.45,-5.9385 z"
     fill="#ffffff"
     stroke="#592d3d"
     stroke-width="12" />
  <circle
     cx="660.23932"
     cy="530.17218"
     r="12.24"
     fill="#592d3d" />
  <g
     style="opacity:var(--bigheads-show-lashes, 0)">
    <path
       fill-rule="evenodd"
       clip-rule="evenodd"
       d="m 253.0365,473.31304 c 4.80379,16.10348 19.61218,25.12088 31.94427,28.65108 14.10139,-19.5287 58.08587,-25.9155 90.15995,-12.7388 27.49998,6.4481 -9.45699,-26.10071 -71.89936,-12.7805 -2.3513,0.728 -14.69439,2.184 -29.75748,-10.7621 -2.0986,-1.8023 3.956,13.9361 11.43609,20.6268 -11.32239,-0.8237 -13.18039,-0.9111 -31.88347,-12.99648 z"
       fill="#592d3d" />
    <path
       fill-rule="evenodd"
       clip-rule="evenodd"
       d="m 727.58185,494.96684 c 8.33499,-5.5447 16.52099,-20.2873 14.19499,-18.8345 -16.71799,10.7238 -28.76498,7.5216 -30.96598,6.516 -59.97797,-21.91086 -101.11794,5.2067 -72.98796,2.6487 33.60598,-8.5837 76.27296,3.8624 87.51995,25.1636 12.70299,-1.7796 28.62198,-8.6483 35.62098,-23.9265 -20.20399,9.3748 -22.05599,9.2027 -33.38198,8.4327 z"
       fill="#592d3d" />
  </g>
</svg>
