<svg id="eyes-round" xmlns="http://www.w3.org/2000/svg" viewBox="0 0 1000 1000">
    <path d="M272.668 565.926c-1-28.36 18-52.36 43.28-63.56a62.386 62.386 0 018.16-2.7 70.001 70.001 0 0142.21 2.73 71.746 71.746 0 018.93 4.16c29.53 15.89 42.79 53.25 31.36 83.46a61.667 61.667 0 01-4.18 8.82 54.679 54.679 0 01-17.51 20.83 69.143 69.143 0 01-7.85 5c-27.38 13-64.38 9-86.45-11.4a68.367 68.367 0 01-6.11-7.47 64.871 64.871 0 01-5.57-9.5 55.777 55.777 0 01-5.67-21.8 75.656 75.656 0 01-.6-8.57z" fill="rgba(0,0,0,.2)"/>
    <path fill-rule="evenodd" clip-rule="evenodd" d="M271.038 547.576c-1-28.36 18-52.36 43.28-63.56a62.239 62.239 0 018.15-2.7 70 70 0 0142.22 2.68 71.613 71.613 0 018.92 4.16c29.53 15.89 42.79 53.26 31.36 83.46-1.15 3.05-2.548 6-4.18 8.82a63.99 63.99 0 01-4.71 7.8 64.793 64.793 0 01-5.68 7 63.075 63.075 0 01-7.12 6.07 68.33 68.33 0 01-7.85 5c-27.38 13-64.38 9-86.44-11.39a68.231 68.231 0 01-6.11-7.48 64.993 64.993 0 01-5.58-9.5 55.586 55.586 0 01-5.71-21.73 71.3 71.3 0 01-.55-8.63z" stroke="#592d3d" stroke-width="12" fill="white"/>
    <circle cx="340.24" cy="548.49" r="12.24" fill="#592d3d"/>
    <path d="M585.158 557.866c.43-15.13 6.67-30.09 15.1-41.33a72.757 72.757 0 017.12-8.53c23.758-24.767 62.006-28.563 90.17-8.95a73.244 73.244 0 016.53 5.13c27 21.45 30.12 63.14 15.32 93.23a62.244 62.244 0 01-4.78 6.86 72.062 72.062 0 01-7.58 8.13c-20.27 17.83-51.81 22.13-77.41 12.42a71.149 71.149 0 01-10.55-5c-17.9-10.78-30.37-31.09-33.43-52.23a62.789 62.789 0 01-.49-9.73z" fill="rgba(0,0,0,.1)"/>
    <path d="M590.648 546.396c.42-14.15 6.42-28.15 14.52-38.66a70.552 70.552 0 016.86-8c23.204-23.18 59.576-26.675 86.77-8.34a69.786 69.786 0 016.28 4.79c26 20.07 29 59.07 14.74 87.22a56.527 56.527 0 01-4.6 6.42 68.88 68.88 0 01-7.29 7.6c-19.51 16.68-49.86 20.71-74.49 11.62a68.686 68.686 0 01-10.17-4.75c-17.22-10.08-29.22-29.08-32.17-48.85-.393-3-.543-6.026-.45-9.05z" fill="#fff" stroke="#592d3d" stroke-width="12"/>
    <circle cx="660.24" cy="548.49" r="12.24" fill="#592d3d"/>
    <g opacity="var(--bigheads-show-lashes, 0)" fill-rule="evenodd" clip-rule="evenodd" fill="#592d3d">
        <path d="M253.036 470.313c4.804 16.104 19.613 25.12 31.945 28.651 14.101-19.529 58.086-25.915 90.16-12.739 27.5 6.448-9.457-26.1-71.9-12.78-2.35.728-14.694 2.184-29.757-10.762-2.099-1.803 3.956 13.936 11.436 20.627-11.322-.824-13.18-.912-31.884-12.997zM724.582 491.967c8.335-5.545 16.52-20.287 14.195-18.835-16.718 10.724-28.765 7.522-30.966 6.516-59.978-21.91-101.118 5.207-72.988 2.649 33.606-8.584 76.273 3.862 87.52 25.164 12.703-1.78 28.622-8.649 35.62-23.927-20.203 9.375-22.055 9.203-33.381 8.433z"/>
    </g>
</svg>
