<svg id="eyes-round" xmlns="http://www.w3.org/2000/svg" viewBox="0 0 1000 1000">
  <path
     d="m 272.66789,565.92626 c -1,-28.36 17.99998,-52.36 43.27998,-63.56 2.6547,-1.0865 5.3812,-1.9887 8.16,-2.7 14.0149,-3.4644 28.7582,-2.5109 42.2103,2.73 3.068,1.1803 6.052,2.5702 8.93,4.16 29.53,15.89 42.79,53.25 31.36,83.4596 -1.158,3.046 -2.556,5.995 -4.18,8.82 -3.988,8.308 -10.012,15.474 -17.51,20.83 -2.502,1.841 -5.124,3.512 -7.85,5 -27.3803,13 -64.3803,9 -86.4503,-11.4 -2.21,-2.343 -4.2518,-4.839 -6.11,-7.47 -2.1225,-3.003 -3.9859,-6.181 -5.57,-9.5 -3.3528,-6.805 -5.28214,-14.223 -5.66998,-21.8 -0.36213,-2.8426 -0.56245,-5.7038 -0.6,-8.5696 z"
     fill="rgba(0,0,0,.2)" />
  <path
     fill-rule="evenodd"
     clip-rule="evenodd"
     d="m 271.03789,547.57626 c -1,-28.36 17.99998,-52.36 43.27998,-63.56 2.6513,-1.0865 5.3744,-1.98865 8.15,-2.69995 14.0129,-3.48249 28.7599,-2.54639 42.22,2.67995 3.0653,1.1803 6.0453,2.5703 8.9203,4.16 29.53,15.89 42.79,53.26 31.36,83.46 -1.15,3.0496 -2.548,5.9996 -4.18,8.8196 -1.383,2.709 -2.957,5.316 -4.71,7.8 -1.729,2.463 -3.627,4.802 -5.68,7 -2.22,2.197 -4.6,4.226 -7.12,6.07 -2.5,1.843 -5.123,3.514 -7.85,5 -27.3803,13 -64.3803,9 -86.4403,-11.39 -2.2107,-2.346 -4.2524,-4.845 -6.11,-7.48 -2.1255,-3.003 -3.9922,-6.181 -5.58,-9.5 -3.3625,-6.7787 -5.30551,-14.1731 -5.70998,-21.7295 -0.35777,-2.8629 -0.54145,-5.7449 -0.55,-8.6301 z"
     stroke="#592d3d"
     stroke-width="12"
     fill="white" />
  <circle
     cx="340.24017"
     cy="548.48987"
     r="12.24"
     fill="#592d3d" />
  <path
     d="m 585.15817,557.86636 c 0.43,-15.13 6.67,-30.09 15.1,-41.33 2.152,-3.0206 4.533,-5.8722 7.12,-8.53 23.758,-24.76706 62.006,-28.56344 90.17,-8.95 2.272,1.5851 4.452,3.2979 6.53,5.13 27,21.45 30.12,63.1399 15.32,93.2295 -1.438,2.392 -3.035,4.683 -4.78,6.86 -2.314,2.901 -4.848,5.62 -7.58,8.13 -20.27,17.83 -51.81,22.13 -77.41,12.42 -3.648,-1.375 -7.176,-3.047 -10.55,-5 -17.9,-10.78 -30.37,-31.09 -33.43,-52.2295 -0.415,-3.2258 -0.579,-6.4789 -0.49,-9.73 z"
     fill="rgba(0,0,0,.1)" />
  <path
     d="m 590.64817,546.39626 c 0.42,-14.15 6.42,-28.15 14.52,-38.66 2.084,-2.8339 4.377,-5.508 6.86,-8 23.204,-23.17981 59.576,-26.67576 86.77,-8.34 2.182,1.4769 4.279,3.0761 6.28,4.79 26,20.07 29,59.07 14.74,87.2196 -1.382,2.245 -2.919,4.39 -4.6,6.42 -2.233,2.716 -4.67,5.257 -7.29,7.6 -19.51,16.68 -49.86,20.71 -74.49,11.62 -3.514,-1.303 -6.915,-2.892 -10.17,-4.75 -17.22,-10.08 -29.22,-29.08 -32.17,-48.8496 -0.393,-2.9997 -0.543,-6.0261 -0.45,-9.05 z"
     fill="#ffffff"
     stroke="#592d3d"
     stroke-width="12" />
  <circle
     cx="660.24017"
     cy="548.48987"
     r="12.24"
     fill="#592d3d" />
  <g
     style="opacity:var(--bigheads-show-lashes, 0)">
    <path
       fill-rule="evenodd"
       clip-rule="evenodd"
       d="m 253.0365,470.31304 c 4.80379,16.10348 19.61218,25.12088 31.94427,28.65108 14.10139,-19.5287 58.08587,-25.9155 90.15995,-12.7388 27.49998,6.4481 -9.45699,-26.10071 -71.89936,-12.7805 -2.3513,0.728 -14.69439,2.184 -29.75748,-10.7621 -2.0986,-1.8023 3.956,13.9361 11.43609,20.6268 -11.32239,-0.8237 -13.18039,-0.9111 -31.88347,-12.99648 z"
       fill="#592d3d" />
    <path
       fill-rule="evenodd"
       clip-rule="evenodd"
       d="m 724.58185,491.96684 c 8.33499,-5.5447 16.52099,-20.2873 14.19499,-18.8345 -16.71799,10.7238 -28.76498,7.5216 -30.96598,6.516 -59.97797,-21.91086 -101.11794,5.2067 -72.98796,2.6487 33.60598,-8.5837 76.27296,3.8624 87.51995,25.1636 12.70299,-1.7796 28.62198,-8.6483 35.62098,-23.9265 -20.20399,9.3748 -22.05599,9.2027 -33.38198,8.4327 z"
       fill="#592d3d" />
  </g>
</svg>
