<svg id="eyes-semiround" xmlns="http://www.w3.org/2000/svg" viewBox="0 0 1000 1000">
  <path
     d="M 355.57876,486.17329 C 269.00087,474.61356 252.498,566.86263 252.498,566.86263 c 0,0 32.86005,10.64233 85.85856,21.85346 52.39071,11.08274 91.58045,5.79893 91.58045,5.79893 0,0 12.22112,-96.78201 -74.35825,-108.34173 z"
     fill="rgba(0,0,0,.2)" />
  <path
     d="m 355.79107,481.15895 c -76.4537,-10.8163 -91.0268,75.49999 -91.0268,75.49999 0,0 29.0175,9.9579 75.8185,20.448 46.2643,10.37 80.8713,5.426 80.8713,5.426 0,0 10.792,-90.5577 -65.663,-101.37399 z"
     fill="#ffffff"
     stroke="#592d3d"
     stroke-width="12" />
  <path
     d="m 645.09907,484.15894 c 76.455,-10.81629 91.028,75.5 91.028,75.5 0,0 -29.018,9.9579 -75.819,20.448 -46.264,10.37 -80.871,5.426 -80.871,5.426 0,0 -10.792,-90.5577 65.662,-101.374 z"
     fill="#ffffff"
     stroke="#592d3d"
     stroke-width="12" />
  <circle
     cx="346.16409"
     cy="538.39893"
     r="12.24"
     fill="#592d3d" />
  <circle
     cx="652.16406"
     cy="537.39893"
     r="12.24"
     fill="#592d3d" />
  <g
     transform="translate(12.50026)"
     style="opacity:var(--bigheads-show-lashes, 0)">
    <path
       fill-rule="evenodd"
       clip-rule="evenodd"
       d="m 245.53633,468.31304 c 4.80379,16.10348 19.61219,25.12088 31.94428,28.65108 14.10138,-19.5287 58.08587,-25.9155 90.15994,-12.7388 27.49998,6.4481 -9.45699,-26.10071 -71.89936,-12.7805 -2.35129,0.728 -14.69439,2.184 -29.75747,-10.7621 -2.0986,-1.8023 3.956,13.9361 11.43608,20.6268 -11.32239,-0.8237 -13.18039,-0.9111 -31.88347,-12.99648 z"
       fill="#592d3d" />
    <path
       fill-rule="evenodd"
       clip-rule="evenodd"
       d="m 709.08184,493.96684 c 8.33499,-5.5447 16.52099,-20.2873 14.19499,-18.8345 -16.71799,10.7238 -28.76498,7.5216 -30.96598,6.516 -59.97797,-21.91086 -101.11793,5.2067 -72.98796,2.6487 33.60598,-8.5837 76.27296,3.8624 87.51995,25.1636 12.70299,-1.7796 28.62198,-8.6483 35.62098,-23.9265 -20.20398,9.3748 -22.05598,9.2027 -33.38198,8.4327 z"
       fill="#592d3d" />
  </g>
</svg>
