<svg id="eyes-semiround" xmlns="http://www.w3.org/2000/svg" viewBox="0 0 1000 1000">
  <path
     d="m 343.0785,486.17329 c -86.57789,-11.55973 -103.08076,80.68934 -103.08076,80.68934 0,0 32.86005,10.64233 85.85856,21.85346 52.39071,11.08274 91.58045,5.79893 91.58045,5.79893 0,0 12.22112,-96.78201 -74.35825,-108.34173 z"
     fill="rgba(0,0,0,.2)" />
  <path
     d="m 343.29081,481.15895 c -76.4537,-10.8163 -91.0268,75.49999 -91.0268,75.49999 0,0 29.0175,9.9579 75.8185,20.448 46.2643,10.37 80.8713,5.426 80.8713,5.426 0,0 10.792,-90.5577 -65.663,-101.37399 z"
     fill="#ffffff"
     stroke="#592d3d"
     stroke-width="12" />
  <path
     d="m 632.59881,484.15894 c 76.455,-10.81629 91.028,75.5 91.028,75.5 0,0 -29.018,9.9579 -75.819,20.448 -46.264,10.37 -80.871,5.426 -80.871,5.426 0,0 -10.792,-90.5577 65.662,-101.374 z"
     fill="#ffffff"
     stroke="#592d3d"
     stroke-width="12" />
  <circle
     cx="333.66382"
     cy="538.39893"
     r="12.24"
     fill="#592d3d" />
  <circle
     cx="639.66382"
     cy="537.39893"
     r="12.24"
     fill="#592d3d" />
</svg>
