<svg id="eyes-semiround" xmlns="http://www.w3.org/2000/svg" viewBox="0 0 1000 1000">
    <path d="M355.579 486.173c-86.578-11.56-103.081 80.69-103.081 80.69s32.86 10.642 85.859 21.853c52.39 11.083 91.58 5.799 91.58 5.799s12.221-96.782-74.358-108.342z" fill="rgba(0,0,0,.2)"/>
    <path d="M355.791 481.159c-76.454-10.816-91.027 75.5-91.027 75.5s29.018 9.958 75.819 20.448c46.264 10.37 80.871 5.426 80.871 5.426s10.792-90.558-65.663-101.374zM645.1 484.159c76.454-10.816 91.027 75.5 91.027 75.5s-29.018 9.958-75.819 20.448c-46.264 10.37-80.87 5.426-80.87 5.426s-10.793-90.558 65.661-101.374z" fill="#fff" stroke="#592d3d" stroke-width="12"/>
    <circle cx="346.16" cy="538.4" r="12.24" fill="#592d3d"/>
    <circle cx="652.16" cy="537.4" r="12.24" fill="#592d3d"/>
    <g opacity="var(--bigheads-show-lashes, 0)" fill-rule="evenodd" clip-rule="evenodd" fill="#592d3d">
        <path d="M258.037 468.313c4.803 16.104 19.612 25.12 31.944 28.651 14.101-19.529 58.086-25.915 90.16-12.739 27.5 6.448-9.457-26.1-71.9-12.78-2.35.728-14.694 2.184-29.757-10.762-2.099-1.803 3.956 13.936 11.436 20.627-11.322-.824-13.18-.912-31.883-12.997zM721.582 493.967c8.335-5.545 16.521-20.287 14.195-18.835-16.718 10.724-28.765 7.522-30.966 6.516-59.978-21.91-101.118 5.207-72.988 2.649 33.606-8.584 76.273 3.862 87.52 25.164 12.703-1.78 28.622-8.649 35.621-23.927-20.204 9.375-22.056 9.203-33.382 8.433z"/>
    </g>
</svg>
