<svg id="eyes-thin" xmlns="http://www.w3.org/2000/svg" viewBox="0 0 1000 1000">
    <path fill-rule="evenodd" clip-rule="evenodd" d="M271.034 512.714c-1-10.117 18-18.68 43.28-22.675 2.651-.388 5.374-.71 8.15-.963 14.013-1.243 28.76-.909 42.22.956 3.065.42 6.045.917 8.92 1.484 29.53 5.669 42.79 19 31.36 29.775-1.15 1.087-2.548 2.14-4.18 3.146-1.383.967-2.957 1.896-4.71 2.783a59.245 59.245 0 01-5.68 2.497c-2.22.784-4.6 1.508-7.12 2.166a123.83 123.83 0 01-7.85 1.783c-27.38 4.638-64.38 3.211-86.44-4.063a62.868 62.868 0 01-6.11-2.669c-2.126-1.071-3.992-2.205-5.58-3.389-3.363-2.418-5.306-5.056-5.71-7.752a9.51 9.51 0 01-.55-3.079z" stroke="#592d3d" stroke-width="12" fill="white"/>
    <circle cx="340.24" cy="512.13" r="12.24" fill="#592d3d"/>
    <path d="M590.644 512.217c.42-5.065 6.42-10.076 14.52-13.837a69.032 69.032 0 016.86-2.864c23.204-8.296 59.576-9.548 86.77-2.985a109.01 109.01 0 016.28 1.715c26 7.183 29 21.142 14.74 31.218a43.568 43.568 0 01-4.6 2.298 77.626 77.626 0 01-7.29 2.72c-19.51 5.97-49.86 7.412-74.49 4.159a148.731 148.731 0 01-10.17-1.7c-17.22-3.608-29.22-10.409-32.17-17.485a7.477 7.477 0 01-.45-3.239z" fill="#fff" stroke="#592d3d" stroke-width="12"/>
    <circle cx="660.24" cy="512.13" r="12.24" fill="#592d3d"/>
    <g opacity="var(--bigheads-show-lashes, 0)" fill-rule="evenodd" clip-rule="evenodd" fill="#592d3d">
        <path d="M247.536 476.283c4.804 16.104 19.613 25.121 31.945 28.651 14.101-19.528 58.085-25.915 90.16-12.738 27.5 6.448-9.457-26.101-71.9-12.78-2.351.727-14.694 2.183-29.757-10.763-2.099-1.802 3.956 13.936 11.436 20.627-11.323-.824-13.18-.911-31.884-12.997zM731.497 496.809c8.335-5.545 16.521-20.288 14.195-18.835-16.718 10.724-28.765 7.522-30.966 6.516-59.978-21.91-101.118 5.207-72.988 2.649 33.606-8.584 76.273 3.862 87.52 25.163 12.703-1.78 28.622-8.648 35.621-23.926-20.204 9.375-22.056 9.203-33.382 8.433z"/>
    </g>
</svg>
