<svg id="eyes-thin" xmlns="http://www.w3.org/2000/svg" viewBox="0 0 1000 1000">
  <path
     fill-rule="evenodd"
     clip-rule="evenodd"
     d="m 271.03386,512.71423 c -1,-10.1175 17.99998,-18.6796 43.27998,-22.67524 2.6513,-0.38764 5.3744,-0.70948 8.15,-0.96324 14.0129,-1.24239 28.7599,-0.90843 42.22,0.9561 3.0653,0.42106 6.0453,0.91693 8.9203,1.48409 29.53,5.66879 42.79,19.00069 31.36,29.77459 -1.15,1.0879 -2.548,2.1403 -4.18,3.1466 -1.383,0.9664 -2.957,1.8963 -4.71,2.7827 -1.729,0.8784 -3.627,1.7129 -5.68,2.4972 -2.22,0.7838 -4.6,1.5076 -7.12,2.1655 -2.5,0.6576 -5.123,1.2535 -7.85,1.7838 -27.3803,4.6378 -64.3803,3.2108 -86.4403,-4.0634 -2.2107,-0.8369 -4.2524,-1.7287 -6.11,-2.6685 -2.1255,-1.0714 -3.9922,-2.2052 -5.58,-3.3892 -3.3625,-2.4185 -5.30551,-5.0564 -5.70998,-7.7522 -0.35777,-1.0214 -0.54145,-2.0495 -0.55,-3.0788 z"
     stroke="#592d3d"
     stroke-width="12"
     fill="white" />
  <circle
     cx="340.23615"
     cy="512.12543"
     r="12.24"
     fill="#592d3d" />
  <path
     d="m 590.64414,512.21703 c 0.42,-5.0646 6.42,-10.0756 14.52,-13.8373 2.084,-1.0144 4.377,-1.9715 6.86,-2.8634 23.204,-8.29662 59.576,-9.5479 86.77,-2.9851 2.182,0.5286 4.279,1.101 6.28,1.7145 26,7.1835 29,21.1425 14.74,31.218 -1.382,0.8034 -2.919,1.5712 -4.6,2.2979 -2.233,0.9719 -4.67,1.8813 -7.29,2.7202 -19.51,5.9701 -49.86,7.4126 -74.49,4.159 -3.514,-0.4666 -6.915,-1.0352 -10.17,-1.7001 -17.22,-3.6079 -29.22,-10.4084 -32.17,-17.4845 -0.393,-1.0737 -0.543,-2.1569 -0.45,-3.2392 z"
     fill="#ffffff"
     stroke="#592d3d"
     stroke-width="12" />
  <circle
     cx="660.23615"
     cy="512.12543"
     r="12.24"
     fill="#592d3d" />
  <g
     style="opacity:var(--bigheads-show-lashes, 0)">
    <path
       fill-rule="evenodd"
       clip-rule="evenodd"
       d="m 247.53634,476.28338 c 4.80379,16.10348 19.61218,25.12088 31.94427,28.65108 14.10139,-19.5287 58.08587,-25.9155 90.15995,-12.7388 27.49998,6.4481 -9.45699,-26.10071 -71.89936,-12.7805 -2.3513,0.728 -14.69439,2.184 -29.75748,-10.7621 -2.0986,-1.8023 3.956,13.9361 11.43609,20.6268 -11.32239,-0.8237 -13.18039,-0.9111 -31.88347,-12.99648 z"
       fill="#592d3d" />
    <path
       fill-rule="evenodd"
       clip-rule="evenodd"
       d="m 731.49703,496.80851 c 8.33499,-5.5447 16.52099,-20.2873 14.19499,-18.8345 -16.71799,10.7238 -28.76498,7.5216 -30.96598,6.516 -59.97797,-21.91086 -101.11794,5.2067 -72.98796,2.6487 33.60598,-8.5837 76.27296,3.8624 87.51995,25.1636 12.70299,-1.7796 28.62198,-8.6483 35.62098,-23.9265 -20.20399,9.3748 -22.05599,9.2027 -33.38198,8.4327 z"
       fill="#592d3d" />
  </g>
</svg>
