<svg id="hair-balding-front" xmlns="http://www.w3.org/2000/svg" viewBox="0 0 1000 1000">
    <path
        d="m 425.2092,298.34993 c 11.261,-6.5525 23.334,-11.5957 35.91,-14.99999 12.669,-3.46481 25.736,-5.2633 38.87,-5.35 13.17,-0.0838 26.291,1.62525 39,5.08 12.599,3.37916 24.658,8.51989 35.82,15.26999 -12.201,-3.7926 -24.62,-6.8415 -37.19,-9.13 -12.405,-2.195 -24.982,-3.2726 -37.58,-3.21999 -12.593,0.0929 -25.155,1.25709 -37.55,3.47999 -12.573,2.3053 -25.016,5.266 -37.28,8.87 z"
        fill="#592d3d" />
    <path
        d="m 425.2092,326.29993 c 11.261,-6.5525 23.334,-11.5957 35.91,-15 12.672,-3.4431 25.738,-5.2247 38.87,-5.3 13.166,-0.11 26.287,1.5721 39,5 12.599,3.3792 24.658,8.5199 35.82,15.27 -12.202,-3.7879 -24.621,-6.8368 -37.19,-9.13 -12.392,-2.1959 -24.955,-3.2769 -37.54,-3.23 -12.593,0.0929 -25.155,1.2571 -37.55,3.48 -12.586,2.3219 -25.043,5.2959 -37.32,8.91 z"
        fill="#592d3d" />
    <path
        d="m 574.7692,326.42993 c -12.274,2.6436 -24.697,4.5404 -37.2,5.68 -12.487,1.2 -25.013,1.83 -37.58,1.89 -12.55,0 -25.1,-0.47 -37.6,-1.64 -12.519,-1.1053 -24.945,-3.08 -37.19,-5.91 12.59,-0.39 25,-0.34 37.49,-0.37 l 37.3,-0.08 37.29,-0.13 c 12.44,0 24.91,-0.01 37.49,0.56 z"
        style="fill:rgba(0,0,0,.1)" />
    <path
        d="m 574.7692,298.46993 c -12.304,2.4445 -24.738,4.1874 -37.24,5.22 -12.48,1.0867 -24.99,1.6567 -37.53,1.71 -12.53,0.05 -25.06,-0.42 -37.56,-1.48 -12.516,-1.0032 -24.952,-2.8237 -37.23,-5.45 12.57,-0.59 25,-0.7 37.47,-0.84 l 37.31,-0.23 c 12.42,0 24.85,-0.06 37.31,0 12.46,0.06 24.91,0.3 37.47,1.07 z"
        style="fill:rgba(0,0,0,.1)" />
    <path
        fill-rule="evenodd"
        clip-rule="evenodd"
        d="m 871.0992,497.99993 c -94.26,-5.93 -88.36,-172.82 -144.1,-140.14 v 0 l 0.42,0.69 c -1.08,8.7 -11.09,100.12 26.09,224.1 0.41,-1.25 0.81,-2.51 1.21,-3.77 2,5.4 17,39.1 75.81,23.16 -40.58,-34.22 -31.47,-75.27 -31.47,-75.27 0,0 44.55,1.32 72.04,-28.77 z"
        stroke="#592d3d"
        stroke-width="12"
        fill="#d96e27" />
    <path
        d="m 766.7392,497.99993 c 1.15,7.16 1.658,14.409 1.52,21.66 -0.159,7.253 -0.693,14.492 -1.6,21.69 -0.467,3.6 -1.007,7.193 -1.62,10.78 -0.65,3.57 -1.35,7.14 -2.16,10.69 -1.598,7.109 -3.601,14.12 -6,21 l -7.59,-2.54 c 2.11,-6.73 4.13,-13.49 5.92,-20.32 l 1.32,-5.13 1.22,-5.16 1.17,-5.17 1.07,-5.2 c 1.41,-6.94 2.5,-13.94 3.53,-21 1.03,-7.06 2,-14.14 3.22,-21.3 z"
        fill="#592d3d" />
    <path
        d="m 730.8392,356.45993 c 4.099,6.4667 7.822,13.1645 11.15,20.06 0.83,1.72 1.62,3.46 2.42,5.2 l 2.3,5.25 2.15,5.32 2,5.36 c 2.608,7.168 4.825,14.472 6.64,21.88 1.796,7.411 2.924,14.968 3.37,22.58 -2.76,-7.11 -5.29,-14.18 -7.94,-21.19 -2.65,-7.01 -5.32,-13.95 -8.36,-20.76 l -2.29,-5.09 -2.39,-5 -2.45,-5 -2.55,-4.95 c -3.43,-6.59 -7.09,-13 -10.87,-19.43 z"
        fill="#592d3d" />
    <path
        fill-rule="evenodd"
        clip-rule="evenodd"
        d="m 128.87912,497.99993 c 94.2601,-5.93 88.3601,-172.82 144.1001,-140.14 v 0 l -0.42,0.69 c 1.08,8.7 11.09,100.12 -26.09,224.1 -0.41,-1.25 -0.81,-2.51 -1.21,-3.77 -2,5.4 -17,39.1 -75.8101,23.16 40.58,-34.22 31.47,-75.27 31.47,-75.27 0,0 -44.55,1.32 -72.04,-28.77 z"
        stroke="#592d3d"
        stroke-width="12"
        fill="#d96e27" />
    <path
        d="m 233.23922,497.99993 c 1.22,7.16 2.18,14.24 3.24,21.28 1.06,7.04 2.12,14.05 3.53,21 l 1.07,5.2 1.17,5.17 1.22,5.16 1.32,5.13 c 1.79,6.83 3.8,13.59 5.92,20.32 l -7.59,2.54 c -2.399,-6.88 -4.403,-13.891 -6,-21 -0.81,-3.55 -1.51,-7.12 -2.16,-10.69 -0.65,-3.57 -1.15,-7.18 -1.62,-10.78 -0.907,-7.198 -1.442,-14.437 -1.6,-21.69 -0.144,-7.244 0.358,-14.486 1.5,-21.64 z"
        fill="#592d3d" />
    <path
        d="m 275.98922,360.64993 c -3.78,6.39 -7.44,12.84 -10.87,19.43 l -2.58,4.92 -2.45,5 -2.39,5 -2.29,5.09 c -3,6.81 -5.74,13.76 -8.36,20.76 -2.62,7 -5.18,14.08 -7.94,21.19 0.446,-7.612 1.574,-15.169 3.37,-22.58 1.815,-7.408 4.031,-14.712 6.64,-21.88 l 2,-5.36 2.17,-5.22 2.3,-5.25 c 0.8,-1.74 1.59,-3.48 2.42,-5.2 3.321,-6.895 7.037,-13.5928 11.13,-20.06 z"
        fill="#592d3d" />
    <path
        d="m 198.27912,526.84993 -1.6,-15.59 c -0.26,-2.66 -0.59,-5.32 -0.79,-8 -0.07,-1.36 -0.15,-2.72 -0.11,-4.13 -0.007,-1.435 0.0934,-2.869 0.3,-4.29 1.8206,2.2 3.3189,4.648 4.45,7.27 0.57,1.27 1.06,2.57 1.51,3.88 0.45,1.31 0.88,2.63 1.29,4 0.41,1.37 0.76,2.67 1.1,4 0.34,1.33 0.63,2.72 0.89,4.09 0.26,1.37 0.49,2.75 0.65,4.15 0.1886,1.439 0.2921,2.889 0.31,4.34 z"
        fill="#592d3d" />
    <path
        d="m 793.6392,525.36993 c 0.089,-2.242 0.383,-4.472 0.88,-6.66 0.24,-1.07 0.53,-2.14 0.82,-3.2 0.29,-1.06 0.66,-2.11 1,-3.15 0.721,-2.095 1.618,-4.126 2.68,-6.07 1.125,-2.025 2.637,-3.808 4.45,-5.25 0.259,2.217 0.296,4.455 0.11,6.68 -0.09,1 -0.18,2.09 -0.31,3.1 l -0.28,3.08 -0.63,6.1 c -0.22,2 -0.43,4.09 -0.72,5.93 z"
        fill="#592d3d" />
</svg>