<svg id="hair-bold-front" xmlns="http://www.w3.org/2000/svg" viewBox="0 0 1000 1000">
  <path
     fill-rule="evenodd"
     clip-rule="evenodd"
     d="m 499.56006,233.25 c -135.7,0 -247.16624,101.33 -263.9962,232.45 5.8121,-12.87456 44.4298,-135.486 139.1692,-167.9819 94.739,-32.4955 81.172,71.5469 131.455,71.5469 50.282,0 50.282,-111.785 134.022,-65.265 83.739,46.52 124.49555,165.71956 123.91,161.7 -16.83,-131.12 -128.86,-232.45 -264.56,-232.45 z"
     stroke="#592d3d"
     stroke-width="12"
     style="fill:var(--bigheads-color-hair, #d96e27)" />
  <path
     d="m 483.95906,330.874 c -3.101,-5.9614 -6.197,-11.817 -9.939,-17.4441 -3.742,-5.627 -7.875,-11.0839 -12.631,-16.3016 -4.755,-5.2177 -10.038,-10.2287 -15.856,-15.0258 -5.818,-4.7971 -12.153,-9.3847 -18.676,-13.9923 9.032,3.1267 17.068,6.9498 23.957,11.3972 13.94,8.8996 23.83,19.7825 29.155,32.0818 2.692,6.1019 4.03,12.5692 3.99,19.2848 z"
     fill="#ffffff" />
</svg>