<svg id="hair-bun-top" xmlns="http://www.w3.org/2000/svg" viewBox="0 0 1000 1000">
    <path d="M582.054 178.5c0 46.361-37.8 84-84.5 84-46.699 0-84.5-37.639-84.5-84 0-46.36 37.801-84 84.5-84 46.7 0 84.5 37.64 84.5 84z" stroke="#592d3d" stroke-width="12" fill="#d96e27"/>
    <path d="M505.298 112.885a102.597 102.597 0 00-17.484 3.068c-1.437.423-2.88.884-4.297 1.282-1.416.398-2.84 1.002-4.26 1.5l-4.227 1.692c-1.395.623-2.782 1.295-4.173 1.936-5.55 2.706-10.972 5.979-16.228 9.796-5.283 3.876-10.403 8.24-15.33 13.069 4.387-6.056 9.234-11.308 14.437-15.646 5.204-4.401 10.686-8.008 16.364-10.766 1.428-.623 2.852-1.295 4.288-1.899a57.747 57.747 0 014.338-1.611 62.889 62.889 0 014.388-1.245 72.429 72.429 0 014.42-.946 51.776 51.776 0 0117.764-.23z" fill="#fff"/>
</svg>
