<svg id="hair-bun-top" xmlns="http://www.w3.org/2000/svg" viewBox="0 0 1000 1000">
    <path
        d="m 582.05433,178.5 c 0,46.361 -37.801,84 -84.5,84 -46.699,0 -84.5,-37.639 -84.5,-84 0,-46.3606 37.801,-84 84.5,-84 46.699,0 84.5,37.6394 84.5,84 z"
        stroke="#592d3d"
        stroke-width="12"
        fill="#d96e27" />
    <path
        d="m 505.29833,112.8847 c -5.863,0.5082 -11.701,1.5327 -17.484,3.0682 -1.437,0.4232 -2.881,0.8837 -4.297,1.282 -1.416,0.3983 -2.84,1.002 -4.26,1.4998 l -4.227,1.6928 c -1.395,0.6224 -2.782,1.2945 -4.173,1.9355 -5.55,2.7057 -10.972,5.9785 -16.228,9.7957 -5.283,3.8764 -10.403,8.2411 -15.331,13.0692 4.388,-6.056 9.235,-11.3075 14.438,-15.6457 5.204,-4.4013 10.686,-8.0079 16.364,-10.7665 1.428,-0.6224 2.852,-1.2945 4.288,-1.8982 1.437,-0.6037 2.881,-1.1327 4.338,-1.6119 1.457,-0.4792 2.922,-0.8775 4.388,-1.2446 1.465,-0.3672 2.942,-0.6722 4.42,-0.946 5.896,-1.1001 11.856,-1.1773 17.764,-0.2303 z"
        fill="#ffffff" />
</svg>
