<svg id="hair-bun-front" xmlns="http://www.w3.org/2000/svg" viewBox="0 0 1000 1000">
    <path
        d="m 418.57433,245.56 c -86.36,29.06 -157.7401,102.18 -176.4601,185.24 -32.06,126.54 17.83,204.2 62.11,251.8 4.37,4.7 -69.45995,-138.26 -2.43,-241 61.1001,-2.32 152.4201,-14.38 195.7801,-62.86 -4.34,21.13 -16.52,37.26 -14.52,40.44 2.88,4.51 38.19,-5.53 47.84,-23.54 l 0.83,-3.61 c 34.72,12.58 91.76,26.59 144,6.61 123.14,138.3 12.62,291.36 21.63,281.36 44.482,-48.996 69.086,-112.824 69,-179 0,-86.42 -44.28,-148.89 -44.28,-148.89 -30.52,-54.41 -83.52,-91.87 -144.8,-109.11"
        stroke="#592d3d"
        stroke-width="12"
        style="fill:var(--bigheads-color-hair, #d96e27)" />
    <path
        d="m 323.71433,440.38 c 5.38,-52.22 25,-112.5 64.7,-181.9 -2.713,1.253 -5.4,2.547 -8.06,3.88 l -0.59,0.29 c -1.22,0.61 -2.44,1.24 -3.65,1.88 l -1,0.53 c -3.76,2 -7.47,4.077 -11.13,6.23 l -0.9,0.53 c -1.16,0.69 -2.31,1.39 -3.46,2.1 l -0.86,0.54 c -3.58,2.233 -7.1,4.543 -10.56,6.93 l -1.08,0.75 c -1.08,0.76 -2.16,1.52 -3.23,2.29 l -0.65,0.47 c -2.18,1.593 -4.337,3.207 -6.47,4.84 l -0.62,0.48 c -1,0.78 -2,1.58 -3,2.39 l -1.18,0.94 c -1,0.81 -2,1.62 -3,2.45 -2.11,1.75 -4.18,3.55 -6.24,5.37 l -1.14,1 -2.69,2.45 -1.32,1.18 c -2.8467,2.667 -5.6367,5.39 -8.37,8.17 l -1.37,1.41 c -0.8,0.82 -1.59,1.64 -2.37,2.47 l -1.37,1.48 c -1.3667,1.493 -2.7167,2.983 -4.05,4.47 -0.46,0.51 -0.92,1 -1.37,1.54 -0.71,0.81 -1.41,1.63 -2.11,2.46 -0.51,0.59 -1,1.18 -1.51,1.78 -0.68,0.81 -1.36,1.62 -2,2.44 -0.54,0.66 -1.07,1.33 -1.61,2 -1.06,1.33 -2.11,2.66 -3.15,4 -0.55,0.7 -1.09,1.4 -1.62,2.11 -0.53,0.71 -1.2,1.59 -1.79,2.4 l -1.59,2.18 c -0.56,0.78 -1.13,1.55 -1.68,2.33 -0.94,1.34 -1.88,2.69 -2.8,4.05 -0.5,0.73 -1,1.48 -1.48,2.22 -0.48,0.74 -1.11,1.66 -1.65,2.5 -0.54,0.84 -1,1.54 -1.48,2.31 -0.48,0.77 -1.13,1.8 -1.69,2.71 -0.43,0.69 -0.86,1.38 -1.28,2.07 -0.88,1.46 -1.7467,2.927 -2.6,4.4 -0.42,0.72 -0.82,1.44 -1.23,2.16 -0.54,0.95 -1.08,1.91 -1.61,2.87 -0.4,0.73 -0.8,1.46 -1.19,2.19 -0.64,1.19 -1.27,2.39 -1.89,3.59 -0.41,0.78 -0.81,1.56 -1.21,2.34 -0.64,1.28 -1.28,2.55 -1.9,3.84 -0.34,0.69 -0.67,1.39 -1,2.09 -0.52,1.09 -1,2.19 -1.54,3.29 l -0.91,2 c -0.74,1.647 -1.4634,3.313 -2.17,5 -0.22,0.52 -0.43,1.05 -0.65,1.57 -0.53,1.27 -1,2.54 -1.56,3.82 -0.26,0.67 -0.53,1.34 -0.79,2 -0.49,1.26 -1,2.53 -1.45,3.8 l -0.61,1.65 c -0.6667,1.753 -1.2867,3.507 -1.86,5.26 l -0.56,1.7 c -0.44,1.333 -0.87,2.667 -1.29,4 -0.2,0.63 -0.4,1.27 -0.59,1.91 -0.48,1.54 -0.94,3.083 -1.38,4.63 -0.1,0.33 -0.2,0.66 -0.29,1 -0.52,1.84 -1.02,3.687 -1.5,5.54 l -0.45,1.78 c -0.19,0.74 -0.37,1.49 -0.55,2.24 -1.56,6.69 -2.88,13.23 -4,19.64 -0.1,0.65 -0.22,1.3 -0.32,1.95 l -0.24,1.51 c -0.3,1.96 -0.5734,3.923 -0.82,5.89 -0.06,0.43 -0.11003,0.87 -0.16003,1.3 -0.2,1.59 -0.38,3.19 -0.55,4.79 l -0.18,1.81 c -0.17,1.68 -0.32,3.37 -0.45,5.06 l -0.09,1 c -0.15334,2 -0.28,4.017 -0.38,6.05 0,0.53 -0.05,1.07 -0.08,1.6 -0.0733,1.573 -0.13334,3.143 -0.18,4.71 0,0.59 0,1.18 -0.05,1.77 0,2.05 -0.07,4.11 -0.07,6.17 v 0.1 c 0,2.207 0.0267,4.413 0.08,6.62 0,0.76 0.06,1.52 0.08,2.28 0.05,1.47 0.1,2.94 0.17,4.41 0.05,0.89 0.11,1.77 0.16,2.66 0.08,1.33 0.16,2.66 0.25,4 0.07,1 0.16,1.89 0.24,2.83 0.11,1.26 0.21,2.52 0.34,3.77 0.09,1 0.21,1.94 0.31,2.91 0.14,1.21 0.27,2.43 0.42,3.64 0.12003,1 0.26003,2 0.39003,2.95 0.16,1.18 0.33,2.37 0.5,3.55 0.15,1 0.31,2 0.47,3 0.19,1.16 0.37,2.33 0.58,3.49 0.17,1 0.35,2 0.54,3 0.21,1.15 0.43,2.3 0.66,3.44 0.23,1.14 0.4,2 0.61,3 0.24,1.14 0.48,2.27 0.74,3.4 0.26,1.13 0.45,2 0.68,2.93 0.26,1.13 0.54,2.25 0.82,3.36 0.28,1.11 0.49,1.95 0.75,2.91 0.29,1.12 0.59,2.23 0.9,3.34 0.27,1 0.53,1.92 0.81,2.87 0.32,1.11 0.65,2.21 1,3.31 0.35,1.1 0.57,1.89 0.87,2.84 0.3,0.95 0.71,2.19 1.07,3.28 0.31,0.93 0.61,1.87 0.93,2.8 l 1.15,3.27 1,2.74 c 0.41,1.09 0.83,2.18 1.25,3.27 0.34,0.89 0.68,1.79 1,2.68 0.44,1.09 0.89,2.19 1.34,3.28 0.36,0.86 0.71,1.73 1.08,2.59 0.48,1.12 1,2.22 1.46,3.33 0.36,0.83 0.72,1.65 1.09,2.47 0.52,1.16 1.07,2.3 1.61,3.44 0.36,0.77 0.71,1.54 1.08,2.3 0.6,1.26 1.23,2.5 1.86,3.75 l 0.95,1.9 c 1.92,3.74 3.92,7.43 6,11.07 0.36,0.62 0.73,1.23 1.09,1.84 0.7,1.2 1.39,2.4 2.11,3.58 0.44,0.72 0.89,1.42 1.33,2.14 0.66,1.07 1.32,2.14 2,3.19 0.48,0.76 1,1.5 1.47,2.24 0.65,1 1.31,2 2,3 0.51,0.76 1,1.52 1.56,2.28 0.66,1 1.32,1.92 2,2.88 0.54,0.77 1.1,1.53 1.65,2.3 0.55,0.77 1.34,1.85 2,2.77 0.66,0.92 1.15,1.53 1.72,2.29 l 2.07,2.7 c 0.59,0.76 1.19,1.51 1.79,2.26 0.6,0.75 1.41,1.76 2.12,2.63 0.71,0.87 1.23,1.49 1.85,2.23 0.62,0.74 1.44,1.72 2.17,2.57 0.73,0.85 1.27,1.47 1.91,2.2 l 2.22,2.5 c 0.65,0.73 1.31,1.44 2,2.16 l 1.15,1.25 c 2.9,1.92 -68.91,-139.3 -2.51,-241.08 6.92,-0.4 14.22,-0.79 21.88,-1.35 z"
        fill="rgba(0,0,0,.1)" />
    <path
        d="m 654.99433,379.93 c 0,0 -2.1,20.81 -50.63,28.22 23.11,1.6 47.74,-0.46 71.38,-9.51 3.22,3.61 -20.75,-18.71 -20.75,-18.71 z"
        fill="rgba(0,0,0,.1)" />
    <path
        d="m 301.79433,442 c 0,0 -11,1.14 -30.77,-1.89 z"
        fill="#d69ac7" />
    <path
        d="m 302.40433,448 c -0.51,0.08 -0.8101,0.11 -1.19,0.15 -0.38,0.04 -0.71,0.07 -1.07,0.1 -0.7001,0 -1.39,0.08 -2.08,0.08 -1.3701,0 -2.73,0 -4.08,-0.16 -2.6908,-0.229 -5.3633,-0.637 -8,-1.22 -1.31,-0.29 -2.61,-0.59 -3.9,-1 -1.3019,-0.335 -2.5812,-0.753 -3.83,-1.25 -2.6882,-1.052 -5.1494,-2.61 -7.25,-4.59 1.3165,-0.669 2.6924,-1.215 4.11,-1.63 1.2957,-0.388 2.6151,-0.692 3.95,-0.91 2.59,-0.42 5.12,-0.55 7.64,-0.79 2.52,-0.24 5,-0.39 7.45,-0.53 1.22,-0.08 2.44,-0.12 3.63,-0.17 h 1.78 c 0.29,0 0.59,0 0.86,0 0.27,0 0.6,0 0.73,0 z"
        fill="#592d3d" />
    <path
        d="m 674.05433,397.19 c 0,0 -10.71,-14.3 -40.38,-31 z"
        fill="#d69ac7" />
    <path
        d="m 669.19433,400.78 -1.77,-1.91 -2,-2.12 c -1.39,-1.41 -2.82,-2.85 -4.27,-4.25 -2.92,-2.82 -5.95,-5.62 -9,-8.4 -3.05,-2.78 -6.3,-5.44 -9.43,-8.32 -1.56,-1.44 -3.13,-2.91 -4.63,-4.52 -1.581,-1.595 -3.048,-3.299 -4.39,-5.1 2.248,0.273 4.471,0.721 6.65,1.34 2.12,0.631 4.203,1.379 6.24,2.24 2,0.89 4,1.83 5.91,2.91 1.91,1.08 3.84,2.13 5.72,3.29 3.783,2.307 7.401,4.874 10.83,7.68 1.71,1.45 3.43,2.91 5,4.53 0.82,0.79 1.61,1.63 2.39,2.5 0.39,0.45 0.78,0.87 1.16,1.35 0.38,0.48 0.72,0.89 1.22,1.59 z"
        fill="#592d3d" />
    <path
        d="m 517.16433,250.17 c -14.244,0.817 -28.428,2.463 -42.48,4.93 -3.49,0.68 -7,1.42 -10.44,2.06 -3.44,0.64 -6.9,1.61 -10.35,2.41 l -10.27,2.72 c -3.39,1 -6.76,2.08 -10.14,3.11 -13.485,4.348 -26.658,9.606 -39.43,15.74 -12.836,6.229 -25.276,13.242 -37.25,21 10.664,-9.731 22.438,-18.169 35.08,-25.14 12.646,-7.072 25.965,-12.867 39.76,-17.3 3.47,-1 6.93,-2.08 10.42,-3.05 3.49,-0.97 7,-1.82 10.54,-2.59 3.54,-0.77 7.1,-1.41 10.66,-2 3.56,-0.59 7.15,-1.08 10.74,-1.52 14.326,-1.768 28.806,-1.892 43.16,-0.37 z"
        fill="#ffffff" />
    <path
        d="m 526.88433,234.83 c 5.06,-1.21 10.238,-1.854 15.44,-1.92 2.56,-0.06 5.11,0 7.67,0.13 2.56,0.13 5.12,0.3 7.68,0.52 5.154,0.446 10.278,1.181 15.35,2.2 5.135,0.997 10.178,2.416 15.08,4.24 l -3.9,11.35 c -4.61,-1.38 -9.24,-2.78 -13.94,-4.07 -4.7,-1.29 -9.45,-2.51 -14.25,-3.71 l -7.25,-1.76 c -2.43,-0.57 -4.87,-1.15 -7.3,-1.81 -5.007,-1.277 -9.887,-3.008 -14.58,-5.17 z"
        fill="#592d3d" />
    <path
        d="m 409.50433,242.49 c 4.441,-1.718 9.004,-3.105 13.65,-4.15 4.622,-1.055 9.295,-1.873 14,-2.45 2.34,-0.28 4.68,-0.53 7,-0.71 2.32,-0.18 4.69,-0.33 7,-0.34 4.804,-0.073 9.598,0.458 14.27,1.58 -4.199,2.232 -8.594,4.073 -13.13,5.5 -2.19,0.73 -4.39,1.37 -6.59,2 l -6.55,1.93 c -4.34,1.32 -8.67,2.6 -12.94,4 -4.27,1.4 -8.52,2.72 -12.79,4 z"
        fill="#592d3d" />
    <circle
        cx="490.04431"
        cy="233.25"
        r="4.1300001"
        fill="#592d3d" />
    <circle
        cx="506.31433"
        cy="233.25"
        r="5.8400002"
        fill="#592d3d" />
</svg>