<svg id="hair-buzz-front" xmlns="http://www.w3.org/2000/svg" viewBox="0 0 1000 1000">
    <path
        fill-rule="evenodd"
        clip-rule="evenodd"
        d="m 492.57116,233.34222 c -134.949,3.5337 -243.7062,107.7466 -257.0108,239.2596 28.8314,-28.744 51.6707,-62.979 67.1826,-100.703 63.8752,12.272 128.8692,17.663 193.8782,16.08 65.015,-1.667 129.653,-10.454 192.77,-26.205 17.465,36.861 42.065,69.854 72.361,97.049 -20.169,-130.636 -134.232,-229.0144 -269.181,-225.4806 z"
        stroke="#592d3d"
        stroke-width="12"
        fill="#d96e27" />
    <path
        d="m 302.74296,371.89882 c 10.628,2.022 21.3142,3.86 32.0592,5.513 9.624,-35.664 25.145,-74.5641 47.819,-116.9522 -1.306,0.6544 -2.613,1.3089 -3.929,1.9735 l -0.167,0.0844 c -1.286,0.6639 -2.572,1.3378 -3.848,2.0315 l -0.579,0.3052 c -1.197,0.6416 -2.394,1.3031 -3.58,1.9744 l -0.981,0.5559 c -3.687,2.0972 -7.332,4.2634 -10.905,6.5177 l -0.784,0.4907 -0.137,0.0936 c -1.129,0.6965 -2.245,1.4159 -3.346,2.1583 l -0.851,0.5625 c -3.496,2.3256 -6.932,4.7264 -10.311,7.2024 l -1.054,0.7778 c -0.976,0.7358 -1.952,1.4716 -2.927,2.2174 l -0.693,0.5383 -0.146,0.1039 c -2.127,1.6496 -4.226,3.3184 -6.298,5.0066 l -0.604,0.496 c -0.974,0.8057 -1.948,1.6315 -2.921,2.4673 l -1.139,0.9701 -2.344,2.0621 -0.759,0.6701 c -1.994,1.7628 -3.947,3.5545 -5.8896,5.376 l -1.1075,1.0293 -2.611,2.5192 -1.2532,1.1632 c -2.7678,2.7401 -5.4711,5.5352 -8.1099,8.3852 l -0.9683,1.0257 c -0.213,0.2257 -0.4161,0.4511 -0.6189,0.6864 -0.6772,0.7385 -1.3446,1.4755 -2.0116,2.2235 -0.4447,0.502 -0.8888,1.024 -1.3237,1.515 -1.3274,1.502 -2.6343,3.023 -3.9208,4.564 l -0.463,0.563 c -0.2991,0.358 -0.6081,0.716 -0.907,1.084 l -1.9847,2.493 c -0.1058,0.142 -0.2118,0.275 -0.3277,0.408 l -1.1559,1.461 c -0.5878,0.736 -1.1654,1.481 -1.7429,2.226 -0.3756,0.48 -0.7495,1.02 -1.1259,1.47 l -0.6348,0.837 c -1.0193,1.361 -2.0219,2.721 -3.008,4.08 l -0.0673,0.092 c -0.5092,0.694 -1.0086,1.387 -1.5076,2.09 -0.3842,0.531 -0.7582,1.071 -1.1224,1.6 l -0.9597,1.356 -1.1693,1.711 -0.9591,1.376 -1.3498,2.036 c -0.5457,0.824 -1.0814,1.649 -1.6168,2.483 -0.5354,0.834 -1.0609,1.668 -1.5765,2.502 l -0.2392,0.366 -1.4511,2.349 -1.6592,2.765 c -0.4954,0.843 -0.951,1.685 -1.4762,2.529 -0.5428,0.935 -1.0855,1.869 -1.6181,2.813 -0.5325,0.945 -0.9505,1.706 -1.4058,2.558 -0.4554,0.852 -0.8741,1.584 -1.2913,2.375 l -0.5406,1.014 -1.0714,2.029 c -0.3975,0.781 -0.8053,1.552 -1.1928,2.332 -0.1327,0.254 -0.2654,0.507 -0.3881,0.76 -0.3973,0.791 -0.7943,1.592 -1.1813,2.392 -0.3871,0.801 -0.6425,1.307 -0.9437,1.966 l -0.7927,1.651 -0.8756,1.903 c -0.3675,0.79 -0.7352,1.57 -1.0924,2.37 l -0.7707,1.731 -0.2813,0.657 c -0.4135,0.931 -0.8168,1.872 -1.22,2.813 l -0.6744,1.608 c -0.3839,0.921 -0.7576,1.851 -1.1313,2.781 l -0.9333,2.365 c -0.4195,1.081 -0.8191,2.162 -1.2286,3.243 -0.2981,0.778 -0.5865,1.546 -0.8746,2.324 -0.1026,0.263 -0.195,0.535 -0.2874,0.808 -0.325,0.889 -0.6398,1.787 -0.9248,2.685 -0.285,0.898 -0.5655,1.585 -0.8332,2.383 l -0.1479,0.434 c -0.3517,1.009 -0.6835,2.018 -1.0138,3.087 -0.3303,1.069 -0.5896,1.806 -0.9241,2.715 -0.3396,1.09 -0.6696,2.169 -0.9894,3.257 -0.2745,0.918 -0.5491,1.835 -0.8136,2.753 -0.3196,1.098 -0.6195,2.187 -0.9092,3.285 -0.2543,0.927 -0.4988,1.853 -0.7429,2.79 -0.2897,1.098 -0.5792,2.206 -0.8487,3.313 -0.2345,0.927 -0.4587,1.863 -0.6731,2.799 -0.2693,1.117 -0.5286,2.234 -0.7777,3.361 -0.2146,0.926 -0.4088,1.872 -0.6032,2.807 -0.2392,1.127 -0.4781,2.263 -0.7074,3.39 -0.1845,0.935 -0.3588,1.88 -0.5333,2.815 -0.2088,1.146 -0.4274,2.302 -0.6359,3.458 -0.1552,0.914 -0.3004,1.828 -0.4454,2.752 -0.145,0.924 -0.3355,2.01 -0.4883,3.014 l -0.1529,1.004 -0.2758,2.008 c -0.1505,1.095 -0.3106,2.199 -0.4509,3.303 0.006,0.21 -0.0586,0.422 -0.0829,0.633 -0.246,2.007 -0.4721,4.013 -0.6783,6.019 28.8389,-28.754 51.6816,-63.003 67.1915,-100.743 z"
        fill="rgba(0,0,0,.1)" />
    <path
        d="m 499.18816,250.02472 c -12.457,2.0067 -24.714,4.0283 -36.804,6.7257 -12.09,2.6974 -24.02,5.8107 -35.753,9.5792 -11.734,3.7684 -23.294,8.0925 -34.67,12.982 -11.375,4.8894 -22.568,10.3243 -33.875,15.9422 9.546,-8.3501 19.995,-15.5964 31.15,-21.6028 22.384,-12.1705 46.846,-20.0017 72.111,-23.0856 12.555,-1.58 25.245,-1.7613 37.841,-0.5407 z"
        fill="#ffffff" />
</svg>