<svg id="hair-long03-back" xmlns="http://www.w3.org/2000/svg" viewBox="0 0 1000 1000">
    <path
        d="m 499.30331,196 c -166.13998,0 -300.83009,134.68001 -300.83009,300.83001 0,0 -1,121.65 34.43002,222.17 35.43,100.52 -45.23893,122.199 -28.31129,120.7 45.97529,-4.07 53.23759,-57.443 58.13419,-58.945 8.1685,-2.504 -17.2482,89.288 -3.6229,72.455 13.6253,-16.833 27.4384,-34.694 31.49,-47.85 0.9566,-3.106 -3.7886,107.294 7.7081,61.999 11.49599,-45.294 123.74898,-96.367 196.29197,-96.367 48.57099,0 144.89798,61.392 183.62897,84.488 10.296,6.14 21.069,23.12 20.371,19.367 -4.025,-21.637 -8.866,-76.629 -4.841,-59.938 4.025,16.691 38.41399,52.161 34.874,45.216 -16.299,-31.975 -21.108,-95.037 -7.354,-67.747 13.75499,27.289 55.00199,67.371 44.96299,44.091 -10.039,-23.279 -21.084,-80.117 -20.951,-79.754 17.809,48.645 57.91499,63.391 56.189,59.322 -14.964,-35.282 -31.261,-49.792 -16.131,-134.515 15.131,-84.724 14.791,-184.692 14.791,-184.692 C 800.13327,330.68001 665.44328,196 499.30331,196 Z"
        stroke="#592d3d"
        stroke-width="12"
        style="fill:var(--bigheads-color-hair, #d96e27)" />
</svg>