<svg id="hair-long-front" xmlns="http://www.w3.org/2000/svg" viewBox="0 0 1000 1000">
    <path
        d="M558.42,406.88c-12.87,24-60,37.45-63.83,31.42-4.3-6.73,37.85-55.32,13.9-106.14"
        style="fill:var(--bigheads-color-hair, #d96e27);opacity:.5"/>
    <path
        d="M500.15,221.81C369,221.81,247.79,328.25,226,457c0,0,201.33,15.23,274.66-66.75-4.65,22.65-17.72,39.87-15.51,43.33,3.08,4.84,40.92-5.92,51.25-25.22l-3.66-5.48C582.65,421,680.23,443.46,746,375.26,702.52,285,604.61,221.81,500.15,221.81Z"
        style="fill:var(--bigheads-color-hair, #d96e27)"/>
    <path
        d="m 514.27602,227.95219 c -17.41159,1.5609 -34.68724,4.38008 -51.69131,8.43778 l -12.61185,3.32057 c -4.17487,1.21959 -8.30739,2.5483 -12.46119,3.81745 l -12.30159,4.26415 c -4.05783,1.54718 -8.06396,3.17325 -12.10008,4.79996 -16.0433,6.70176 -31.54627,14.62823 -46.37344,23.70752 -14.87265,9.19627 -29.10694,19.38513 -42.60727,30.49849 12.00655,-12.95684 25.44655,-24.506 40.0627,-34.42496 14.62609,-10.0152 30.2452,-18.49727 46.60913,-25.31292 4.13696,-1.58886 8.25264,-3.23729 12.40066,-4.77637 4.21143,-1.38042 8.38031,-2.87995 12.61365,-4.17082 4.23337,-1.29085 8.5312,-2.37304 12.81839,-3.48502 4.28719,-1.11198 8.64036,-1.94529 12.94289,-2.80752 17.35318,-3.35602 35.04144,-4.65472 52.69931,-3.86831 z"
     fill="#592d3d"/>
    <path
        d="M739.66,389.6C665,447,579.07,424.7,533.51,405.69c-10.14,17.94-45.26,27.89-48.15,23.36-2-3.08,8.82-17.65,13.78-37.16-74.28,80.27-259.85,72-259.85,72"
        style="fill:none;stroke:#592d3d;stroke-miterlimit:10;stroke-width:12px"/>
</svg>
