<svg id="hair-long03-back" xmlns="http://www.w3.org/2000/svg" viewBox="0 0 1000 1000">
    <path d="M499.303 196c-166.14 0-300.83 134.68-300.83 300.83 0 0-1 121.65 34.43 222.17 35.43 100.52-45.239 122.199-28.311 120.7 45.975-4.07 53.238-57.443 58.134-58.945 8.169-2.504-17.248 89.288-3.623 72.455 13.626-16.833 27.439-34.694 31.49-47.85.957-3.106-3.788 107.294 7.708 61.999 11.496-45.294 123.75-96.367 196.292-96.367 48.571 0 144.898 61.392 183.63 84.488 10.295 6.14 21.068 23.12 20.37 19.367-4.025-21.637-8.866-76.629-4.84-59.938 4.024 16.691 38.413 52.161 34.873 45.216-16.299-31.975-21.108-95.037-7.354-67.747 13.755 27.289 55.002 67.371 44.963 44.091-10.039-23.279-21.084-80.117-20.95-79.754 17.808 48.645 57.914 63.391 56.188 59.322-14.964-35.282-31.26-49.792-16.13-134.515 15.13-84.724 14.79-184.692 14.79-184.692 0-166.15-134.69-300.83-300.83-300.83z" stroke="#592d3d" stroke-width="12" fill="#d96e27"/>
</svg>
