<svg id="hair-long-front" xmlns="http://www.w3.org/2000/svg" viewBox="0 0 1000 1000">
    <path
        d="M558.42,406.88c-12.87,24-60,37.45-63.83,31.42-4.3-6.73,37.85-55.32,13.9-106.14"
        style="fill:var(--bigheads-color-hair, #d96e27);opacity:.5"/>
    <path
        d="M500.15,221.81C369,221.81,247.79,328.25,226,457c0,0,201.33,15.23,274.66-66.75-4.65,22.65-17.72,39.87-15.51,43.33,3.08,4.84,40.92-5.92,51.25-25.22l-3.66-5.48C582.65,421,680.23,443.46,746,375.26,702.52,285,604.61,221.81,500.15,221.81Z"
        style="fill:var(--bigheads-color-hair, #d96e27)"/>
    <path
        d="m 515.793,231.84929 c -17.46065,0.85186 -34.83662,2.96647 -51.99157,6.32963 l -12.73641,2.80517 c -4.221,1.04888 -8.40411,2.20851 -12.60606,3.30777 l -12.46476,3.76058 c -4.11737,1.38096 -8.18629,2.84284 -12.28519,4.30415 -16.30245,6.04408 -32.11482,13.33383 -47.29879,21.80291 -15.23417,8.58411 -29.87087,18.18595 -43.81178,28.74135 12.52331,-12.45808 26.42166,-23.45137 41.42891,-32.76801 15.02111,-9.41239 30.97209,-17.25256 47.59955,-23.39741 4.19812,-1.41938 8.37741,-2.89915 12.58456,-4.26835 4.26407,-1.20809 8.49046,-2.53692 12.77276,-3.65464 4.28235,-1.11771 8.62061,-2.0243 12.94946,-2.9611 4.32885,-0.93678 8.71229,-1.59246 13.04632,-2.27908 17.47525,-2.64787 35.20168,-3.22649 52.813,-1.72297 z"
     fill="#592d3d"/>
    <path
        d="M739.66,389.6C665,447,579.07,424.7,533.51,405.69c-10.14,17.94-45.26,27.89-48.15,23.36-2-3.08,8.82-17.65,13.78-37.16-74.28,80.27-259.85,72-259.85,72"
        style="fill:none;stroke:#592d3d;stroke-miterlimit:10;stroke-width:12px"/>
</svg>
