<svg id="hair-mohawk-top" xmlns="http://www.w3.org/2000/svg" viewBox="0 0 1000 1000">
    <path
        d="m 499.0269,95.5 c -133.8085,0 -29.6661,118.247 -48.734,248.225 -0.1696,1.156 31.4044,14.399 58.7937,12.775 16.1375,-0.957 27.7815,-23.148 38.8025,-12.775 C 531.0591,212.605 634.7271,95.5 499.0269,95.5 Z"
        stroke="#592d3d"
        stroke-width="12"
        fill="#d96e27" />
    <path
        d="m 460.1292,124.2252 c -0.1833,12.6976 -0.3141,25.2011 0.3003,37.6707 0.6144,12.4697 1.698,24.8618 3.5103,37.1871 1.8123,12.325 4.2439,24.587 7.3071,36.776 3.0633,12.189 6.7368,24.303 10.5827,36.565 -7.0592,-11.052 -12.7848,-22.783 -17.0694,-34.97 -8.7221,-24.48 -12.4737,-50.1699 -11.0593,-75.7328 0.6525,-12.7123 2.8084,-25.2872 6.4283,-37.496 z"
        fill="#ffffff" />
</svg>