<svg id="hair-serious-front" xmlns="http://www.w3.org/2000/svg" viewBox="0 0 1000 1000">
  <path
     d="m 491.00305,237.0659 c -146.15789,1.44735 -243.7992,109.4735 -256.2431,241.0785 12.5979,-12.693 33.3711,-48.371 50.715,-68.33 0,0 93.2791,12.239 170.4991,9.677 137.514,-4.562 161.757,-81.819 177.554,-95.773 23.081,73.785 98.544,109.934 129.132,136.914 -11.071,-68.342 -29.308,-135.863 -81.349,-176.2122 -4.087,-3.1686 -27.208,1.7673 -31.477,-1.1627 -5.802,-3.9818 -3.854,-18.4706 -9.97,-21.9906 -41.496,-23.8832 -97.49027,-24.70971 -148.861,-24.201 z"
     style="fill:var(--bigheads-color-hair, #d69ac7)" />
  <path
     d="m 337.35014,367.07453 c 17.61304,-42.15003 34.81895,-80.74811 61.536,-118.52463 -1.16566,0.46063 -2.33047,0.92142 -3.50458,1.39012 l -0.14899,0.0595 c -1.14839,0.47012 -2.29752,0.94862 -3.43868,1.44454 l -0.51752,0.21703 c -1.07064,0.45742 -2.14186,0.93175 -3.20526,1.41498 l -0.8788,0.40025 c -3.30576,1.51102 -6.57892,3.08304 -9.79692,4.73415 l -0.70554,0.35894 -0.124,0.0693 c -1.01564,0.50842 -2.02182,1.03699 -3.01687,1.58597 l -0.76806,0.41478 c -3.15565,1.71656 -6.2663,3.50041 -9.33199,5.35158 l -0.95741,0.582 c -0.88678,0.55207 -1.77355,1.10413 -2.66106,1.66461 l -0.6303,0.40545 -0.13249,0.0773 c -1.93535,1.2419 -3.84904,2.50187 -5.74103,3.77995 l -0.55195,0.37585 c -0.88931,0.61112 -1.78094,1.23904 -2.67161,1.87547 l -1.04242,0.73807 -2.15107,1.5741 -0.69552,0.51179 c -1.82988,1.34634 -3.62681,2.7198 -5.41579,4.11919 l -1.01955,0.79002 -2.4099,1.94054 -1.1537,0.89276 c -2.55915,2.11535 -5.06682,4.28242 -7.52268,6.49893 l -0.89983,0.79705 c -0.19796,0.17512 -0.38746,0.35097 -0.57724,0.5353 -0.6308,0.57384 -1.25303,1.1493 -1.87567,1.73234 -0.41528,0.39179 -0.8314,0.80046 -1.23774,1.18454 -1.23988,1.17251 -2.46362,2.36336 -3.67112,3.57174 l -0.43503,0.44093 c -0.28076,0.28063 -0.57004,0.56138 -0.85127,0.85044 l -1.87055,1.96168 c -0.10033,0.11245 -0.20024,0.21731 -0.30867,0.32142 l -1.09004,1.14998 c -0.55374,0.57805 -1.09946,1.16612 -1.64513,1.75335 -0.35457,0.37845 -0.71176,0.80754 -1.06488,1.15983 l -0.60106,0.66123 c -0.96594,1.07436 -1.91775,2.14998 -2.85529,3.22683 l -0.0639,0.0724 c -0.48356,0.54859 -0.95864,1.09791 -1.43414,1.65567 -0.36534,0.41991 -0.72253,0.84898 -1.07069,1.26952 l -0.91453,1.07464 -1.11835,1.36028 -0.91539,1.09151 -1.29509,1.6212 c -0.52362,0.65613 -1.03863,1.31299 -1.5541,1.97831 -0.51555,0.66532 -1.02248,1.33138 -1.52094,1.99817 l -0.22988,0.29187 -1.40297,1.87709 -1.6094,2.21255 c -0.48167,0.67591 -0.92917,1.35309 -1.4366,2.0276 -0.5285,0.74894 -1.05699,1.49788 -1.57743,2.25601 -0.52032,0.75814 -0.9302,1.37083 -1.37812,2.05645 -0.44791,0.68563 -0.85643,1.27299 -1.26749,1.91014 l -0.53204,0.81647 -1.05558,1.63363 c -0.39358,0.63022 -0.79524,1.25122 -1.18017,1.88133 -0.13086,0.20388 -0.26179,0.40858 -0.38409,0.61322 -0.39397,0.6378 -0.7884,1.28487 -1.17431,1.93186 -0.38588,0.64695 -0.63912,1.0563 -0.94176,1.58934 l -0.79106,1.3355 -0.8792,1.54226 c -0.36834,0.6392 -0.73621,1.27078 -1.09648,1.91916 l -0.77752,1.40365 -0.28551,0.53453 c -0.41736,0.75527 -0.82655,1.51888 -1.23581,2.28334 l -0.68666,1.30734 c -0.39122,0.74823 -0.77429,1.50565 -1.15745,2.26308 l -0.95951,1.92604 c -0.43261,0.88193 -0.84802,1.7637 -1.27211,2.64554 -0.30804,0.63513 -0.607,1.26088 -0.90642,1.89592 -0.10582,0.21456 -0.20333,0.43745 -0.30083,0.66034 -0.33855,0.72573 -0.66905,1.46061 -0.97388,2.1969 -0.30478,0.73545 -0.59164,1.29531 -0.87493,1.94784 l -0.15594,0.35513 c -0.3696,0.82557 -0.72211,1.65262 -1.07722,2.5295 -0.35518,0.87683 -0.62717,1.47951 -0.97529,2.22219 -0.36448,0.893 -0.72014,1.77914 -1.06765,2.6736 -0.29708,0.75307 -0.59415,1.50615 -0.88279,2.25998 -0.34798,0.90289 -0.67837,1.79887 -1.00062,2.70317 -0.28055,0.763 -0.55239,1.52591 -0.82478,2.29725 -0.32226,0.90429 -0.64499,1.81707 -0.95064,2.73128 -0.26336,0.76366 -0.51864,1.53651 -0.76536,2.30922 -0.30603,0.92184 -0.6036,1.84443 -0.89299,2.77619 -0.24622,0.76432 -0.47637,1.54697 -0.70596,2.32121 -0.28085,0.93166 -0.56219,1.87262 -0.83443,2.80501 -0.22105,0.77414 -0.43404,1.55746 -0.64651,2.33235 -0.2561,0.95077 -0.52115,1.90842 -0.77774,2.86677 -0.19454,0.75952 -0.38045,1.5189 -0.56684,2.28675 -0.18638,0.76783 -0.42273,1.66864 -0.62119,2.50323 l -0.19865,0.83546 -0.37138,1.67142 c -0.20249,0.91053 -0.41404,1.8296 -0.60854,2.74933 -0.01,0.17719 -0.0785,0.35087 -0.11366,0.52667 -0.34558,1.67199 -0.67432,3.3463 -0.98583,5.02042 26.67991,-22.21636 32.67955,-23.02105 48.52229,-53.72101 10.10174,0.20497 24.28694,3.44081 30.39727,3.77498 z m -8.04992,43.84457 c 11.04379,-52.00628 29.0297,-97.93127 57.81509,-144.82877 -1.35856,0.64357 -2.71609,1.28725 -4.08409,1.94108 l -0.17361,0.083 c -1.33702,0.65329 -2.6742,1.31657 -4.00031,1.99972 l -0.60208,0.30053 c -1.24486,0.63165 -2.48896,1.28331 -3.72289,1.94483 l -1.01963,0.54777 c -3.83515,2.06687 -7.6259,4.20302 -11.34364,6.42785 l -0.81536,0.48419 -0.14277,0.0925 c -1.17445,0.68719 -2.33583,1.39738 -3.48206,2.13071 l -0.88556,0.55545 c -3.63728,2.29683 -7.21476,4.66925 -10.73249,7.11737 l -1.09824,0.76914 c -1.0161,0.72774 -2.03221,1.45549 -3.04844,2.19323 l -0.72111,0.53268 -0.15222,0.10266 c -2.2144,1.63202 -4.40123,3.28354 -6.56047,4.95457 l -0.62965,0.49104 c -1.01404,0.79768 -2.02941,1.61545 -3.04286,2.44315 l -1.18675,0.96074 -2.44446,2.04275 -0.79014,0.66388 c -2.07881,1.74633 -4.11575,3.52189 -6.14095,5.32741 l -1.15481,1.02013 -2.72327,2.49767 -1.30685,1.15289 c -2.88723,2.71688 -5.7082,5.49044 -8.46278,8.31799 l -1.01058,1.01816 c -0.22234,0.22373 -0.43445,0.44762 -0.64621,0.68152 -0.70712,0.73161 -1.40384,1.46438 -2.10039,2.20615 -0.4643,0.49819 -0.92818,1.01638 -1.38245,1.50471 -1.38606,1.49065 -2.75116,3.00162 -4.09529,4.5319 l -0.48377,0.55791 c -0.31254,0.3554 -0.6353,0.71167 -0.94768,1.07709 l -2.07445,2.47658 c -0.11056,0.14137 -0.22143,0.27375 -0.34249,0.40597 l -1.20826,1.45128 c -0.61431,0.72999 -1.21816,1.47114 -1.82199,2.21128 -0.39266,0.47724 -0.78407,1.01451 -1.17722,1.46075 l -0.66391,0.83226 c -1.06589,1.35137 -2.11476,2.70301 -3.14639,4.05489 l -0.0703,0.091 c -0.53269,0.68919 -1.05515,1.37854 -1.57736,2.07788 -0.40198,0.52712 -0.79338,1.06438 -1.1747,1.59079 l -1.00421,1.3473 -1.22405,1.70207 -1.00378,1.3673 -1.41349,2.02531 c -0.57146,0.81962 -1.13249,1.63941 -1.69336,2.4692 -0.56098,0.8298 -1.11154,1.65974 -1.65187,2.48984 l -0.25055,0.36432 -1.52078,2.33676 -1.73945,2.75056 c -0.51941,0.83941 -0.99774,1.67743 -1.54813,2.51737 -0.56926,0.92968 -1.13854,1.85936 -1.69733,2.79919 -0.55869,0.93983 -0.99743,1.69843 -1.47548,2.54645 -0.47806,0.84801 -0.91739,1.57659 -1.35544,2.3642 l -0.56766,1.00971 -1.12512,2.01957 c -0.41766,0.77791 -0.84582,1.54565 -1.25315,2.32272 -0.13936,0.25196 -0.27873,0.50492 -0.40776,0.75705 -0.41749,0.78691 -0.83473,1.58481 -1.24175,2.38188 -0.40701,0.79706 -0.67541,1.30215 -0.99238,1.95753 l -0.83356,1.64484 -0.92141,1.89658 c -0.38662,0.78636 -0.77331,1.56373 -1.14946,2.36025 l -0.8114,1.72418 -0.29633,0.65569 c -0.43537,0.92766 -0.86025,1.86447 -1.28514,2.80229 l -0.71071,1.60266 c -0.40467,0.91711 -0.79874,1.84438 -1.19291,2.77165 l -0.98458,2.35669 c -0.44275,1.07856 -0.86486,2.15544 -1.29738,3.23315 -0.31464,0.77643 -0.61919,1.54101 -0.92349,2.3166 -0.10833,0.26242 -0.20609,0.534 -0.30382,0.80559 -0.3434,0.88601 -0.67633,1.78219 -0.97838,2.67781 -0.30205,0.89463 -0.59778,1.58033 -0.88122,2.37522 l -0.15638,0.43273 c -0.37203,1.00662 -0.72341,2.01352 -1.0736,3.07946 -0.3503,1.06593 -0.62448,1.80095 -0.9779,2.70782 -0.36008,1.0858 -0.71013,2.16273 -1.04968,3.24883 -0.2913,0.91479 -0.58259,1.82958 -0.86367,2.74452 -0.3394,1.0961 -0.6583,2.1825 -0.96672,3.27805 -0.2706,0.9251 -0.53076,1.84936 -0.79085,2.7836 -0.30842,1.09556 -0.61668,2.20112 -0.9043,3.30698 -0.24994,0.92441 -0.48939,1.85897 -0.71854,2.79268 -0.28743,1.11487 -0.56466,2.22989 -0.8313,3.35507 -0.22929,0.9237 -0.43772,1.86772 -0.64621,2.80174 -0.25641,1.12433 -0.51256,2.25967 -0.75855,3.38415 -0.19826,0.93316 -0.38605,1.87649 -0.57397,2.80981 -0.22503,1.14479 -0.46021,2.29845 -0.68515,3.45224 -0.16773,0.91362 -0.32512,1.82639 -0.48235,2.74917 -0.15723,0.92277 -0.36288,2.00685 -0.52882,3.0095 l -0.16608,1.00366 -0.30103,2.00576 c -0.16418,1.09269 -0.33854,2.19623 -0.49235,3.29907 0.004,0.21008 -0.0639,0.4211 -0.0908,0.63173 -0.27005,2.00422 -0.51968,4.00975 -0.74865,6.01358 30.08599,-28.51694 37.21388,-29.97963 53.56567,-67.59079 12.13628,-0.62048 35.19342,1.57994 42.55257,1.45282 z"
     fill="#c683b4" />
  <path
     fill-rule="evenodd"
     clip-rule="evenodd"
     d="m 483.21505,231.321 c -135.387,4.4912 -236.0113,115.2184 -248.4551,246.8234 20.6517,-20.807 37.6341,-36.857 52.0853,-70.118 0,0 115.9708,21.327 204.8378,9.281 88.868,-12.046 139.595,-89.067 140.767,-89.367 31.299,74.561 99.622,105.712 130.209,132.692 -11.46,-70.745 -33.569,-138.552 -80.237,-173.6086 -16.615,-10.9204 -30.119,-2.0773 -32.588,-3.7663 -2.562,-1.7528 -1.36,-16.0045 -9.97,-21.9906 -8.61,-5.986 -66.237,-32.9452 -156.649,-29.9459 z"
     stroke="#592d3d"
     style="fill:var(--bigheads-color-hair, #d69ac7)"
     stroke-width="12" />
  <path
     d="m 497.75705,253.7011 c -12.485,2.0951 -24.77,4.2036 -36.883,6.9867 -12.113,2.7832 -24.063,5.9811 -35.81,9.8327 -11.748,3.8517 -23.318,8.2577 -34.699,13.2277 -11.381,4.9701 -22.575,10.4843 -33.882,16.1823 9.522,-8.4177 19.956,-15.7379 31.108,-21.8234 22.377,-12.3291 46.868,-20.3337 72.199,-23.5967 12.587,-1.6691 25.32,-1.9405 37.967,-0.8093 z"
     fill="#ffffff" />
</svg>