<svg id="hair-serious-front" xmlns="http://www.w3.org/2000/svg" viewBox="0 0 1000 1000">
    <path d="M491.003 237.066c-146.158 1.447-243.8 109.473-256.243 241.078 12.598-12.693 33.371-48.37 50.715-68.33 0 0 93.279 12.24 170.499 9.677 137.514-4.562 161.757-81.819 177.554-95.773 23.081 73.785 98.544 109.934 129.132 136.914-11.071-68.342-29.308-135.863-81.349-176.212-4.087-3.168-27.208 1.768-31.477-1.162-5.802-3.982-3.854-18.471-9.97-21.991-41.496-23.883-97.49-24.71-148.861-24.201z" fill="#d96e27"/>
    <path d="M337.35 367.075c17.613-42.15 34.82-80.749 61.536-118.525-1.166.46-2.33.921-3.504 1.39l-.15.06c-1.148.47-2.297.948-3.438 1.444l-.518.217c-1.07.458-2.141.932-3.205 1.415l-.879.4a240.197 240.197 0 00-9.797 4.734l-.705.36-.124.069a85.146 85.146 0 00-3.017 1.586l-.768.414a238.85 238.85 0 00-9.332 5.352l-.957.582c-.887.552-1.774 1.104-2.662 1.665l-.63.405-.132.077a291.322 291.322 0 00-5.741 3.78l-.552.376c-.89.611-1.781 1.24-2.672 1.876l-1.042.738-2.151 1.574-.696.512a230.407 230.407 0 00-5.416 4.119l-1.02.79-2.41 1.94-1.153.893a228.674 228.674 0 00-7.523 6.5l-.9.796c-.197.175-.387.351-.577.535-.63.574-1.253 1.15-1.875 1.733-.416.392-.832.8-1.238 1.184a181.101 181.101 0 00-3.671 3.572l-.435.441c-.28.28-.57.561-.851.85l-1.871 1.962a5.7 5.7 0 01-.309.322l-1.09 1.15c-.553.578-1.1 1.166-1.645 1.753-.354.378-.712.807-1.065 1.16l-.6.66a270.013 270.013 0 00-2.856 3.228l-.064.072a132.22 132.22 0 00-1.434 1.656c-.365.42-.723.849-1.07 1.27l-.915 1.074-1.119 1.36-.915 1.092-1.295 1.621a174.554 174.554 0 00-3.075 3.976l-.23.292-1.403 1.877-1.61 2.213c-.481.676-.929 1.353-1.436 2.028-.529.748-1.057 1.497-1.577 2.256-.52.758-.93 1.37-1.379 2.056-.448.686-.856 1.273-1.267 1.91l-.532.817-1.056 1.633c-.393.63-.795 1.251-1.18 1.882-.13.203-.262.408-.384.613-.394.638-.788 1.285-1.174 1.932-.386.647-.64 1.056-.942 1.589l-.791 1.335-.88 1.543c-.368.639-.736 1.27-1.096 1.919l-.777 1.404-.286.534c-.417.755-.826 1.519-1.236 2.283l-.686 1.308c-.391.748-.775 1.505-1.158 2.263l-.96 1.926c-.432.882-.847 1.764-1.271 2.645-.308.636-.607 1.261-.907 1.896-.106.215-.203.438-.3.66-.34.726-.67 1.461-.974 2.198-.305.735-.592 1.295-.875 1.947l-.156.356c-.37.825-.722 1.652-1.078 2.53a41.32 41.32 0 01-.975 2.221c-.364.893-.72 1.78-1.068 2.674-.297.753-.594 1.506-.882 2.26-.348.903-.679 1.799-1 2.703-.281.763-.553 1.526-.826 2.297-.322.905-.645 1.817-.95 2.732-.264.763-.519 1.536-.766 2.309a150.17 150.17 0 00-.893 2.776c-.246.764-.476 1.547-.706 2.321-.28.932-.562 1.873-.834 2.805-.221.774-.434 1.558-.647 2.333-.256.95-.52 1.908-.777 2.866-.195.76-.38 1.52-.567 2.287-.187.768-.423 1.669-.621 2.503l-.199.836-.371 1.671c-.203.91-.414 1.83-.609 2.75-.01.177-.078.35-.114.526a257.837 257.837 0 00-.985 5.02c26.68-22.216 32.68-23.02 48.522-53.72 10.102.205 24.287 3.44 30.397 3.775zm-8.05 43.844c11.044-52.006 29.03-97.931 57.815-144.829a1307.12 1307.12 0 00-4.084 1.941l-.173.083a211.077 211.077 0 00-4 2l-.603.3a186.483 186.483 0 00-3.723 1.945l-1.02.548a290.16 290.16 0 00-11.343 6.428l-.815.484-.143.093a102.715 102.715 0 00-3.482 2.13l-.886.556a287.723 287.723 0 00-10.732 7.117l-1.098.77a584.603 584.603 0 00-3.049 2.193l-.721.532-.152.103a349.991 349.991 0 00-6.56 4.955l-.63.49c-1.014.798-2.03 1.616-3.043 2.444l-1.187.96-2.444 2.043-.79.664a275.95 275.95 0 00-6.141 5.328l-1.155 1.02-2.724 2.497-1.306 1.153a273.053 273.053 0 00-8.463 8.318l-1.01 1.018c-.223.224-.435.448-.647.682-.707.732-1.404 1.464-2.1 2.206-.465.498-.929 1.016-1.383 1.505a215.622 215.622 0 00-4.095 4.532l-.484.558c-.312.355-.635.711-.948 1.077l-2.074 2.476c-.11.142-.221.274-.342.406l-1.209 1.452c-.614.73-1.218 1.47-1.822 2.21-.392.478-.784 1.015-1.177 1.462l-.664.832a320.7 320.7 0 00-3.146 4.055l-.07.09c-.533.69-1.056 1.38-1.578 2.079a80.475 80.475 0 00-1.175 1.59l-1.004 1.348-1.224 1.702-1.004 1.367-1.413 2.025c-.572.82-1.133 1.64-1.694 2.47a171.3 171.3 0 00-1.651 2.49l-.25.364-1.522 2.336-1.74 2.751c-.519.84-.997 1.677-1.547 2.517-.57.93-1.139 1.86-1.698 2.8-.558.94-.997 1.698-1.475 2.546-.478.848-.917 1.577-1.356 2.364l-.567 1.01-1.125 2.02c-.418.777-.846 1.545-1.253 2.322-.14.252-.28.505-.408.757a172.03 172.03 0 00-1.242 2.382c-.407.797-.675 1.302-.992 1.958l-.834 1.645-.921 1.896c-.387.786-.774 1.564-1.15 2.36l-.811 1.725-.297.655c-.435.928-.86 1.865-1.285 2.803l-.71 1.602c-.405.917-.8 1.845-1.193 2.772l-.985 2.357c-.443 1.078-.865 2.155-1.297 3.233-.315.776-.62 1.54-.924 2.316-.108.263-.206.534-.304.806a64.305 64.305 0 00-.978 2.678c-.302.894-.598 1.58-.881 2.375l-.157.433a88.294 88.294 0 00-1.073 3.08 48.442 48.442 0 01-.978 2.707c-.36 1.086-.71 2.163-1.05 3.249-.291.915-.582 1.83-.863 2.744a131.72 131.72 0 00-.967 3.278c-.27.925-.53 1.85-.79 2.784a171.994 171.994 0 00-.905 3.307c-.25.924-.49 1.859-.719 2.793a175.76 175.76 0 00-.831 3.355c-.23.923-.438 1.867-.646 2.801a393.05 393.05 0 00-.759 3.385c-.198.933-.386 1.876-.574 2.81-.225 1.144-.46 2.298-.685 3.452-.168.913-.325 1.826-.482 2.749-.158.923-.363 2.007-.53 3.01l-.165 1.003-.301 2.006c-.164 1.092-.339 2.196-.493 3.299.004.21-.063.42-.09.631-.27 2.005-.52 4.01-.749 6.014 30.086-28.517 37.214-29.98 53.566-67.59 12.136-.621 35.193 1.58 42.552 1.452z" fill="#c683b4"/>
    <path fill-rule="evenodd" clip-rule="evenodd" d="M483.215 231.321c-135.387 4.491-236.011 115.218-248.455 246.823 20.652-20.807 37.634-36.857 52.085-70.118 0 0 115.971 21.327 204.838 9.281 88.868-12.046 139.595-89.067 140.767-89.367 31.299 74.561 99.622 105.712 130.209 132.692-11.46-70.745-33.569-138.552-80.237-173.608-16.615-10.92-30.119-2.077-32.588-3.766-2.562-1.753-1.36-16.005-9.97-21.991-8.61-5.986-66.237-32.945-156.649-29.946z" stroke="#592d3d" fill="#d96e27" stroke-width="12"/>
    <path d="M497.757 253.701c-12.485 2.095-24.77 4.204-36.883 6.987-12.113 2.783-24.063 5.98-35.81 9.832a391.199 391.199 0 00-34.699 13.228c-11.381 4.97-22.575 10.485-33.882 16.183a169.695 169.695 0 0131.108-21.824 203.479 203.479 0 0172.199-23.597 172.152 172.152 0 0137.967-.809z" fill="#fff"/>
</svg>
