<svg id="hair-short-front" xmlns="http://www.w3.org/2000/svg" viewBox="0 0 1000 1000">
    <path
        fill-rule="evenodd"
        clip-rule="evenodd"
        d="m 282.48317,331.92168 c 9.5377,0 74.7317,-49.9213 176.5344,-13.747 101.803,36.175 167.536,-52.5616 167.536,-52.5616 0,0 -45.267,-51.0934 -157.293,-51.0934 -9.022,0 38.819,20.9497 32.142,21.48 -11.847,0.9409 -72.858,-15.2326 -84.293,-13.5637 -4.878,0.7119 33.299,19.5398 28.496,20.3841 -7.049,1.2393 -70.482,-8.345 -77.3701,-6.8204 -3.079,0.6815 33.6371,17.7195 30.5901,18.458 -5.581,1.3529 -56.0371,9.6112 -61.5101,11.1554 -5.0884,1.4357 37.5248,8.4275 32.53,10.0286 -4.4672,1.4319 -61.4184,15.7129 -65.8108,17.2771 -4.0128,1.429 33.2808,6.046 33.2808,6.046 0,0 -64.37002,32.9569 -54.8323,32.9569 z"
        stroke="#592d3d"
        stroke-width="12"
        fill="#d96e27" />
    <path
        fill-rule="evenodd"
        clip-rule="evenodd"
        d="m 282.48317,331.92168 c 5.1025,0 82.2321,-23.586 82.2321,-23.586 13.5833,-32.7835 51.2773,-68.6749 51.2773,-68.6749 0,0 -44.277,-4.4314 -47.7571,-3.6611 -3.079,0.6815 33.6371,17.7195 30.5901,18.458 -5.581,1.3529 -56.0371,9.6112 -61.5101,11.1554 -5.0884,1.4357 37.5248,8.4275 32.53,10.0286 -4.4672,1.4319 -61.4184,15.7129 -65.8108,17.2771 -4.0128,1.429 33.2808,6.046 33.2808,6.046 0,0 -64.37002,32.9569 -54.8323,32.9569 z"
        fill="rgba(0,0,0,.1)" />
    <path
        fill-rule="evenodd"
        clip-rule="evenodd"
        d="m 734.28457,372.84568 c 0.896,7.067 -25.812,-28.419 -48.384,-41.545 -22.571,-13.126 -54.575,-65.9433 -54.575,-65.9433 0,0 21.751,-9.2857 48.29,16.342 26.538,25.6277 58.849,88.0583 54.669,91.1463 z"
        fill="#d96e27"
        stroke="#592d3d"
        stroke-width="12" />
    <path
        d="m 473.58057,302.15568 c 9.479,-0.4908 18.815,-1.0235 28.142,-2.2952 9.327,-1.2718 18.607,-3.006 27.853,-5.4611 9.247,-2.4551 18.46,-5.5226 27.633,-9.2142 9.173,-3.6916 18.304,-7.986 27.549,-12.4595 -8.414,7.6041 -17.305,13.9184 -26.505,18.8242 -18.48,9.9691 -37.752,15.0608 -56.813,15.0096 -9.48,0.025 -18.823,-1.4519 -27.859,-4.4038 z"
        fill="#ffffff" />
</svg>