<svg id="hair-simple-front" xmlns="http://www.w3.org/2000/svg" viewBox="0 0 1000 1000">
    <path
        d="M558.42,406.88c-12.87,24-60,37.45-63.83,31.42-4.3-6.73,37.85-55.32,13.9-106.14"
        style="fill:var(--bigheads-color-hair, #d96e27);opacity:.5"/>
    <path
        d="M500.15,221.81C369,221.81,247.79,328.25,226,457c0,0,201.33,15.23,274.66-66.75-4.65,22.65-17.72,39.87-15.51,43.33,3.08,4.84,40.92-5.92,51.25-25.22l-3.66-5.48C582.65,421,680.23,443.46,746,375.26,702.52,285,604.61,221.81,500.15,221.81Z"
        style="fill:var(--bigheads-color-hair, #d96e27)"/>
    <path
        d="M331.52,454.81a51.09,51.09,0,0,1-10.35-52.64,51.12,51.12,0,0,1-47.23-58.35c-24.09,33.69-41,72.3-48,113.18A671.08,671.08,0,0,0,331.52,454.81Z"
        style="fill:rgba(0,0,0,.1)"/>
    <path
        d="M739.66,389.6C665,447,579.07,424.7,533.51,405.69c-10.14,17.94-45.26,27.89-48.15,23.36-2-3.08,8.82-17.65,13.78-37.16-74.28,80.27-259.85,72-259.85,72"
        style="fill:none;stroke:#592d3d;stroke-miterlimit:10;stroke-width:12px"/>
</svg>