<svg id="hair-simple-front" xmlns="http://www.w3.org/2000/svg" viewBox="0 0 1000 1000">
    <path
        d="m 561.51955,406.44662 c -13.73082,23.51264 -61.33165,35.21623 -64.93848,29.05993 -4.04051,-6.88268 39.85171,-53.89588 17.78003,-105.55937"
        fill="rgba(0,0,0,.1)" />
    <path
        fill-rule="evenodd"
        clip-rule="evenodd"
     d="m 788.70826,358.24929 c -4.9097,-5.28346 -31.1062,0.69061 -57.14317,-2.3255 -49.27852,-72.33353 -129.44756,-117.57481 -216.84162,-122.36777 -1.6879,-20.55565 0.63124,-37.68219 -1.13883,-40.16873 -2.37034,-3.30908 -15.94424,12.1039 -19.99329,30.28774 -11.35234,-15.42635 -31.27561,-24.16228 -32.00912,-19.98636 -0.47795,2.66428 6.91869,14.35317 13.70441,30.42261 -112.01864,9.37152 -206.32405,84.75615 -242.14062,188.25321 -14.28749,11.40411 -27.58735,19.34208 -27.92329,24.68336 -0.63333,9.90344 38.94066,10.79418 56.25549,9.88805 l 0.002,-0.06 c 60.68226,0.22377 179.38443,-7.21153 238.93188,-64.17775 -6.21582,18.87491 -16.89457,32.56279 -15.04582,35.6326 2.82686,4.77679 38.48445,-3.78233 50.88798,-21.38965 47.24991,21.33575 137.81477,48.24245 219.44508,-8.12417 l 7.58086,-5.13559 c 14.92403,-11.5709 33.4184,-28.40099 25.42806,-35.43205 z"
        stroke="#592d3d"
        stroke-width="12"
        fill="#d96e27" />
    <path
        d="m 514.43587,249.58625 c -14.2645,0.298 -28.49941,1.42653 -42.63249,3.38006 -3.50221,0.54203 -6.997,1.15438 -10.50811,1.66606 -3.51111,0.51168 -6.95436,1.35608 -10.43136,2.02912 l -10.35278,2.34221 c -3.43436,0.87474 -6.84167,1.83052 -10.25751,2.74597 -13.63328,3.85121 -26.99001,8.62028 -39.97992,14.27457 -13.05469,5.756 -25.74333,12.30864 -37.99449,19.62062 11.0153,-9.33062 23.09059,-17.33151 35.97765,-23.83735 12.90032,-6.59472 26.4216,-11.89441 40.36686,-15.82144 3.51431,-0.87181 7.01193,-1.83429 10.52477,-2.66612 3.51284,-0.83184 7.06199,-1.56227 10.63819,-2.21166 3.5762,-0.64939 7.14653,-1.13889 10.72613,-1.60804 3.57959,-0.46914 7.1844,-0.80728 10.77849,-1.12579 14.38095,-1.23616 28.85578,-0.82968 43.14457,1.21179 z"
        fill="#ffffff" />
    <path
     d="m 731.3852,361.92122 c -5.40516,0.042 -10.65687,-0.28069 -15.98412,-0.7262 -5.32725,-0.44551 -10.55834,-1.05761 -15.81317,-1.84069 -2.6276,-0.38655 -5.25447,-0.79308 -7.86804,-1.28918 -2.61358,-0.49611 -5.24008,-0.91263 -7.83963,-1.51829 -5.30028,-1.154 -14.82888,-3.24597 -15.40318,-5.10786 0.64108,-2.47862 10.67423,-1.83009 16.08526,-2.03195 2.6363,-0.12347 5.27003,-0.177 7.90229,-0.19055 l 7.88717,-0.051 c 5.25454,-0.0275 10.49541,0.0446 15.72593,0.12634 5.23052,0.0817 10.47736,0.2641 15.60951,0.57237 z"
        fill="#592d3d" />
    <path
     d="m 238.48269,425.282 c 0,0 -0.009,0.23984 -0.0143,0.38974 l -0.13934,0.52525 -0.32048,1.09899 c -0.23735,0.7418 -0.48541,1.50322 -0.74347,2.26428 -0.52649,1.53173 -1.11439,3.10124 -1.71303,4.69038 -0.59863,1.58913 -1.17948,3.23895 -1.95203,4.93178 -0.43007,0.88383 -0.92281,1.73535 -1.47434,2.54768 -0.63481,0.96539 -1.10159,2.39587 -2.17012,2.69229 -1.96654,-0.58885 -2.84172,-3.46546 -3.51706,-5.60264 -0.30819,-0.95293 -0.52693,-1.93261 -0.65322,-2.9259 -0.17322,-1.00702 -0.23651,-2.01002 -0.32161,-2.96378 -0.12726,-2.001 -0.0536,-4.00965 0.21986,-5.99597 0.13451,-1.00474 0.33142,-2.0002 0.58961,-2.98039 0.13824,-0.49527 0.28647,-0.99017 0.46505,-1.49397 0.0861,-0.25801 0.18557,-0.51154 0.29804,-0.75958 0.11019,-0.27615 0.19747,-0.47309 0.39274,-0.88621 z"
        fill="#592d3d" />
    <path
        d="m 261.47712,456.96588 0.002,-0.06 c 17.0091,0.0633 38.67338,-0.48319 62.27532,-2.55972 4.67735,-55.78607 26.44037,-120.69218 73.1473,-195.89087 l -6.67634,-3.497 c -73.72631,31.02293 -130.82115,91.88164 -157.08068,167.43614 -14.28749,11.40411 -27.58734,19.34208 -27.92329,24.68336 -0.63333,9.90344 38.94066,10.79418 56.25549,9.88805 z"
        fill="rgba(0,0,0,.1)" />
</svg>
