<svg id="hair-stubble-front" xmlns="http://www.w3.org/2000/svg" viewBox="0 0 1000 1000">
  <path
     opacity="0.15"
     d="m 675.44764,307.02378 c 21,19.95 35.55001,38.084 52.5,66.5 16.99999,28.5 24.056,60.403 23.99699,60.501 -0.0589,0.098 -41.36899,-87.036 -100.80996,-86.763 -75.02801,0.303 -59.53101,21.187 -149.967,21.187 -80.06197,0 -67.34795,-11.619 -142.72896,-15.782 -40.95957,-2.262 -100.49096,76.857 -110.93871,81.358 7.44774,-26.501 14.44775,-45.501 28.71304,-68.654 14.2652,-23.153 8.23469,-12.847 8.23469,-12.847 13.50002,-20 25.5,-31.5 32.5,-38.5 4.24799,-4.5442 9.957,-9.2978 14.50001,-13.5 5.49999,-4.5 10.22189,-8 15.49998,-12 5.09401,-3.8602 10.08601,-8.2487 15.652,-11.6594 21.348,-11.727 43.34798,-21.8406 70.84799,-29.3406 6.382,-1.39748 14.295,-3.56183 20.5,-4.5 54.49999,-8.24044 108.49995,-4.5 167.99996,26.5 21.5,11.2017 43.49998,28 53.49997,37.5 z"
     fill="#000000"
     style="stroke-width:1" />
  <ellipse
     rx="4.1102891"
     ry="4.0849299"
     transform="scale(1,-1)"
     fill="#592d3d"
     cx="318.62381"
     cy="-326.60297"
     style="stroke-width:1" />
  <ellipse
     rx="2.9106393"
     ry="2.8926799"
     transform="scale(1,-1)"
     fill="#592d3d"
     cx="345.17346"
     cy="-322.51807"
     style="stroke-width:1" />
  <ellipse
     rx="2.9106393"
     ry="2.8926799"
     transform="scale(1,-1)"
     fill="#592d3d"
     cx="406.67068"
     cy="-278.87378"
     style="stroke-width:1" />
  <ellipse
     rx="2.9106393"
     ry="2.8926799"
     transform="scale(1,-1)"
     fill="#592d3d"
     cx="480.2037"
     cy="-306.89178"
     style="stroke-width:1" />
  <ellipse
     rx="2.9106393"
     ry="2.8926799"
     transform="scale(1,-1)"
     fill="#592d3d"
     cx="521.30566"
     cy="-282.27469"
     style="stroke-width:1" />
  <ellipse
     rx="2.9106393"
     ry="2.8926799"
     transform="scale(1,-1)"
     fill="#592d3d"
     cx="595.74377"
     cy="-307.64429"
     style="stroke-width:1" />
  <ellipse
     rx="2.9106393"
     ry="2.8926799"
     transform="scale(1,-1)"
     fill="#592d3d"
     cx="556.41064"
     cy="-297.87167"
     style="stroke-width:1" />
  <ellipse
     rx="2.9106393"
     ry="2.8926799"
     transform="scale(1,-1)"
     fill="#592d3d"
     cx="544.61169"
     cy="-254.87238"
     style="stroke-width:1" />
  <ellipse
     rx="2.9106393"
     ry="2.8926799"
     transform="scale(1,-1)"
     fill="#592d3d"
     cx="542.60474"
     cy="-339.29779"
     style="stroke-width:1" />
  <ellipse
     rx="5.2804389"
     ry="5.24786"
     transform="scale(1,-1)"
     fill="#592d3d"
     cx="407.29968"
     cy="-315.28638"
     style="stroke-width:1" />
  <ellipse
     rx="2.0551395"
     ry="2.04246"
     transform="scale(1,-1)"
     fill="#592d3d"
     cx="602.73578"
     cy="-279.39178"
     style="stroke-width:1" />
  <ellipse
     rx="4.1102891"
     ry="4.0849299"
     transform="scale(1,-1)"
     fill="#592d3d"
     cx="644.54572"
     cy="-290.50317"
     style="stroke-width:1" />
  <ellipse
     rx="4.1102891"
     ry="4.0849299"
     transform="scale(1,-1)"
     fill="#592d3d"
     cx="467.15466"
     cy="-263.17908"
     style="stroke-width:1" />
  <ellipse
     rx="2.9106393"
     ry="2.8926799"
     transform="scale(1,-1)"
     fill="#592d3d"
     cx="644.54572"
     cy="-322.61578"
     style="stroke-width:1" />
  <ellipse
     rx="2.9106393"
     ry="2.8926799"
     transform="scale(1,-1)"
     fill="#592d3d"
     cx="467.5477"
     cy="-351.93378"
     style="stroke-width:1" />
  <ellipse
     rx="2.9106393"
     ry="2.8926799"
     transform="scale(1,-1)"
     fill="#592d3d"
     cx="506.88071"
     cy="-330.43387"
     style="stroke-width:1" />
  <ellipse
     rx="2.9106393"
     ry="2.8926799"
     transform="scale(1,-1)"
     fill="#592d3d"
     cx="443.94772"
     cy="-342.16077"
     style="stroke-width:1" />
  <ellipse
     rx="2.9106393"
     ry="2.8926799"
     transform="scale(1,-1)"
     fill="#592d3d"
     cx="306.28293"
     cy="-361.70578"
     style="stroke-width:1" />
  <ellipse
     rx="2.9106393"
     ry="2.8926799"
     transform="scale(1,-1)"
     fill="#592d3d"
     cx="692.7287"
     cy="-342.16077"
     style="stroke-width:1" />
  <ellipse
     rx="2.9106393"
     ry="2.8926799"
     transform="scale(1,-1)"
     fill="#592d3d"
     cx="655.45062"
     cy="-312.99957"
     style="stroke-width:1" />
</svg>