<svg id="clothes-dressshirt" xmlns="http://www.w3.org/2000/svg" viewBox="0 0 1000 1000">
    <path d="M618.436 758.25l-42.73.1a119.53 119.53 0 01-1.43 13.48 63.778 63.778 0 01-1.74 6.34c-2.34 6.49-17.26 12-21.49 16.73a48.297 48.297 0 01-4.5 4.43c-25.17 18.2-65.17 19.2-89.48-.58a51.346 51.346 0 01-7.11-7.61c-4.23-5.56-16.4-11.59-18.1-18.94a59.923 59.923 0 01-1.08-6.59 63.305 63.305 0 01-.36-6.8l-45.21-.56c-7.33 0-13.274 5.94-13.28 13.27v284.69c.005 7.33 5.95 13.27 13.28 13.27h238.93c7.33 0 13.27-5.941 13.27-13.27V778.09c0-12.18-5.88-19.84-18.97-19.84z" fill="#fff"/>
    <path d="M452.836 855.49l48.45-24.09 48.58 24.09-37.06-43.02-43.89.83zm184.57-24.09s-22.79 84.54-19.31 234l33.21-31 3.58-137.58c-5.62-72.23-17.48-65.42-17.48-65.42zm-328.69 126.18c.174 13.64.577 28.133 1.21 43.48 15.27.73 43.69.88 57.11 0l4.18-42.81c-10.77-1.26-45.78-1.67-62.5-.67z" fill="rgba(0,0,0,.2)"/>
    <path d="M371.896 831.4l-.5 177.69-13.35.9c-2.97-149.05 13.85-178.59 13.85-178.59z" fill="rgba(0,0,0,.2)"/>
    <path d="M614.616 758.25c67.42 0 78.45 56.28 78.9 133.78v138.22s-50 5.53-55.91 4.59l-.1-142.11m-246.73-134.48c-25.73 0-43.52 8.12-55.71 22.44-19.45 22.87-24.63 61.54-25 108.27v123.77c12.06 3.32 61.36-3.64 61.36-3.64l.49-118.6" stroke="#592d3d" stroke-width="12" stroke-linecap="square" fill="#fff"/>
    <path d="M374.376 1011.33c-1.83 2.61-73.77 1.92-74.67 0-.9-1.92-2.19-37.5 0-41 1.8-2.88 72.11-2.27 74.67 0 2.56 2.27 1.83 38.39 0 41z" fill="#fff" stroke="#592d3d" stroke-width="12" stroke-linecap="square"/>
    <path d="M385.206 1069.48h116.57c-109.19 0-100.91-231.14-129.89-231.14v217.87a13.28 13.28 0 0013.32 13.27z" fill="rgba(0,0,0,.2)"/>
    <path d="M365.926 860.68c-.19-3.67-.11-7.35.06-11 .17-3.65.47-7.34.85-11 .2-1.83.41-3.67.65-5.51.24-1.84.49-3.67.85-5.5a44.047 44.047 0 013.59-11 44.05 44.05 0 013.59 11c.36 1.83.62 3.67.85 5.5.23 1.83.45 3.68.65 5.51.387 3.68.673 7.347.86 11 .16 3.67.24 7.35 0 11z" fill="#592d3d"/>
    <path d="M637.406 869.49v8c.26 34 .26 69 0 102.76v75.94c0 7.329-5.94 13.27-13.27 13.27h-238.93c-7.33 0-13.274-5.94-13.28-13.27v-65.8c-.26-34.86-.26-69.86 0-105.3v-24.71" stroke="#592d3d" stroke-width="12" fill="none"/>
    <path d="M699.196 970.33c2.22 2.26 1.59 38.39 0 41-1.59 2.61-64 1.92-64.77 0-.77-1.92-1.9-37.5 0-41 .27-.5 2.28-.89 5.45-1.18" stroke="#592d3d" stroke-width="12" stroke-linecap="square" fill="#fff"/>
    <path d="M680.696 968.39c3.8.3 15-1.18 15.42-.76z" fill="#fff"/>
    <path d="M680.696 968.39a23.53 23.53 0 011.88-2.16 12.05 12.05 0 011.78-1.47c.575-.382 1.18-.716 1.81-1 .61-.29 1.22-.54 1.83-.79a24.037 24.037 0 013.79-1.18 15.866 15.866 0 012-.31h1.99c.12 0 .44 0 .71.07h.35l.49.11.25.06.2.06.57.21a6.449 6.449 0 012 1.37l4.2 4.29-8.65 8.48-4.12-4.37a5.727 5.727 0 001.91 1.32c.18.08.36.14.54.2h.17l.19.05c.124.04.251.071.38.09h.41-2.72a26.268 26.268 0 01-3.92-.53c-.67-.15-1.34-.3-2-.49a12.552 12.552 0 01-2-.72 10.014 10.014 0 01-2.08-1.32 8.185 8.185 0 01-1.96-1.97z" fill="#592d3d"/>
    <path d="M594.286 763.73l-74.67 54.81 42.14 34.38 59.42-89.24z" fill="rgba(0,0,0,.2)"/>
    <path d="M631.406 869.79c-.19-4.18-.1-8.36.06-12.53s.47-8.36.86-12.53c.2-2.09.4-4.18.64-6.27s.49-4.18.86-6.27a54.839 54.839 0 013.58-12.53 54.364 54.364 0 013.59 12.53c.36 2.09.63 4.18.85 6.27.22 2.09.45 4.18.65 6.27.39 4.17.69 8.35.85 12.53.16 4.18.26 8.35.06 12.53z" fill="#592d3d"/>
    <path d="M385.206 758.35l233.23-.1" stroke="#592d3d" stroke-width="12"/>
    <path d="M531.166 835.64l-22.35-22.34-22.34 22.34 10.98 10.98-9.72 106.63 20.74 16.17 21.42-16.17-9.71-106.63z" fill="rgba(0,0,0,.2)"/>
    <path d="M501.816 813.3v256.18" stroke="#592d3d" stroke-width="6" stroke-linecap="square"/>
    <path d="M501.816 813.3l22.35 15.34-22.35 22.35-22.34-22.35z" fill="#d67070"/>
    <path d="M421.396 758.89s43.27 39.34 74.66 54.81c-15.28 25.21-42.13 34.39-42.13 34.39l-59.43-89.23zm160.76 0s-39.38 41.2-74.66 54.81c10 20.28 42.13 34.37 42.13 34.37l59.43-89.23z" fill="#fff" stroke="#592d3d" stroke-width="12"/>
    <path d="M479.476 828.64l10.98 10.98-9.72 106.63 20.74 16.17 21.42-16.17-9.71-106.63 10.98-10.98" stroke="#592d3d" stroke-width="8" fill="#d67070"/>
    <path d="M639.876 969.15c7.51-.71 21.51-.89 34-.67z" fill="#fff"/>
    <path d="M639.316 963.17a50.941 50.941 0 018.84-.47c2.9.07 5.78.3 8.66.65 1.43.18 2.87.37 4.3.61 1.443.211 2.875.495 4.29.85a27.55 27.55 0 018.5 3.67 30.137 30.137 0 01-8.52 3.5c-1.41.36-2.82.63-4.23.86-1.41.23-2.81.47-4.21.69-2.8.42-5.59.78-8.35 1-2.76.22-5.52.5-8.16.54l-6 .1-1-11.13z" fill="#592d3d"/>
    <circle cx="517.55" cy="983.02" fill="#592d3d" r="4.8"/>
    <path d="M492.666 836.28c-.05-.06 0 0 0 0l.07.05a.902.902 0 01.17.12l.38.29c.25.21.52.42.78.65.53.45 1.09.93 1.7 1.39.61.46 1.27.9 2 1.42a27.441 27.441 0 012.71 2.33 5.61 5.61 0 01-3.13 2.43 9.407 9.407 0 01-3.7.27 10.992 10.992 0 01-3.63-1 9.69 9.69 0 01-1.65-1 8.94 8.94 0 01-1.14-.99l-.2-.21-.25-.29z" fill="#592d3d"/>
</svg>
