<svg id="glasses-pincenez" xmlns="http://www.w3.org/2000/svg" viewBox="0 0 1000 1000">
    <circle opacity=".2" cx="383.34" cy="579.33" r="33.84" fill="#fff"/>
    <path opacity=".4" d="M376.3 615.67l43.31-41.74a147.47 147.47 0 00-7.57-12.9l-45.87 44.21c1.9 1.33 7.98 9.51 10.13 10.43z" fill="#fff"/>
    <circle cx="383.34" cy="579.33" r="33.84" stroke="#592d3d" stroke-width="12" fill="none"/>
    <path d="M378.43 565.14c1.22 3.83-3.5 6.78-7 7.37-3.54 0-5.9-2.36-7.08-5.31-.59-2.95 0-5.9 2.36-7.67 2.95-1.18 7.08-2.36 9.7.67a6.85 6.85 0 012.02 4.94zm6.32-2.26a2.29 2.29 0 01-4.49.19c0-1.77.59-2.36 2.27-2.42a2.22 2.22 0 012.22 2.22z" fill="#fff"/>
    <circle opacity=".2" cx="615.63" cy="579.33" r="33.84" fill="#fff"/>
    <path opacity=".4" d="M610.55 612.78l38.54-38.54c-.21-1.37-5.91-8.1-6.29-9.44l-41.72 41.74c1.35.37 8.1 6.04 9.47 6.24z" fill="#fff"/>
    <circle cx="615.63" cy="579.33" r="33.84" stroke="#592d3d" stroke-width="12" fill="none"/>
    <path d="M607.79 564.58c1 3.25-3 5.75-6 6.25-3 0-5-2-6-4.5-.5-2.5 0-5 2-6.5 2.5-1 6-2 8.23.57a5.847 5.847 0 011.77 4.18zm5.34-1.91a1.94 1.94 0 01-3.8.16c0-1.5.5-2 1.92-2a1.88 1.88 0 011.88 1.84z" fill="#fff"/>
    <path d="M417.17 579.33c55.787-20 110.663-20 164.63 0" fill="none" stroke="#592d3d" stroke-width="12"/>
    <path d="M615.63 619.17c-20.312-.029-37.36-15.312-39.6-35.5-50-17.65-101.46-17.64-153.1 0a39.81 39.81 0 01-50.92 33.84 38 38 0 0054.51-29.91c49.22-16.86 98.28-16.88 145.93 0a38 38 0 0054.51 30 40.003 40.003 0 01-11.33 1.57z" fill="rgba(0,0,0,.15)"/>
</svg>
