<svg id="eyebrow-smiling" xmlns="http://www.w3.org/2000/svg" viewBox="0 0 1000 1000">
    <path d="M650.075 450.006c13.282-.585 30.21 8.072 39.333 11.642 9.123 3.571 38.442 12.593 40.097 7.448a10.19 10.19 0 00-5.9-12.864c-11.035-4.084-58.08-26.043-69.28-26.358-11.145-.243-39.05 12.118-45.5 16.296-6.452 4.179-9.22 6.482-8.046 11.644 1.082 5.379.416 9.377 5.83 8.487 0 0 30.185-15.71 43.466-16.295zm-321.015 3.46c10.015.659 43.486 17.334 53.316 19.36 5.085 1.047 10.952-2.5 11.782-7.841a10.19 10.19 0 00-7.84-11.782c-14.69-3.001-37.737-18.268-52.73-18.325-24.057.116-39.814 18.126-62.409 26.386a10.39 10.39 0 00-5.664 5.007 10.2 10.2 0 00-.46 7.751c2.002 4.983 64.005-20.556 64.005-20.556z" fill="#592d3d"/>
</svg>
