<svg id="hair-afro-top" xmlns="http://www.w3.org/2000/svg" viewBox="0 0 1000 1000">
    <path d="M833.15 369a58.35 58.35 0 00-35.89-54.16 58.56 58.56 0 0025.82-48.77c0-27.77-19-51-44.47-56.88a59.13 59.13 0 007.51-28.9c0-32.19-25.57-58.29-57.12-58.29a55.89 55.89 0 00-24.2 5.49 58.35 58.35 0 00.67-8.92c0-32.21-25.57-58.33-57.12-58.33a56.49 56.49 0 00-43.76 20.86c-1.61-30.74-26.53-55.17-57-55.17A56.9 56.9 0 00497.6 56a56.93 56.93 0 00-50-30.07c-30.5 0-55.42 24.43-57 55.17a56.53 56.53 0 00-43.77-20.86c-31.53 0-57.11 26.11-57.11 58.33a59.65 59.65 0 00.66 8.92 55.76 55.76 0 00-24.17-5.49c-31.54 0-57.12 26.12-57.12 58.33a59 59 0 007.51 28.9c-25.45 5.88-44.46 29.11-44.46 56.88A58.56 58.56 0 00198 314.86a58.83 58.83 0 00-1.13 107.85 58.81 58.81 0 00-14.6 39c0 28.51 20.05 52.25 46.54 57.33-11.51 10.31 545.36 10.93 534.18.55 28.2-3.57 50-28.11 50-57.87a58.87 58.87 0 00-14.61-39A58.4 58.4 0 00833.15 369zM270.81 513.54c-.93-.52-1.89-1-2.85-1.41.97-.57 2.85 1.41 2.85 1.41z" fill="#d96e27"/>
    <path d="M470 505.43a51 51 0 01-85.38-36.67 51.1 51.1 0 01-63.44-66.59 51.18 51.18 0 01-32.54-87.48 51.32 51.32 0 01-1.26-93.62A51.42 51.42 0 01327 136.89h.16a51.55 51.55 0 0150-63.89 53 53 0 015.66.31 56.13 56.13 0 00-36-13.09c-31.54 0-57.11 26.11-57.11 58.33a59.65 59.65 0 00.66 8.92 55.76 55.76 0 00-24.16-5.47c-31.54 0-57.12 26.12-57.12 58.33a59 59 0 007.51 28.9c-25.45 5.88-44.46 29.11-44.46 56.88A58.56 58.56 0 00198 314.86a58.83 58.83 0 00-1.13 107.85 58.81 58.81 0 00-14.6 39c0 28.51 20.05 52.25 46.54 57.33-5.61 5 123.81 7.75 256.66 8A51.14 51.14 0 01470 505.43zM741.2 386l-35 78.16 39.47 58.61c12.24-.91 18.61-2 17.31-3.17 28.2-3.57 50-28.11 50-57.87a60.75 60.75 0 00-.8-9.7c-20-60.64-70.98-66.03-70.98-66.03z" fill="rgba(0,0,0,.1)"/>
    <path d="M833.15 369a58.35 58.35 0 00-35.89-54.16 58.56 58.56 0 0025.82-48.77c0-27.77-19-51-44.47-56.88a59.13 59.13 0 007.51-28.9c0-32.19-25.57-58.29-57.12-58.29a55.89 55.89 0 00-24.2 5.49 58.35 58.35 0 00.67-8.92c0-32.21-25.57-58.33-57.12-58.33a56.49 56.49 0 00-43.76 20.86c-1.61-30.74-26.53-55.17-57-55.17A56.9 56.9 0 00497.6 56a56.93 56.93 0 00-50-30.07c-30.5 0-55.42 24.43-57 55.17a56.53 56.53 0 00-43.77-20.86c-31.53 0-57.11 26.11-57.11 58.33a59.65 59.65 0 00.66 8.92 55.76 55.76 0 00-24.17-5.49c-31.54 0-57.12 26.12-57.12 58.33a59 59 0 007.51 28.9c-25.45 5.88-44.46 29.11-44.46 56.88A58.56 58.56 0 00198 314.86a58.83 58.83 0 00-1.13 107.85 58.81 58.81 0 00-14.6 39c0 28.51 20.05 52.25 46.54 57.33-11.51 10.31 545.36 10.93 534.18.55 28.2-3.57 50-28.11 50-57.87a58.87 58.87 0 00-14.61-39A58.4 58.4 0 00833.15 369z" fill="none" stroke="#592d3d" stroke-miterlimit="10" stroke-width="12"/>
    <path d="M280.92 140.17a53.59 53.59 0 00-20.26 5A45.83 45.83 0 00245 157a18.94 18.94 0 00-1.53 1.92c-.48.66-1 1.28-1.46 2a43.23 43.23 0 00-2.56 4.23 52.32 52.32 0 00-3.9 9.18 62.77 62.77 0 00-2.29 20.8 36.91 36.91 0 01-3.84-22.13l.53-2.86.29-1.44c.11-.47.27-.93.41-1.4.28-.94.56-1.88.87-2.81s.76-1.8 1.14-2.71a43.25 43.25 0 012.76-5.21c.51-.85 1.14-1.61 1.7-2.42a24.27 24.27 0 011.82-2.33 39.88 39.88 0 0119.58-12.56 34.18 34.18 0 0122.4.91zm77.96-63.02a62.84 62.84 0 00-18 2 52.26 52.26 0 00-15.47 7.06A51.64 51.64 0 00313.09 98c-.84 1.18-1.8 2.31-2.53 3.58l-1.21 1.88c-.43.62-.71 1.3-1.09 2a73.25 73.25 0 00-4.1 8.38 28.54 28.54 0 01.39-9.7c.17-.8.27-1.63.52-2.42l.74-2.36a31.32 31.32 0 011.91-4.61A39 39 0 01321 79.59 39.38 39.38 0 01339.89 73a32.35 32.35 0 0118.99 4.15z" fill="#fff"/>
</svg>
