<svg id="hair-balding-front" xmlns="http://www.w3.org/2000/svg" viewBox="0 0 1000 1000">
    <path d="M425.21 298.35a148.609 148.609 0 0135.91-15 151.13 151.13 0 0138.87-5.35 145.158 145.158 0 0139 5.08 138.61 138.61 0 0135.82 15.27 315.92 315.92 0 00-37.19-9.13 210.633 210.633 0 00-37.58-3.22 221.999 221.999 0 00-37.55 3.48 366.923 366.923 0 00-37.28 8.87zm0 27.95a148.61 148.61 0 0135.91-15 151.558 151.558 0 0138.87-5.3 145.15 145.15 0 0139 5 138.612 138.612 0 0135.82 15.27 317.889 317.889 0 00-37.19-9.13 210.644 210.644 0 00-37.54-3.23 221.999 221.999 0 00-37.55 3.48 369.594 369.594 0 00-37.32 8.91z" fill="#592d3d"/>
    <path d="M574.77 326.43a310.562 310.562 0 01-37.2 5.68 413.265 413.265 0 01-37.58 1.89c-12.55 0-25.1-.47-37.6-1.64a270.995 270.995 0 01-37.19-5.91c12.59-.39 25-.34 37.49-.37l37.3-.08 37.29-.13c12.44 0 24.91-.01 37.49.56zm0-27.96a330.877 330.877 0 01-37.24 5.22A454.733 454.733 0 01500 305.4c-12.53.05-25.06-.42-37.56-1.48a287.987 287.987 0 01-37.23-5.45c12.57-.59 25-.7 37.47-.84l37.31-.23c12.42 0 24.85-.06 37.31 0s24.91.3 37.47 1.07z" fill="rgba(0,0,0,.1)"/>
    <path fill-rule="evenodd" clip-rule="evenodd" d="M871.1 498c-94.26-5.93-88.36-172.82-144.1-140.14v0l.42.69c-1.08 8.7-11.09 100.12 26.09 224.1.41-1.25.81-2.51 1.21-3.77 2 5.4 17 39.1 75.81 23.16-40.58-34.22-31.47-75.27-31.47-75.27s44.55 1.32 72.04-28.77z" stroke="#592d3d" stroke-width="12" fill="#d96e27"/>
    <path d="M766.74 498a121.954 121.954 0 011.52 21.66 210.365 210.365 0 01-1.6 21.69c-.468 3.6-1.008 7.193-1.62 10.78-.65 3.57-1.35 7.14-2.16 10.69a191.012 191.012 0 01-6 21l-7.59-2.54c2.11-6.73 4.13-13.49 5.92-20.32l1.32-5.13 1.22-5.16 1.17-5.17 1.07-5.2c1.41-6.94 2.5-13.94 3.53-21 1.03-7.06 2-14.14 3.22-21.3zm-35.9-141.54a199.181 199.181 0 0111.15 20.06c.83 1.72 1.62 3.46 2.42 5.2l2.3 5.25 2.15 5.32 2 5.36a210.5 210.5 0 016.64 21.88 127.547 127.547 0 013.37 22.58c-2.76-7.11-5.29-14.18-7.94-21.19-2.65-7.01-5.32-13.95-8.36-20.76l-2.29-5.09-2.39-5-2.45-5-2.55-4.95c-3.43-6.59-7.09-13-10.87-19.43z" fill="#592d3d"/>
    <path fill-rule="evenodd" clip-rule="evenodd" d="M128.88 498c94.26-5.93 88.36-172.82 144.1-140.14v0l-.42.69c1.08 8.7 11.09 100.12-26.09 224.1-.41-1.25-.81-2.51-1.21-3.77-2 5.4-17 39.1-75.81 23.16 40.58-34.22 31.47-75.27 31.47-75.27s-44.55 1.32-72.04-28.77z" stroke="#592d3d" stroke-width="12" fill="#d96e27"/>
    <path d="M233.24 498c1.22 7.16 2.18 14.24 3.24 21.28 1.06 7.04 2.12 14.05 3.53 21l1.07 5.2 1.17 5.17 1.22 5.16 1.32 5.13c1.79 6.83 3.8 13.59 5.92 20.32l-7.59 2.54a190.792 190.792 0 01-6-21c-.81-3.55-1.51-7.12-2.16-10.69-.65-3.57-1.15-7.18-1.62-10.78a210.086 210.086 0 01-1.6-21.69 121.909 121.909 0 011.5-21.64zm42.75-137.35c-3.78 6.39-7.44 12.84-10.87 19.43l-2.58 4.92-2.45 5-2.39 5-2.29 5.09c-3 6.81-5.74 13.76-8.36 20.76-2.62 7-5.18 14.08-7.94 21.19a127.547 127.547 0 013.37-22.58 210.257 210.257 0 016.64-21.88l2-5.36 2.17-5.22 2.3-5.25c.8-1.74 1.59-3.48 2.42-5.2a198.925 198.925 0 0111.13-20.06zm-77.71 166.2l-1.6-15.59c-.26-2.66-.59-5.32-.79-8-.07-1.36-.15-2.72-.11-4.13a28.84 28.84 0 01.3-4.29 30.11 30.11 0 014.45 7.27 45.76 45.76 0 011.51 3.88c.45 1.31.88 2.63 1.29 4 .41 1.37.76 2.67 1.1 4 .34 1.33.63 2.72.89 4.09.26 1.37.49 2.75.65 4.15a36.91 36.91 0 01.31 4.34zm595.36-1.48a36.63 36.63 0 01.88-6.66c.24-1.07.53-2.14.82-3.2.29-1.06.66-2.11 1-3.15a39.422 39.422 0 012.68-6.07 17.677 17.677 0 014.45-5.25c.258 2.217.295 4.455.11 6.68-.09 1-.18 2.09-.31 3.1l-.28 3.08-.63 6.1c-.22 2-.43 4.09-.72 5.93z" fill="#592d3d"/>
</svg>
