<svg id="hair-bold-front" xmlns="http://www.w3.org/2000/svg" viewBox="0 0 1000 1000">
    <path fill-rule="evenodd" clip-rule="evenodd" d="M499.56 233.25c-135.7 0-247.166 101.33-263.996 232.45 5.812-12.875 44.43-135.486 139.17-167.982 94.738-32.495 81.171 71.547 131.454 71.547 50.282 0 50.282-111.785 134.022-65.265 83.74 46.52 124.496 165.72 123.91 161.7-16.83-131.12-128.86-232.45-264.56-232.45z" stroke="#592d3d" stroke-width="12" fill="#d96e27"/>
    <path d="M483.96 330.874c-3.102-5.961-6.198-11.817-9.94-17.444-3.742-5.627-7.875-11.084-12.63-16.302-4.756-5.217-10.039-10.228-15.857-15.025-5.818-4.798-12.153-9.385-18.676-13.993 9.032 3.127 17.068 6.95 23.957 11.397 13.94 8.9 23.83 19.783 29.155 32.082 2.692 6.102 4.03 12.57 3.99 19.285z" fill="#fff"/>
</svg>
