<svg id="hair-bun-front" xmlns="http://www.w3.org/2000/svg" viewBox="0 0 1000 1000">
    <ellipse cx="498.14" cy="241.53" rx="66.74" ry="15" fill="#d96e27"/>
    <path d="M560.467 225.247c5.484-9.454-28.23-12.467-62.422-12.467-34.192 0-59.025 3.625-59.986 9.363-4.393 26.237-1.5 11.7 66.232 13.314 67.731 1.614 46.877 5.82 56.176-10.21z" fill="rgba(0,0,0,.1)"/>
    <circle cx="490.04" cy="233.25" r="4.13" fill="#592d3d"/>
    <circle cx="506.31" cy="233.25" r="5.84" fill="#592d3d"/>
    <path d="M418.574 245.56c-86.36 29.06-157.74 102.18-176.46 185.24-32.06 126.54 17.83 204.2 62.11 251.8 4.37 4.7-69.46-138.26-2.43-241 61.1-2.32 152.42-14.38 195.78-62.86-4.34 21.13-16.52 37.26-14.52 40.44 2.88 4.51 38.19-5.53 47.84-23.54l.83-3.61c34.72 12.58 91.76 26.59 144 6.61 123.14 138.3 12.62 291.36 21.63 281.36a265.785 265.785 0 0069-179c0-86.42-44.28-148.89-44.28-148.89-30.52-54.41-83.52-91.87-144.8-109.11" stroke="#592d3d" stroke-width="12" fill="#d96e27"/>
    <path d="M323.714 440.38c5.38-52.22 25-112.5 64.7-181.9a280.572 280.572 0 00-8.06 3.88l-.59.29c-1.22.61-2.44 1.24-3.65 1.88l-1 .53c-3.76 2-7.47 4.077-11.13 6.23l-.9.53c-1.16.69-2.31 1.39-3.46 2.1l-.86.54c-3.58 2.233-7.1 4.543-10.56 6.93l-1.08.75c-1.08.76-2.16 1.52-3.23 2.29l-.65.47a361.61 361.61 0 00-6.47 4.84l-.62.48c-1 .78-2 1.58-3 2.39l-1.18.94c-1 .81-2 1.62-3 2.45-2.11 1.75-4.18 3.55-6.24 5.37l-1.14 1-2.69 2.45-1.32 1.18a284.91 284.91 0 00-8.37 8.17l-1.37 1.41c-.8.82-1.59 1.64-2.37 2.47l-1.37 1.48a585.233 585.233 0 00-4.05 4.47c-.46.51-.92 1-1.37 1.54-.71.81-1.41 1.63-2.11 2.46-.51.59-1 1.18-1.51 1.78-.68.81-1.36 1.62-2 2.44-.54.66-1.07 1.33-1.61 2a394.57 394.57 0 00-3.15 4c-.55.7-1.09 1.4-1.62 2.11s-1.2 1.59-1.79 2.4l-1.59 2.18c-.56.78-1.13 1.55-1.68 2.33-.94 1.34-1.88 2.69-2.8 4.05-.5.73-1 1.48-1.48 2.22-.48.74-1.11 1.66-1.65 2.5-.54.84-1 1.54-1.48 2.31s-1.13 1.8-1.69 2.71c-.43.69-.86 1.38-1.28 2.07a300.26 300.26 0 00-2.6 4.4c-.42.72-.82 1.44-1.23 2.16-.54.95-1.08 1.91-1.61 2.87-.4.73-.8 1.46-1.19 2.19-.64 1.19-1.27 2.39-1.89 3.59-.41.78-.81 1.56-1.21 2.34-.64 1.28-1.28 2.55-1.9 3.84-.34.69-.67 1.39-1 2.09-.52 1.09-1 2.19-1.54 3.29l-.91 2a212.682 212.682 0 00-2.17 5c-.22.52-.43 1.05-.65 1.57-.53 1.27-1 2.54-1.56 3.82-.26.67-.53 1.34-.79 2-.49 1.26-1 2.53-1.45 3.8l-.61 1.65a117.845 117.845 0 00-1.86 5.26l-.56 1.7c-.44 1.333-.87 2.667-1.29 4-.2.63-.4 1.27-.59 1.91-.48 1.54-.94 3.083-1.38 4.63-.1.33-.2.66-.29 1-.52 1.84-1.02 3.687-1.5 5.54l-.45 1.78c-.19.74-.37 1.49-.55 2.24-1.56 6.69-2.88 13.23-4 19.64-.1.65-.22 1.3-.32 1.95l-.24 1.51c-.3 1.96-.573 3.923-.82 5.89-.06.43-.11.87-.16 1.3-.2 1.59-.38 3.19-.55 4.79l-.18 1.81c-.17 1.68-.32 3.37-.45 5.06l-.09 1c-.153 2-.28 4.017-.38 6.05 0 .53-.05 1.07-.08 1.6a280.607 280.607 0 00-.18 4.71c0 .59 0 1.18-.05 1.77 0 2.05-.07 4.11-.07 6.17v.1c0 2.207.027 4.413.08 6.62 0 .76.06 1.52.08 2.28.05 1.47.1 2.94.17 4.41.05.89.11 1.77.16 2.66.08 1.33.16 2.66.25 4 .07 1 .16 1.89.24 2.83.11 1.26.21 2.52.34 3.77.09 1 .21 1.94.31 2.91.14 1.21.27 2.43.42 3.64.12 1 .26 2 .39 2.95.16 1.18.33 2.37.5 3.55.15 1 .31 2 .47 3 .19 1.16.37 2.33.58 3.49.17 1 .35 2 .54 3 .21 1.15.43 2.3.66 3.44.23 1.14.4 2 .61 3 .24 1.14.48 2.27.74 3.4s.45 2 .68 2.93c.26 1.13.54 2.25.82 3.36.28 1.11.49 1.95.75 2.91.29 1.12.59 2.23.9 3.34.27 1 .53 1.92.81 2.87.32 1.11.65 2.21 1 3.31s.57 1.89.87 2.84c.3.95.71 2.19 1.07 3.28.31.93.61 1.87.93 2.8l1.15 3.27 1 2.74c.41 1.09.83 2.18 1.25 3.27.34.89.68 1.79 1 2.68.44 1.09.89 2.19 1.34 3.28.36.86.71 1.73 1.08 2.59.48 1.12 1 2.22 1.46 3.33.36.83.72 1.65 1.09 2.47.52 1.16 1.07 2.3 1.61 3.44.36.77.71 1.54 1.08 2.3.6 1.26 1.23 2.5 1.86 3.75l.95 1.9c1.92 3.74 3.92 7.43 6 11.07.36.62.73 1.23 1.09 1.84.7 1.2 1.39 2.4 2.11 3.58.44.72.89 1.42 1.33 2.14.66 1.07 1.32 2.14 2 3.19.48.76 1 1.5 1.47 2.24.65 1 1.31 2 2 3 .51.76 1 1.52 1.56 2.28.66 1 1.32 1.92 2 2.88.54.77 1.1 1.53 1.65 2.3.55.77 1.34 1.85 2 2.77.66.92 1.15 1.53 1.72 2.29l2.07 2.7a367.7 367.7 0 003.91 4.89c.71.87 1.23 1.49 1.85 2.23.62.74 1.44 1.72 2.17 2.57.73.85 1.27 1.47 1.91 2.2l2.22 2.5c.65.73 1.31 1.44 2 2.16l1.15 1.25c2.9 1.92-68.91-139.3-2.51-241.08 6.92-.4 14.22-.79 21.88-1.35zm331.28-60.45s-2.1 20.81-50.63 28.22c23.11 1.6 47.74-.46 71.38-9.51 3.22 3.61-20.75-18.71-20.75-18.71z" fill="rgba(0,0,0,.1)"/>
    <path d="M301.794 442s-11 1.14-30.77-1.89z" fill="#d69ac7"/>
    <path d="M302.404 448c-.51.08-.81.11-1.19.15-.38.04-.71.07-1.07.1-.7 0-1.39.08-2.08.08-1.37 0-2.73 0-4.08-.16a61.025 61.025 0 01-8-1.22c-1.31-.29-2.61-.59-3.9-1a31.769 31.769 0 01-3.83-1.25 22.551 22.551 0 01-7.25-4.59 23.887 23.887 0 014.11-1.63 31.426 31.426 0 013.95-.91c2.59-.42 5.12-.55 7.64-.79 2.52-.24 5-.39 7.45-.53 1.22-.08 2.44-.12 3.63-.17h3.37z" fill="#592d3d"/>
    <path d="M674.054 397.19s-10.71-14.3-40.38-31z" fill="#d69ac7"/>
    <path d="M669.194 400.78l-1.77-1.91-2-2.12c-1.39-1.41-2.82-2.85-4.27-4.25-2.92-2.82-5.95-5.62-9-8.4-3.05-2.78-6.3-5.44-9.43-8.32-1.56-1.44-3.13-2.91-4.63-4.52a47.897 47.897 0 01-4.39-5.1c2.248.273 4.471.721 6.65 1.34a59.967 59.967 0 016.24 2.24c2 .89 4 1.83 5.91 2.91 1.91 1.08 3.84 2.13 5.72 3.29a96.152 96.152 0 0110.83 7.68c1.71 1.45 3.43 2.91 5 4.53.82.79 1.61 1.63 2.39 2.5.39.45.78.87 1.16 1.35.38.48.72.89 1.22 1.59z" fill="#592d3d"/>
    <path d="M517.164 250.17a367.3 367.3 0 00-42.48 4.93c-3.49.68-7 1.42-10.44 2.06-3.44.64-6.9 1.61-10.35 2.41l-10.27 2.72c-3.39 1-6.76 2.08-10.14 3.11a312.792 312.792 0 00-39.43 15.74 347.586 347.586 0 00-37.25 21 183.484 183.484 0 0135.08-25.14 218.28 218.28 0 0139.76-17.3c3.47-1 6.93-2.08 10.42-3.05 3.49-.97 7-1.82 10.54-2.59 3.54-.77 7.1-1.41 10.66-2 3.56-.59 7.15-1.08 10.74-1.52a189.356 189.356 0 0143.16-.37z" fill="#fff"/>
    <path d="M526.884 234.83a70.215 70.215 0 0115.44-1.92c2.56-.06 5.11 0 7.67.13 2.56.13 5.12.3 7.68.52a138.583 138.583 0 0115.35 2.2 95.36 95.36 0 0115.08 4.24l-3.9 11.35c-4.61-1.38-9.24-2.78-13.94-4.07-4.7-1.29-9.45-2.51-14.25-3.71l-7.25-1.76c-2.43-.57-4.87-1.15-7.3-1.81a85.122 85.122 0 01-14.58-5.17zm-117.38 7.66a96.572 96.572 0 0113.65-4.15 138.88 138.88 0 0114-2.45c2.34-.28 4.68-.53 7-.71 2.32-.18 4.69-.33 7-.34a57.376 57.376 0 0114.27 1.58 77.566 77.566 0 01-13.13 5.5c-2.19.73-4.39 1.37-6.59 2l-6.55 1.93c-4.34 1.32-8.67 2.6-12.94 4s-8.52 2.72-12.79 4z" fill="#592d3d"/>
</svg>
