<svg id="hair-buzz-front" xmlns="http://www.w3.org/2000/svg" viewBox="0 0 1000 1000">
    <path fill-rule="evenodd" clip-rule="evenodd" d="M492.571 233.342c-134.949 3.534-243.706 107.747-257.01 239.26a307.105 307.105 0 0067.182-100.703 910.13 910.13 0 00193.878 16.08 890.385 890.385 0 00192.77-26.205 307.096 307.096 0 0072.361 97.049c-20.169-130.636-134.232-229.015-269.18-225.48z" stroke="#592d3d" stroke-width="12" fill="#d96e27"/>
    <path d="M302.743 371.899a919.854 919.854 0 0032.06 5.513c9.623-35.664 25.144-74.564 47.818-116.952-1.306.654-2.613 1.309-3.929 1.973l-.167.085a203.456 203.456 0 00-3.848 2.031l-.579.305a177.901 177.901 0 00-3.58 1.975l-.98.556a278.308 278.308 0 00-10.906 6.517l-.784.49-.137.095a98.33 98.33 0 00-3.346 2.158l-.85.562a277.13 277.13 0 00-10.312 7.203l-1.054.778a524.18 524.18 0 00-2.927 2.217l-.693.538-.146.104a334.842 334.842 0 00-6.298 5.007l-.604.496c-.974.805-1.948 1.631-2.92 2.467l-1.14.97-2.344 2.062-.759.67a271.738 271.738 0 00-5.89 5.376l-1.107 1.03-2.61 2.519-1.254 1.163a268.232 268.232 0 00-8.11 8.385l-.968 1.026c-.213.226-.416.451-.62.686-.676.739-1.344 1.476-2.01 2.224-.446.502-.89 1.024-1.325 1.515a213.832 213.832 0 00-3.92 4.564l-.463.563c-.3.358-.608.716-.907 1.084l-1.985 2.493a6.76 6.76 0 01-.328.408l-1.156 1.46c-.587.737-1.165 1.482-1.743 2.227-.375.48-.749 1.02-1.125 1.47l-.635.837a335.406 335.406 0 00-3.008 4.08l-.068.092c-.509.694-1.008 1.387-1.507 2.09a83.633 83.633 0 00-1.123 1.6l-.96 1.356-1.169 1.71-.959 1.377-1.35 2.036a207.727 207.727 0 00-3.193 4.985l-.239.366-1.451 2.349-1.66 2.765c-.495.843-.95 1.685-1.475 2.529-.543.935-1.086 1.869-1.619 2.813-.532.945-.95 1.706-1.405 2.558-.456.852-.874 1.584-1.292 2.375l-.54 1.014-1.072 2.029c-.397.78-.805 1.552-1.192 2.332-.133.254-.266.507-.389.76a179.45 179.45 0 00-1.18 2.392c-.388.8-.643 1.307-.945 1.966l-.792 1.65-.876 1.904c-.367.79-.735 1.57-1.092 2.37l-.77 1.73-.282.658c-.414.93-.817 1.872-1.22 2.813l-.675 1.608c-.384.92-.757 1.85-1.13 2.78l-.934 2.366c-.42 1.08-.82 2.162-1.229 3.243-.298.778-.586 1.546-.874 2.324-.103.263-.195.535-.288.808-.325.889-.64 1.787-.925 2.685-.285.898-.565 1.585-.833 2.383l-.148.434a90.108 90.108 0 00-1.014 3.087 49.308 49.308 0 01-.924 2.715c-.34 1.09-.67 2.169-.989 3.257-.275.918-.55 1.835-.814 2.753-.32 1.098-.62 2.187-.909 3.285-.254.927-.499 1.853-.743 2.79-.29 1.098-.579 2.206-.848 3.313-.235.927-.46 1.863-.674 2.799a184.28 184.28 0 00-.777 3.36c-.215.927-.409 1.873-.603 2.808-.24 1.127-.479 2.263-.708 3.39-.184.935-.359 1.88-.533 2.815-.209 1.146-.428 2.302-.636 3.458-.155.914-.3 1.828-.445 2.752-.145.924-.336 2.01-.489 3.014l-.153 1.004-.275 2.008c-.15 1.095-.311 2.199-.451 3.303.006.21-.059.422-.083.633a310.104 310.104 0 00-.679 6.019 307.086 307.086 0 0067.192-100.743z" fill="rgba(0,0,0,.1)"/>
    <path d="M499.188 250.025c-12.457 2.006-24.714 4.028-36.804 6.725-12.09 2.698-24.02 5.811-35.753 9.58a388.877 388.877 0 00-34.67 12.982c-11.375 4.889-22.568 10.324-33.875 15.942a169.028 169.028 0 0131.15-21.603 202.26 202.26 0 0172.111-23.086 170.974 170.974 0 0137.841-.54z" fill="#fff"/>
</svg>
