<svg id="hair-long-front" xmlns="http://www.w3.org/2000/svg" viewBox="0 0 1000 1000">
    <path d="M558.42 406.88c-12.87 24-60 37.45-63.83 31.42-4.3-6.73 37.85-55.32 13.9-106.14" fill="#d96e27" opacity=".5"/>
    <path d="M500.15 221.81C369 221.81 247.79 328.25 226 457c0 0 201.33 15.23 274.66-66.75-4.65 22.65-17.72 39.87-15.51 43.33 3.08 4.84 40.92-5.92 51.25-25.22l-3.66-5.48C582.65 421 680.23 443.46 746 375.26 702.52 285 604.61 221.81 500.15 221.81z" fill="#d96e27"/>
    <path d="M515.793 231.85a361.919 361.919 0 00-51.992 6.329l-12.736 2.805c-4.221 1.049-8.404 2.209-12.606 3.308l-12.465 3.76c-4.117 1.381-8.186 2.843-12.285 4.305a339.08 339.08 0 00-47.299 21.803 388.617 388.617 0 00-43.812 28.74 232.979 232.979 0 0141.43-32.767 258.224 258.224 0 0147.599-23.398c4.198-1.419 8.377-2.899 12.584-4.268 4.265-1.208 8.49-2.537 12.773-3.655 4.283-1.117 8.62-2.024 12.95-2.96 4.329-.937 8.712-1.593 13.046-2.28a224.855 224.855 0 0152.813-1.723z" fill="#592d3d"/>
    <path d="M739.66 389.6C665 447 579.07 424.7 533.51 405.69c-10.14 17.94-45.26 27.89-48.15 23.36-2-3.08 8.82-17.65 13.78-37.16-74.28 80.27-259.85 72-259.85 72" fill="none" stroke="#592d3d" stroke-miterlimit="10" stroke-width="12"/>
</svg>
