<svg id="hair-mohawk-top" xmlns="http://www.w3.org/2000/svg" viewBox="0 0 1000 1000">
    <path d="M499.027 95.5c-133.809 0-29.666 118.247-48.734 248.225-.17 1.156 31.404 14.399 58.794 12.775 16.137-.957 27.781-23.148 38.802-12.775C531.06 212.605 634.727 95.5 499.027 95.5z" stroke="#592d3d" stroke-width="12" fill="#d96e27"/>
    <path d="M460.13 124.225c-.184 12.698-.315 25.201.3 37.67.614 12.47 1.698 24.863 3.51 37.188a374.108 374.108 0 007.307 36.776c3.063 12.189 6.737 24.303 10.583 36.565-7.06-11.052-12.785-22.783-17.07-34.97-8.722-24.48-12.474-50.17-11.06-75.733a160.848 160.848 0 016.43-37.496z" fill="#fff"/>
</svg>
