<svg id="hair-short-front" xmlns="http://www.w3.org/2000/svg" viewBox="0 0 1000 1000">
    <path fill-rule="evenodd" clip-rule="evenodd" d="M282.483 331.922c9.538 0 74.732-49.922 176.535-13.747s167.536-52.562 167.536-52.562-45.267-51.093-157.293-51.093c-9.022 0 38.819 20.95 32.142 21.48-11.847.94-72.858-15.233-84.293-13.564-4.878.712 33.299 19.54 28.496 20.384-7.05 1.24-70.482-8.345-77.37-6.82-3.08.681 33.637 17.72 30.59 18.458-5.581 1.353-56.038 9.61-61.51 11.155-5.089 1.436 37.524 8.428 32.53 10.029-4.468 1.432-61.419 15.713-65.811 17.277-4.013 1.429 33.28 6.046 33.28 6.046s-64.37 32.957-54.832 32.957z" stroke="#592d3d" stroke-width="12" fill="#d96e27"/>
    <path fill-rule="evenodd" clip-rule="evenodd" d="M282.483 331.922c5.103 0 82.232-23.586 82.232-23.586 13.584-32.784 51.278-68.675 51.278-68.675s-44.277-4.432-47.758-3.661c-3.079.681 33.638 17.72 30.59 18.458-5.58 1.353-56.037 9.61-61.51 11.155-5.088 1.436 37.525 8.428 32.53 10.029-4.467 1.432-61.418 15.713-65.81 17.277-4.013 1.429 33.28 6.046 33.28 6.046s-64.37 32.957-54.832 32.957z" fill="rgba(0,0,0,.1)"/>
    <path fill-rule="evenodd" clip-rule="evenodd" d="M734.285 372.846c.896 7.067-25.812-28.42-48.384-41.545-22.571-13.126-54.575-65.944-54.575-65.944s21.75-9.285 48.29 16.342c26.538 25.628 58.849 88.059 54.669 91.147z" fill="#d96e27" stroke="#592d3d" stroke-width="12"/>
    <path d="M473.58 302.156c9.48-.491 18.816-1.024 28.143-2.296 9.327-1.271 18.607-3.006 27.853-5.46a236.605 236.605 0 0027.633-9.215c9.173-3.691 18.304-7.986 27.549-12.46-8.414 7.605-17.305 13.92-26.505 18.825-18.48 9.969-37.752 15.06-56.813 15.01a88.67 88.67 0 01-27.86-4.404z" fill="#fff"/>
</svg>
