<svg id="hair-simple-front" xmlns="http://www.w3.org/2000/svg" viewBox="0 0 1000 1000">
    <path d="M561.52 406.447c-13.731 23.512-61.332 35.216-64.939 29.06-4.04-6.883 39.852-53.896 17.78-105.56" fill="rgba(0,0,0,.1)"/>
    <path fill-rule="evenodd" clip-rule="evenodd" d="M788.708 358.25c-4.91-5.284-31.106.69-57.143-2.326-49.278-72.334-129.447-117.575-216.842-122.368-1.687-20.556.632-37.682-1.138-40.169-2.37-3.309-15.945 12.104-19.994 30.288-11.352-15.426-31.275-24.162-32.009-19.986-.478 2.664 6.919 14.353 13.705 30.422-112.019 9.372-206.324 84.756-242.141 188.253-14.287 11.405-27.587 19.343-27.923 24.684-.634 9.903 38.94 10.794 56.255 9.888l.002-.06c60.682.224 179.385-7.212 238.932-64.178-6.216 18.875-16.894 32.563-15.046 35.633 2.827 4.777 38.485-3.783 50.888-21.39 47.25 21.336 137.815 48.243 219.445-8.124l7.581-5.136c14.924-11.57 33.419-28.4 25.428-35.432z" stroke="#592d3d" stroke-width="12" fill="#d96e27"/>
    <path d="M514.436 249.586a367.408 367.408 0 00-42.633 3.38c-3.502.542-6.997 1.155-10.508 1.666-3.51.512-6.954 1.356-10.431 2.03l-10.353 2.342c-3.434.874-6.842 1.83-10.257 2.746a314.145 314.145 0 00-39.98 14.274 348.383 348.383 0 00-37.995 19.62 183.857 183.857 0 0135.978-23.836 219.243 219.243 0 0140.367-15.822c3.514-.872 7.012-1.834 10.524-2.666a205.511 205.511 0 0110.639-2.212c3.576-.65 7.146-1.139 10.726-1.608 3.58-.469 7.184-.807 10.778-1.126a189.998 189.998 0 0143.145 1.212z" fill="#fff"/>
    <path d="M731.385 361.921c-5.405.042-10.657-.28-15.984-.726a245.879 245.879 0 01-15.813-1.84c-2.628-.387-5.255-.794-7.868-1.29-2.614-.496-5.24-.912-7.84-1.518-5.3-1.154-14.829-3.246-15.403-5.108.641-2.479 10.674-1.83 16.085-2.032 2.637-.123 5.27-.177 7.903-.19l7.887-.051c5.254-.028 10.495.044 15.726.126 5.23.082 10.477.264 15.61.572zm-492.902 63.361l-.015.39-.139.525-.32 1.099a138.51 138.51 0 01-.744 2.264 172.863 172.863 0 01-1.713 4.69c-.599 1.59-1.18 3.24-1.952 4.932-.43.884-.923 1.736-1.474 2.548-.635.965-1.102 2.396-2.17 2.692-1.967-.588-2.842-3.465-3.517-5.602a16.114 16.114 0 01-.654-2.926c-.173-1.007-.236-2.01-.321-2.964a30.001 30.001 0 01.22-5.996c.134-1.005.331-2 .59-2.98.137-.496.286-.99.464-1.494a7.98 7.98 0 01.298-.76c.11-.276.198-.473.393-.886z" fill="#592d3d"/>
    <path d="M261.477 456.966l.002-.06c17.01.063 38.674-.483 62.275-2.56 4.678-55.786 26.44-120.692 73.148-195.89l-6.677-3.498a282.151 282.151 0 00-157.08 167.436c-14.288 11.405-27.588 19.343-27.924 24.684-.633 9.903 38.941 10.794 56.256 9.888z" fill="rgba(0,0,0,.1)"/>
</svg>
