<svg id="eyebrow-angry" xmlns="http://www.w3.org/2000/svg" viewBox="0 0 1000 1000">
    <path d="M588.037 457.896c11.377.657 22.782.701 34.164.134l-2.678.164c13.269-.807 26.48-2.856 39.11-7.114l-2.542.861c3.123-1.075 6.229-2.23 9.369-3.267l-2.542.86a220.945 220.945 0 0027.772-11.622c4.643-2.319 11.226-.42 13.41 4.524a10.19 10.19 0 01-4.525 13.41 239.198 239.198 0 01-32.66 13.255l2.542-.86a142.992 142.992 0 01-32.453 8.294 235.076 235.076 0 01-33.351 1.848c-5.732-.037-11.458-.249-17.177-.532-5.225-.258-9.847-5.482-9.218-10.739a10.19 10.19 0 0110.738-9.218zM300.497 438.91a202.561 202.561 0 0027.531 11.657l-2.542-.861a195.53 195.53 0 0050.451 9.725l-2.678-.164c10.02.567 20.069.443 30.073-.369 5.176-.42 10.566 3.817 10.739 9.219a10.19 10.19 0 01-9.22 10.738 227.252 227.252 0 01-44.856-.875 208.269 208.269 0 01-68.44-21.158 10.39 10.39 0 01-5.012-5.66 10.2 10.2 0 01.487-7.75c2.595-4.7 8.413-7.064 13.41-4.524z" fill="#592d3d"/>
</svg>
