<svg id="eyebrow-angry" xmlns="http://www.w3.org/2000/svg" viewBox="0 0 1000 1000">
  <path
     d="m 588.03671,457.89608 c 11.377,0.6565 22.782,0.7011 34.164,0.1338 l -2.678,0.164 c 13.269,-0.8068 26.481,-2.8554 39.111,-7.1135 l -2.543,0.861 c 3.123,-1.0755 6.229,-2.2296 9.369,-3.2677 l -2.542,0.8609 c 9.511,-3.2384 18.79,-7.12168 27.772,-11.62275 4.643,-2.3185 11.226,-0.41976 13.41,4.52444 2.348,4.95901 0.348,10.88681 -4.525,13.40971 -10.546,5.2157 -21.462,9.6462 -32.66,13.2555 l 2.542,-0.861 c -10.455,4.0268 -21.348,6.8109 -32.453,8.2949 -11.059,1.4058 -22.204,2.0232 -33.351,1.8474 -5.732,-0.0369 -11.458,-0.2483 -17.177,-0.5322 -5.225,-0.2577 -9.847,-5.4818 -9.218,-10.7383 0.514,-5.4627 5.261,-9.5378 10.738,-9.2184 z"
     fill="#592d3d" />
  <path
     d="m 300.49681,438.90926 c 8.8775,4.5587 18.0797,8.45512 27.5315,11.65742 l -2.5424,-0.8609 c 16.3161,5.4468 33.2796,8.7167 50.4512,9.7252 l -2.6779,-0.164 c 10.0205,0.5666 20.0685,0.4435 30.0725,-0.3686 5.176,-0.4202 10.566,3.8162 10.739,9.2184 0.319,5.4775 -3.756,10.2244 -9.219,10.7383 -14.944,1.1886 -29.9698,0.8954 -44.8568,-0.8752 -23.8642,-3.0468 -47.0201,-10.2052 -68.4403,-21.1578 -2.32223,-1.1904 -4.11147,-3.2111 -5.01204,-5.6603 -0.86546,-2.5464 -0.69022,-5.3315 0.4876,-7.74935 2.59472,-4.70128 8.41254,-7.0646 13.40964,-4.52444 z"
     fill="#592d3d" />
</svg>
