<svg id="eyebrow-neutral" xmlns="http://www.w3.org/2000/svg" viewBox="0 0 1000 1000">
  <path
     d="m 604.45628,469.82008 c 11.043,-2.8153 22.229,-5.0352 33.51,-6.6501 l -2.66,0.35 c 13.18,-1.74 26.54,-2.25 39.75,-0.48 l -2.66,-0.36 c 3.27,0.46 6.54,1 9.82,1.42 l -2.66,-0.3599 c 9.954,1.3641 19.804,3.4055 29.48,6.1099 5,1.39 11.1,-1.73 12.3,-7 1.359,-5.3159 -1.736,-10.7532 -7,-12.29995 -11.347,-3.10757 -22.909,-5.37372 -34.59,-6.78 l 2.66,0.36 c -11.032,-1.95778 -22.255,-2.61227 -33.44,-1.95 -11.124,0.73016 -22.182,2.25066 -33.09,4.55 -5.62,1.13 -11.2,2.43 -16.76,3.8 -5.08,1.24995 -8.62,7.25995 -7,12.29995 1.547,5.2643 6.984,8.3587 12.3,7 z"
     fill="#592d3d" />
  <path
     d="m 289.70628,469.84998 c 9.5842,-2.781 19.3609,-4.85 29.25,-6.19 l -2.66,0.36 c 17.0557,-2.2334 34.3314,-2.2065 51.38,0.08 l -2.66,-0.35 c 9.9449,1.3559 19.785,3.3941 29.45,6.1 5,1.4 11.1,-1.73 12.3,-7 1.359,-5.3159 -1.736,-10.7532 -7,-12.29996 -14.443,-4.01827 -29.2487,-6.5975 -44.2,-7.7 -24.0071,-1.5627 -48.1035,1.04587 -71.21997,7.71 -2.5067,0.72546 -4.64863,2.36756 -6,4.59996 -1.33542,2.3345 -1.69482,5.1019 -0.99999,7.7 1.64999,5.11 6.90999,8.54 12.29996,7 z"
     fill="#592d3d" />
</svg>
