<svg id="eyebrow-neutral" xmlns="http://www.w3.org/2000/svg" viewBox="0 0 1000 1000">
    <path d="M604.456 469.82a318.14 318.14 0 0133.51-6.65l-2.66.35c13.18-1.74 26.54-2.25 39.75-.48l-2.66-.36c3.27.46 6.54 1 9.82 1.42l-2.66-.36a220.981 220.981 0 0129.48 6.11c5 1.39 11.1-1.73 12.3-7a10.19 10.19 0 00-7-12.3 239.196 239.196 0 00-34.59-6.78l2.66.36a143 143 0 00-33.44-1.95 235.075 235.075 0 00-33.09 4.55c-5.62 1.13-11.2 2.43-16.76 3.8-5.08 1.25-8.62 7.26-7 12.3a10.19 10.19 0 0012.3 7zm-314.75.03a202.57 202.57 0 0129.25-6.19l-2.66.36a195.535 195.535 0 0151.38.08l-2.66-.35a218.944 218.944 0 0129.45 6.1c5 1.4 11.1-1.73 12.3-7a10.19 10.19 0 00-7-12.3 227.256 227.256 0 00-44.2-7.7 208.27 208.27 0 00-71.22 7.71 10.39 10.39 0 00-6 4.6 10.2 10.2 0 00-1 7.7c1.65 5.11 6.91 8.54 12.3 7z" fill="#592d3d"/>
</svg>
