<svg id="eyebrow-smiling" xmlns="http://www.w3.org/2000/svg" viewBox="0 0 1000 1000">
  <path
     d="m 650.07546,450.00577 c 13.282,-0.5847 30.21,8.0718 39.333,11.6427 9.123,3.5709 38.442,12.5926 40.097,7.4473 1.817,-5.1773 -0.792,-10.8636 -5.901,-12.8633 -11.034,-4.0848 -58.079,-26.04391 -69.279,-26.35896 -11.145,-0.24214 -39.05,12.11866 -45.501,16.29696 -6.451,4.1782 -9.22,6.4811 -8.045,11.6431 1.082,5.379 0.416,9.3772 5.83,8.487 0,0 30.185,-15.7102 43.466,-16.2948 z"
     fill="#592d3d" />
  <path
     d="m 329.05966,453.46607 c 10.0152,0.6588 43.4868,17.3343 53.3168,19.3595 5.085,1.0478 10.952,-2.5001 11.782,-7.841 0.984,-5.3977 -2.482,-10.6059 -7.841,-11.7817 -14.689,-3.001 -37.7369,-18.2677 -52.7287,-18.3245 -24.0576,0.1157 -39.8144,18.1253 -62.40969,26.3857 -2.45,0.8986 -4.47216,2.6861 -5.66451,5.0074 -1.16933,2.4219 -1.33481,5.2076 -0.46044,7.751 2.00244,4.9824 64.00554,-20.5564 64.00554,-20.5564 z"
     fill="#592d3d" />
</svg>
