<svg id="facialhair-big" xmlns="http://www.w3.org/2000/svg" viewBox="0 0 1000 1000">
  <path
     d="m 667.90234,783.56892 c 2.2,-2.213 4.367,-4.45 6.5,-6.71 45.16,-54.71 48.7,-112.3901 57.87,-148.3701 v -14.23996 l -2.44,0.84 c 0.83,-1.52 1.65,-3 2.44,-4.56 -0.06,-0.1 -3.49,3.38 -3.55,3.28 -1.585,1.29896 -3.285,2.45046 -5.08,3.43996 l -32.55,11.28 c -14.466,2.7363 -29.169,4.016 -43.89,3.82 -63,-0.26 -77.907,-13.5111 -113.2,-19.99996 -35.292,-6.48887 -76.95,-1.23 -96.49,1.58 -19.54,2.80996 -37.06,11.80996 -87.9999,12.84996 -44.15,0.9 -83.6201,-10 -83.6201,-10 v 12.68 c 14,36.84 4.58,64.43 29,110.4901 0,-0.65 0,-1.31 -0.05,-2 -4.3899,-21.71 0,-41.5701 2.12,-49.1901 0.21,-1.88 0.36,-2.92 0.36,-2.92 v -0.07 c 0,-0.12 0,-0.2 0,-0.2 v 0.1 c 0,0.14 0.11,0.45 0.22,0.9 0.23,-0.72 0.36,-1.11 0.36,-1.11 0,0 0.89,4.91 2.54,12.74 3.93,15.4801 11.16,43.0001 19.45,70.0801 0.92,2.43 1.87,4.81 2.84,7.11 0.07,0.21 0.15,0.44 0.23,0.65 27.9401,29.88 62.13,55.36 93.14,74.5 3.34,2 6.51,3.87 9.48,5.61 -2.849,-14.326 -2.02,-29.141 2.41,-43.06 0,0 0.07,0.38 0.21,1.08 0.24,-0.77 0.4,-1.19 0.4,-1.19 0,0 11.43,47.45 34.52,62.83 0.57,0.24 1.15,0.47 1.73,0.66 l -0.44,0.16 0.1,0.06 c 0.58,0.33 1.18,0.65 1.77,1 6.951,3.234 14.075,6.081 21.34,8.53 5.41,1.57 9.84,2.39 12,2.39 4.75,0 32,-10.61 48.69,-49.07 1.1,-3.27 1.63,-5.32 1.63,-5.32 l 0.28,0.69 c 0.11,-0.27 0.22,-0.53 0.32,-0.8 5.467,9.087 8.241,19.538 8,30.14 25.282,-13.849 49.384,-29.752 72.06,-47.55 v -0.11 c 0.27,-0.64 0.53,-1.29 0.8,-1.94 l 0.06,-0.13 0.81,-2 0.84,-2.08 c 14.48,-35.83 23.58,-89 23.58,-89 0.06,-0.18 0.28,0.09 0.6,0.74 0,-0.55 0,-0.85 0,-0.85 0,0 16.27,22.41 10.61,62.24 z"
     fill="#d96e27" />
  <path
     d="m 341.34234,702.15892 c 3.8269,3.408 8.6776,5.448 13.79,5.8 -14.29,-11.37 -19.51,-22.39 -21.29,-27.35 -5.1855,-17.7946 -8.5363,-36.0732 -10,-54.5501 -19.5289,-1.3839 -38.8956,-4.5062 -57.87,-9.33 v 12.6801 c 14,36.84 4.58,64.43 29,110.49 0,-0.65 0,-1.31 -0.05,-2 -4.39,-21.71 0,-41.57 2.12,-49.19 0.21,-1.88 0.36,-2.9201 0.36,-2.9201 v -0.07 c 0,-0.12 0,-0.1999 0,-0.1999 v 0.0999 c 0,0.14 0.11,0.4501 0.22,0.9001 0.23,-0.7201 0.36,-1.11 0.36,-1.11 0,0 0.89,4.9099 2.54,12.7399 3.93,15.4801 11.16,43.0001 19.45,70.0801 0.92,2.43 1.87,4.81 2.84,7.11 0.07,0.21 0.15,0.44 0.23,0.65 27.94,29.88 62.13,55.36 93.14,74.5 3.34,2 6.51,3.87 9.48,5.61 -2.849,-14.326 -2.02,-29.141 2.41,-43.06 0,0 0.07,0.38 0.21,1.08 0.24,-0.77 0.4,-1.19 0.4,-1.19 0,0 11.43,47.45 34.52,62.83 0.57,0.24 1.15,0.47 1.73,0.66 l -0.44,0.16 0.1,0.06 c 0.58,0.33 1.18,0.65 1.77,1 6.951,3.234 14.075,6.081 21.34,8.53 5.41,1.57 9.84,2.39 12,2.39 3.53,0 19.51,-5.88 34.33,-24.72 -69.25,-22.53 -155.41,-68.59 -192.69,-161.68 z"
     fill="rgba(0,0,0,.15)" />
  <path
     d="m 431.71234,812.02892 c 0,0 9.49,9 29.29,4.09 -1.47,3.55 -5.93,5.4 -5.93,5.4 0,0 6.17,8.13 19.06,7.75 0,0 -7.73,4.8 -15.53,1.65 -6.082,-0.889 -12.208,-1.446 -18.35,-1.67 l -13.51,-9.38 z"
     fill="rgba(0,0,0,.2)" />
  <path
     d="m 349.54234,626.76882 c -1.76,0.32 -3.52,0.6 -5.28,0.84 -0.89,0.11 -1.77,0.25 -2.65,0.35 l -2.66,0.24 -5.32,0.38 c -1.78,0.08 -3.56,0.09 -5.33,0.14 -3.56,0.07 -7.11,-0.07 -10.67,-0.2 -3.56,-0.13 -7.1,-0.37 -10.64,-0.71 -3.54,-0.34 -7.07,-0.7 -10.61,-1.1 -3.54,-0.4 -7.05,-1 -10.56,-1.56 -7.078,-1.1398 -14.0884,-2.6654 -21,-4.57 l -3.85,-1.08 2.1,-7.56997 3.88,0.94 c 6.61,1.61 13.47,3.12997 20.27,4.48997 6.8,1.36 13.68,2.64 20.57,3.72 3.44,0.59 6.89,1 10.35,1.56 3.46,0.56 6.92,1 10.39,1.31 6.98,0.95 13.95,1.66 21.01,2.82 z"
     fill="#592d3d" />
  <path
     d="m 667.15234,784.31892 c 10.26,-10.26 9.29,-9.63 17.79,-20.94 -1.5,-34.48 -30,-53.71 -30,-53.71 l 1.9,11.66 c 0.84,0.16 7.91,18.47 7.56,46.08 z"
     fill="rgba(0,0,0,.2)" />
  <path
     d="m 573.20234,855.11892 c -5.72,-24.9 -22.42,-29.15 -22.42,-29.15 l 3.21,19.45 c 1.944,6.232 3.251,12.644 3.9,19.14 5,-2.72 10.16,-5.66 15.45,-8.78 z"
     fill="rgba(0,0,0,.2)" />
  <path
     d="m 337.93234,730.86892 c 1.4006,6.948 3.6124,13.708 6.59,20.14 2.9152,6.327 6.3678,12.393 10.32,18.13 l 3.09,4.18 c 0.53,0.68 1,1.42 1.56,2.07 l 1.66,2 c 1.13,1.31 2.19,2.68 3.35,4 l 3.56,3.78 c 0.6,0.62 1.16,1.28 1.77,1.89 l 1.9,1.78 3.77,3.58 c 2.58,2.32 5.33,4.45 7.94,6.75 l -6.28,3.32 -0.06,-4 c 0.05,-1.32 0.07,-2.64 0.2,-4 0.13,-1.36 0.23,-2.65 0.46,-4 0.11,-0.66 0.18,-1.32 0.32,-2 l 0.43,-2 c 0.602,-2.629 1.446,-5.196 2.52,-7.67 0.535,-1.224 1.139,-2.416 1.81,-3.57 0.34,-0.6 0.73,-1.18 1.13,-1.77 0.21,-0.29 0.4,-0.57 0.64,-0.87 0.24,-0.3 0.42,-0.54 0.78,-0.95 l 4.46,-5.06 0.56,6.55 c 0.1,1.09 0.3,2.4 0.53,3.61 0.23,1.21 0.51,2.46 0.84,3.68 0.647,2.442 1.487,4.83 2.51,7.14 1.066,2.314 2.374,4.51 3.9,6.55 1.62,2.052 3.511,3.875 5.62,5.42 -2.549,-0.947 -4.916,-2.323 -7,-4.07 -2.112,-1.802 -3.975,-3.877 -5.54,-6.17 -1.563,-2.307 -2.902,-4.759 -4,-7.32 -0.54,-1.28 -1,-2.58 -1.46,-3.91 -0.457,-1.362 -0.828,-2.751 -1.11,-4.16 l 5,1.49 c 0,0.08 -0.22,0.35 -0.34,0.55 -0.12,0.2 -0.26,0.46 -0.39,0.69 -0.25,0.48 -0.5,1 -0.73,1.48 -0.467,1.028 -0.88,2.08 -1.24,3.15 -0.712,2.185 -1.254,4.421 -1.62,6.69 -0.362,2.297 -0.58,4.615 -0.65,6.94 -0.06,1.16 0,2.34 0,3.51 l 0.16,3.53 0.4,8.64 -6.68,-5.32 c -1.44,-1.15 -2.87,-2.29 -4.29,-3.46 l -2.14,-1.75 c -0.7,-0.59 -1.44,-1.14 -2.09,-1.79 l -4,-3.83 -2,-1.91 c -0.64,-0.67 -1.25,-1.36 -1.86,-2.05 l -3.67,-4.15 c -1.21,-1.39 -2.26,-2.92 -3.38,-4.39 -2.2164,-2.953 -4.2759,-6.021 -6.17,-9.19 -3.6819,-6.395 -6.5795,-13.211 -8.63,-20.3 -1.93,-7.01 -3.11,-14.36 -2.45,-21.58 z"
     fill="#592d3d" />
  <path
     d="m 636.62234,719.58892 c 0.51,0.469 0.925,1.033 1.22,1.66 0.321,0.628 0.601,1.276 0.84,1.94 0.471,1.328 0.858,2.684 1.16,4.06 0.559,2.744 0.92,5.524 1.08,8.32 0.315,5.575 0.135,11.167 -0.54,16.71 -1.324,11.158 -4.359,22.046 -9,32.28 -4.624,10.353 -11.15,19.745 -19.24,27.69 -8.006,7.867 -17.783,13.697 -28.51,17 8.954,-5.916 17.007,-13.094 23.91,-21.31 6.675,-8.124 12.241,-17.099 16.55,-26.69 4.362,-9.636 7.743,-19.687 10.09,-30 1.214,-5.2 2.152,-10.461 2.81,-15.76 0.32,-2.65 0.54,-5.32 0.63,-8 0.053,-1.334 0.026,-2.67 -0.08,-4 -0.041,-0.672 -0.127,-1.34 -0.26,-2 -0.106,-0.667 -0.33,-1.311 -0.66,-1.9 z"
     fill="#ffffff" />
  <path
     d="m 260.35235,616.81892 c 22.23999,43.9 7.21999,72.38 35.17999,124.3 -7,-29 2.43,-55.6801 2.43,-55.6801 0,0 9.88,54.5901 24.88,89.9301 7.28,23.46 69.85,61.4 103.55,81.17 -2.972,-14.486 -2.173,-29.492 2.32,-43.58 0,0 11.89,49.36 35.91,63.71 13.43,7.58 30.15,11.89 35.13,11.89 4.98,0 34.53,-11.58 50.92,-54.5 5.532,9.253 8.275,19.906 7.9,30.68 22.18,-12 53.39,-25.68 72.45,-47.65 26.34,-34.69 26.34,-95.84 26.34,-95.84 0,0 16.48,22.85 10.41,63.3 61.76,-68.3 54.34,-143.14 71.42,-175.57005"
     stroke="#592d3d"
     stroke-width="12"
     fill="none" />
  <path
     d="m 732.22234,612.01887 c 0.282,0.51369 0.679,0.95519 1.16,1.29 0.634,0.43524 1.381,0.67829 2.15,0.7 0.579,0.0157 1.153,-0.10054 1.68,-0.34 h -0.09 l -0.2,0.11 -0.48,0.24 -1,0.51 -2,0.99995 c -1.333,0.6667 -2.667,1.3334 -4,2 -2.69,1.32 -5.41,2.57 -8.13,3.81 -2.72,1.24 -5.5,2.41 -8.27,3.57 -2.77,1.16 -5.6,2.23 -8.47,3.26 -1.44,0.51 -2.89,1 -4.39,1.43 -1.558,0.4814 -3.144,0.8655 -4.75,1.15 -0.47,0.08 -0.81,0.11 -1.18,0.16 l -1.12,0.13 c -0.74,0.09 -1.48,0.16 -2.23,0.23 -1.49,0.14 -3,0.3 -4.49,0.4 -6.028,0.4966 -12.092,0.3525 -18.09,-0.43 5.86,-1.58 11.62,-2.89 17.37,-4.29 l 8.59,-2 c 1.295,-0.3803 2.567,-0.8343 3.81,-1.36 1.31,-0.52 2.63,-1.14 4,-1.72 2.65,-1.19 5.29,-2.47 7.93,-3.77 2.64,-1.3 5.29,-2.61 7.93,-3.92995 l 7.94,-4 4,-2 2,-1 1,-0.48 0.53,-0.25 0.3,-0.13 0.16,-0.08 h 0.05 c 1.879,-0.85392 4.1,-0.18214 5.19,1.57001 l 2.13,3.38 -7.06,4.18995 z"
     fill="#592d3d" />
</svg>
