<svg id="facialhair-big" xmlns="http://www.w3.org/2000/svg" viewBox="0 0 1000 1000">
    <path d="M667.902 783.569c2.2-2.213 4.367-4.45 6.5-6.71 45.16-54.71 48.7-112.39 57.87-148.37v-14.24l-2.44.84c.83-1.52 1.65-3 2.44-4.56-.06-.1-3.49 3.38-3.55 3.28a33.618 33.618 0 01-5.08 3.44l-32.55 11.28a220.36 220.36 0 01-43.89 3.82c-63-.26-77.907-13.511-113.2-20-35.292-6.489-76.95-1.23-96.49 1.58-19.54 2.81-37.06 11.81-88 12.85-44.15.9-83.62-10-83.62-10v12.68c14 36.84 4.58 64.43 29 110.49 0-.65 0-1.31-.05-2-4.39-21.71 0-41.57 2.12-49.19.21-1.88.36-2.92.36-2.92v-.07-.2.1c0 .14.11.45.22.9.23-.72.36-1.11.36-1.11s.89 4.91 2.54 12.74c3.93 15.48 11.16 43 19.45 70.08.92 2.43 1.87 4.81 2.84 7.11.07.21.15.44.23.65 27.94 29.88 62.13 55.36 93.14 74.5 3.34 2 6.51 3.87 9.48 5.61a86.41 86.41 0 012.41-43.06s.07.38.21 1.08c.24-.77.4-1.19.4-1.19s11.43 47.45 34.52 62.83c.57.24 1.15.47 1.73.66l-.44.16.1.06c.58.33 1.18.65 1.77 1a208.388 208.388 0 0021.34 8.53c5.41 1.57 9.84 2.39 12 2.39 4.75 0 32-10.61 48.69-49.07 1.1-3.27 1.63-5.32 1.63-5.32l.28.69c.11-.27.22-.53.32-.8a55.994 55.994 0 018 30.14 526.01 526.01 0 0072.06-47.55v-.11c.27-.64.53-1.29.8-1.94l.06-.13.81-2 .84-2.08c14.48-35.83 23.58-89 23.58-89 .06-.18.28.09.6.74v-.85s16.27 22.41 10.61 62.24z" fill="#d96e27"/>
    <path d="M341.342 702.159a23.123 23.123 0 0013.79 5.8c-14.29-11.37-19.51-22.39-21.29-27.35a271.662 271.662 0 01-10-54.55 329.364 329.364 0 01-57.87-9.33v12.68c14 36.84 4.58 64.43 29 110.49 0-.65 0-1.31-.05-2-4.39-21.71 0-41.57 2.12-49.19.21-1.88.36-2.92.36-2.92v-.07-.2.1c0 .14.11.45.22.9.23-.72.36-1.11.36-1.11s.89 4.91 2.54 12.74c3.93 15.48 11.16 43 19.45 70.08.92 2.43 1.87 4.81 2.84 7.11.07.21.15.44.23.65 27.94 29.88 62.13 55.36 93.14 74.5 3.34 2 6.51 3.87 9.48 5.61a86.41 86.41 0 012.41-43.06s.07.38.21 1.08c.24-.77.4-1.19.4-1.19s11.43 47.45 34.52 62.83c.57.24 1.15.47 1.73.66l-.44.16.1.06c.58.33 1.18.65 1.77 1a208.388 208.388 0 0021.34 8.53c5.41 1.57 9.84 2.39 12 2.39 3.53 0 19.51-5.88 34.33-24.72-69.25-22.53-155.41-68.59-192.69-161.68z" fill="rgba(0,0,0,.15)"/>
    <path d="M431.712 812.029s9.49 9 29.29 4.09c-1.47 3.55-5.93 5.4-5.93 5.4s6.17 8.13 19.06 7.75c0 0-7.73 4.8-15.53 1.65a169.618 169.618 0 00-18.35-1.67l-13.51-9.38z" fill="rgba(0,0,0,.2)"/>
    <path d="M349.542 626.769c-1.76.32-3.52.6-5.28.84-.89.11-1.77.25-2.65.35l-2.66.24-5.32.38c-1.78.08-3.56.09-5.33.14-3.56.07-7.11-.07-10.67-.2-3.56-.13-7.1-.37-10.64-.71-3.54-.34-7.07-.7-10.61-1.1-3.54-.4-7.05-1-10.56-1.56a196.854 196.854 0 01-21-4.57l-3.85-1.08 2.1-7.57 3.88.94c6.61 1.61 13.47 3.13 20.27 4.49 6.8 1.36 13.68 2.64 20.57 3.72 3.44.59 6.89 1 10.35 1.56s6.92 1 10.39 1.31c6.98.95 13.95 1.66 21.01 2.82z" fill="#592d3d"/>
    <path d="M667.152 784.319c10.26-10.26 9.29-9.63 17.79-20.94-1.5-34.48-30-53.71-30-53.71l1.9 11.66c.84.16 7.91 18.47 7.56 46.08zM573.202 855.119c-5.72-24.9-22.42-29.15-22.42-29.15l3.21 19.45a96.48 96.48 0 013.9 19.14c5-2.72 10.16-5.66 15.45-8.78z" fill="rgba(0,0,0,.2)"/>
    <path d="M337.932 730.869a90.52 90.52 0 006.59 20.14 121.812 121.812 0 0010.32 18.13l3.09 4.18c.53.68 1 1.42 1.56 2.07l1.66 2c1.13 1.31 2.19 2.68 3.35 4l3.56 3.78c.6.62 1.16 1.28 1.77 1.89l1.9 1.78 3.77 3.58c2.58 2.32 5.33 4.45 7.94 6.75l-6.28 3.32-.06-4c.05-1.32.07-2.64.2-4 .13-1.36.23-2.65.46-4 .11-.66.18-1.32.32-2l.43-2a43.826 43.826 0 012.52-7.67 34.943 34.943 0 011.81-3.57c.34-.6.73-1.18 1.13-1.77.21-.29.4-.57.64-.87.24-.3.42-.54.78-.95l4.46-5.06.56 6.55c.1 1.09.3 2.4.53 3.61.23 1.21.51 2.46.84 3.68a47.988 47.988 0 002.51 7.14 36.28 36.28 0 003.9 6.55 28.98 28.98 0 005.62 5.42 23.792 23.792 0 01-7-4.07 31.32 31.32 0 01-5.54-6.17 43.874 43.874 0 01-4-7.32c-.54-1.28-1-2.58-1.46-3.91a34.135 34.135 0 01-1.11-4.16l5 1.49c0 .08-.22.35-.34.55-.12.2-.26.46-.39.69-.25.48-.5 1-.73 1.48a33.254 33.254 0 00-1.24 3.15 44.424 44.424 0 00-1.62 6.69 55.265 55.265 0 00-.65 6.94c-.06 1.16 0 2.34 0 3.51l.16 3.53.4 8.64-6.68-5.32c-1.44-1.15-2.87-2.29-4.29-3.46l-2.14-1.75c-.7-.59-1.44-1.14-2.09-1.79l-4-3.83-2-1.91c-.64-.67-1.25-1.36-1.86-2.05l-3.67-4.15c-1.21-1.39-2.26-2.92-3.38-4.39a105.339 105.339 0 01-6.17-9.19 91.816 91.816 0 01-8.63-20.3c-1.93-7.01-3.11-14.36-2.45-21.58z" fill="#592d3d"/>
    <path d="M636.622 719.589c.51.469.925 1.033 1.22 1.66.321.628.601 1.276.84 1.94a33.861 33.861 0 011.16 4.06c.56 2.744.92 5.524 1.08 8.32a94.25 94.25 0 01-.54 16.71 109.36 109.36 0 01-9 32.28 90.587 90.587 0 01-19.24 27.69 70.116 70.116 0 01-28.51 17 111.536 111.536 0 0023.91-21.31 118.613 118.613 0 0016.55-26.69 157.494 157.494 0 0010.09-30 151.368 151.368 0 002.81-15.76c.32-2.65.54-5.32.63-8 .053-1.334.026-2.67-.08-4a14.631 14.631 0 00-.26-2 5.73 5.73 0 00-.66-1.9z" fill="#fff"/>
    <path d="M260.352 616.819c22.24 43.9 7.22 72.38 35.18 124.3-7-29 2.43-55.68 2.43-55.68s9.88 54.59 24.88 89.93c7.28 23.46 69.85 61.4 103.55 81.17a86.327 86.327 0 012.32-43.58s11.89 49.36 35.91 63.71c13.43 7.58 30.15 11.89 35.13 11.89 4.98 0 34.53-11.58 50.92-54.5a55.992 55.992 0 017.9 30.68c22.18-12 53.39-25.68 72.45-47.65 26.34-34.69 26.34-95.84 26.34-95.84s16.48 22.85 10.41 63.3c61.76-68.3 54.34-143.14 71.42-175.57" stroke="#592d3d" stroke-width="12" fill="none"/>
    <path d="M732.222 612.019a3.8 3.8 0 001.16 1.29 4 4 0 002.15.7 3.81 3.81 0 001.68-.34h-.09l-.2.11-.48.24-1 .51-2 1-4 2c-2.69 1.32-5.41 2.57-8.13 3.81-2.72 1.24-5.5 2.41-8.27 3.57-2.77 1.16-5.6 2.23-8.47 3.26-1.44.51-2.89 1-4.39 1.43a39.323 39.323 0 01-4.75 1.15c-.47.08-.81.11-1.18.16l-1.12.13c-.74.09-1.48.16-2.23.23-1.49.14-3 .3-4.49.4a85.545 85.545 0 01-18.09-.43c5.86-1.58 11.62-2.89 17.37-4.29l8.59-2a35.356 35.356 0 003.81-1.36c1.31-.52 2.63-1.14 4-1.72 2.65-1.19 5.29-2.47 7.93-3.77 2.64-1.3 5.29-2.61 7.93-3.93l7.94-4 4-2 2-1 1-.48.53-.25.3-.13.16-.08h.05a4.11 4.11 0 015.19 1.57l2.13 3.38-7.06 4.19z" fill="#592d3d"/>
</svg>
