<svg id="facialhair-stubble" xmlns="http://www.w3.org/2000/svg" viewBox="0 0 1000 1000">
  <path
     opacity="0.15"
     d="m 662.37,699.35216 c 28.31,-23 54.41,-54.72 70.68,-86.10005 -0.06,-0.1 -3.49,3.38 -3.55,3.28 -0.06,-0.1 -21.07,18.78005 -81.52,18.50005 -76.3,-0.31 -60.54,-21.68004 -152.51,-21.68004 -81.42,0 -68.49,11.89004 -145.15,16.15004 -62.09,3.45 -83.62,-13.00005 -83.62,-13.00005 l -0.2,0.33 c 10.8621,20.91905 24.506,40.27145 40.56,57.53005 4.32,4.65 8.86,9.18 13.48,13.48 4.8876,4.5968 10.0112,8.936 15.35,13 5.18,3.95 10.67,7.72 16.33,11.21 21.71,11.9999 46.48,21.1399 73.63,27.1299 6.49,1.43 13,2.64 19.31,3.6 65.81,5.85 141.08,6.7 200.74,-31.1199 5.63,-3.85 11.17,-8.0001 16.47,-12.31 z"
     fill="#000000"
     id="path861" />
  <circle
     cx="309.83002"
     cy="656.17218"
     r="4.1799998"
     fill="#592d3d"
     id="circle863" />
  <circle
     cx="336.83002"
     cy="660.35217"
     r="2.96"
     fill="#592d3d"
     id="circle865" />
  <circle
     cx="399.37"
     cy="705.01215"
     r="2.96"
     fill="#592d3d"
     id="circle867" />
  <circle
     cx="505.14999"
     cy="708.34204"
     r="2.96"
     fill="#592d3d"
     id="circle869" />
  <circle
     cx="515.95001"
     cy="701.53217"
     r="2.96"
     fill="#592d3d"
     id="circle871" />
  <circle
     cx="576.65002"
     cy="698.57214"
     r="2.96"
     fill="#592d3d"
     id="circle873" />
  <circle
     cx="579.60999"
     cy="680.18207"
     r="2.96"
     fill="#592d3d"
     id="circle875" />
  <circle
     cx="390.01001"
     cy="687.75214"
     r="5.3699999"
     fill="#592d3d"
     id="circle877" />
  <circle
     cx="598.76001"
     cy="704.48218"
     r="2.0899999"
     fill="#592d3d"
     id="circle879" />
  <circle
     cx="641.28003"
     cy="693.11218"
     r="4.1799998"
     fill="#592d3d"
     id="circle881" />
  <circle
     cx="460.88"
     cy="721.07208"
     r="4.1799998"
     fill="#592d3d"
     id="circle883" />
  <circle
     cx="641.28003"
     cy="660.25214"
     r="2.96"
     fill="#592d3d"
     id="circle885" />
  <circle
     cx="652.37"
     cy="670.09204"
     r="2.96"
     fill="#592d3d"
     id="circle887" />
</svg>
