<svg id="glasses-big" xmlns="http://www.w3.org/2000/svg" viewBox="0 0 1000 1000">
    <circle opacity=".2" cx="339.31" cy="549.8" r="93.31" fill="#fff"/>
    <path opacity=".15" d="M744.88 608.07c-24.843 36.377-70.025 52.991-112.516 41.374-42.491-11.617-72.935-48.908-75.814-92.864-37-14.6-74.43-14.47-114.19.39-3.827 54.089-48.776 96.04-103 96.13-32.48 0-76-36.5-71-28.39 14 20.69 47 36.45 72.54 36.45 54.55 0 97.87-39.29 101.56-92.92 39.76-14.85 77.23-15 114.19-.39 3.5 53.82 48.39 93.53 103.07 93.53 44.69 0 70.09-34.13 85.16-53.31z"/>
    <path opacity=".4" d="M320.41 650l123.07-123.08a93.06 93.06 0 00-10-17.27L303.13 640.01a93.067 93.067 0 0017.28 9.99z" fill="#fff"/>
    <circle cx="339.31" cy="549.8" r="93.31" stroke="#592d3d" stroke-width="20" fill="none"/>
    <path d="M433.18 549.8c45.2-18.31 89.61-19 133.14 0" stroke="#592d3d" stroke-width="20" fill="none"/>
    <path d="M315.11 493.75c2.06 6.5-5.94 11.5-11.94 12.5-6 0-10-4-12-9-1-5 0-10 4-13 5-2 12-4 16.45 1.13a11.66 11.66 0 013.49 8.37zm10.67-3.83c-.61 4.33-6.61 4.33-7.61.33 0-3 1-4 3.85-4.1a3.76 3.76 0 013.76 3.77z" fill="#fff"/>
    <circle opacity=".2" cx="659.62" cy="549.8" r="93.31" fill="#fff"/>
    <path opacity=".4" d="M645.6 642.06l106.28-106.29a94.829 94.829 0 00-2.41-11.22l-115.06 115.1a94.362 94.362 0 0011.19 2.41z" fill="#fff"/>
    <circle cx="659.62" cy="549.8" r="93.31" stroke="#592d3d" stroke-width="20" fill="none"/>
    <path d="M635.41 493.75c2.06 6.5-5.94 11.5-11.94 12.5-6 0-10-4-12-9-1-5 0-10 4-13 5-2 12-4 16.45 1.13a11.702 11.702 0 013.49 8.37zm10.69-3.83c-.61 4.33-6.61 4.33-7.61.33 0-3 1-4 3.84-4.1a3.77 3.77 0 013.77 3.77z" fill="#fff"/>
</svg>
